M48
METRIC,LZ,000.000
;FILE_FORMAT=3:3
;TYPE=PLATED
;Layer: PTH_Through
;EasyEDA v6.5.48, 2025-03-08 11:51:36
;8fe2fb576d564ac8881881e7cade559e,369c048249c94b259d5cf78f180de413,10
;Gerber Generator version 0.2
;Holesize 1 = 0.310 mm
T01C0.310
;Holesize 2 = 0.701 mm
T02C0.701
;Holesize 3 = 0.712 mm
T03C0.712
;Holesize 4 = 0.889 mm
T04C0.889
;Holesize 5 = 0.900 mm
T05C0.900
;Holesize 6 = 0.901 mm
T06C0.901
;Holesize 7 = 1.101 mm
T07C1.101
;Holesize 8 = 1.200 mm
T08C1.200
%
G05
G90
T01
X042271Y-029881
X035938Y-042776
X027214Y-047198
X030897Y-027236
X027940Y-026990
X030551Y-042964
X031938Y-043073
X025309Y-025903
X037950Y-027927
X046391Y-027927
X049919Y-027953
X033617Y-048537
X034359Y-046500
T02
X053837Y-036068
X052335Y-036068
X058536Y-035814
X057034Y-035814
T03
X057023Y-046736
X057023Y-044196
X019304Y-026670
X016764Y-026670
X046609Y-047371
X046609Y-049911
T04
X014224Y-043434
X014224Y-040894
X014224Y-038354
X014224Y-035814
X014224Y-033274
X014224Y-030734
X029083Y-049530
X026543Y-049530
X024003Y-049530
X021463Y-049530
X018923Y-049530
X016383Y-049530
X021590Y-023622
X024130Y-023622
X026670Y-023622
X029210Y-023622
X042672Y-023495
X045212Y-023495
X047752Y-023495
X050292Y-023495
T05
X048133Y-037338
X048133Y-029718
X050546Y-032004
X058166Y-032004
X050546Y-029591
X058166Y-029591
X045593Y-029718
X045593Y-037338
X043561Y-049403
X035941Y-049403
X053467Y-039878
X045847Y-039878
T06
X056515Y-040386
X059055Y-040386
T07
X035941Y-047117
X043561Y-047117
T08
X059996Y-049621
X066496Y-049621
X066496Y-045121
X059996Y-045121
X060123Y-028031
X066623Y-028031
X066623Y-023531
X060123Y-023531
M30
