G04 Layer: BottomSolderMaskLayer*
G04 EasyEDA v6.5.48, 2025-03-08 11:51:36*
G04 8fe2fb576d564ac8881881e7cade559e,369c048249c94b259d5cf78f180de413,10*
G04 Gerber Generator version 0.2*
G04 Scale: 100 percent, Rotated: No, Reflected: No *
G04 Dimensions in millimeters *
G04 leading zeros omitted , absolute positions ,4 integer and 5 decimal *
%FSLAX45Y45*%
%MOMM*%

%AMMACRO1*4,1,8,-0.8296,-0.889,-0.889,-0.8293,-0.889,0.8296,-0.8296,0.889,0.8293,0.889,0.889,0.8296,0.889,-0.8293,0.8293,-0.889,-0.8296,-0.889,0*%
%ADD10C,1.7780*%
%ADD11MACRO1*%
%ADD12C,2.0828*%
%ADD13C,2.1082*%
%ADD14C,1.3970*%
%ADD15C,1.2032*%
%ADD16C,2.2032*%
%ADD17C,1.8542*%

%LPD*%
D10*
G01*
X1422400Y-4343400D03*
G01*
X1422400Y-4089400D03*
G01*
X1422400Y-3835400D03*
G01*
X1422400Y-3581400D03*
G01*
X1422400Y-3327400D03*
D11*
G01*
X1422400Y-3073400D03*
D10*
G01*
X2908300Y-4953000D03*
G01*
X2654300Y-4953000D03*
G01*
X2400300Y-4953000D03*
G01*
X2146300Y-4953000D03*
G01*
X1892300Y-4953000D03*
D11*
G01*
X1638300Y-4953000D03*
D12*
G01*
X4813300Y-3733800D03*
G01*
X4813300Y-2971800D03*
D13*
G01*
X3594100Y-4711700D03*
G01*
X4356100Y-4711700D03*
D14*
G01*
X5702300Y-4673600D03*
G01*
X5702300Y-4419600D03*
D12*
G01*
X5054600Y-3200400D03*
G01*
X5816600Y-3200400D03*
G01*
X5054600Y-2959100D03*
G01*
X5816600Y-2959100D03*
G01*
X4559300Y-2971800D03*
G01*
X4559300Y-3733800D03*
G01*
X4356100Y-4940300D03*
G01*
X3594100Y-4940300D03*
G01*
X5346700Y-3987800D03*
G01*
X4584700Y-3987800D03*
D14*
G01*
X1930400Y-2667000D03*
G01*
X1676400Y-2667000D03*
D15*
G01*
X5383656Y-3606800D03*
G01*
X5233543Y-3606800D03*
D14*
G01*
X4660900Y-4737100D03*
G01*
X4660900Y-4991100D03*
D15*
G01*
X5853556Y-3581400D03*
G01*
X5703443Y-3581400D03*
D16*
G01*
X5999606Y-4962093D03*
G01*
X6649593Y-4962093D03*
G01*
X6649593Y-4512106D03*
G01*
X5999606Y-4512106D03*
G01*
X6012306Y-2803093D03*
G01*
X6662293Y-2803093D03*
G01*
X6662293Y-2353106D03*
G01*
X6012306Y-2353106D03*
D17*
G01*
X5651500Y-4038600D03*
G01*
X5905500Y-4038600D03*
D11*
G01*
X2159000Y-2362200D03*
D10*
G01*
X2413000Y-2362200D03*
G01*
X2667000Y-2362200D03*
G01*
X2921000Y-2362200D03*
D11*
G01*
X4267200Y-2349500D03*
D10*
G01*
X4521200Y-2349500D03*
G01*
X4775200Y-2349500D03*
G01*
X5029200Y-2349500D03*
M02*
