G04 Layer: TopSolderMaskLayer*
G04 EasyEDA v6.5.48, 2025-03-08 11:51:36*
G04 8fe2fb576d564ac8881881e7cade559e,369c048249c94b259d5cf78f180de413,10*
G04 Gerber Generator version 0.2*
G04 Scale: 100 percent, Rotated: No, Reflected: No *
G04 Dimensions in millimeters *
G04 leading zeros omitted , absolute positions ,4 integer and 5 decimal *
%FSLAX45Y45*%
%MOMM*%

%AMMACRO1*4,1,8,-0.8296,-0.889,-0.889,-0.8293,-0.889,0.8296,-0.8296,0.889,0.8293,0.889,0.889,0.8296,0.889,-0.8293,0.8293,-0.889,-0.8296,-0.889,0*%
%AMMACRO2*4,1,8,-1.9421,-1.2522,-2.0015,-1.1925,-2.0015,1.1928,-1.9421,1.2522,1.9418,1.2522,2.0015,1.1928,2.0015,-1.1925,1.9418,-1.2522,-1.9421,-1.2522,0*%
%AMMACRO3*4,1,8,-0.6416,-1.1024,-0.701,-1.0427,-0.701,1.0429,-0.6416,1.1024,0.6413,1.1024,0.701,1.0429,0.701,-1.0427,0.6413,-1.1024,-0.6416,-1.1024,0*%
%AMMACRO4*4,1,8,-0.6429,-1.1024,-0.7023,-1.0427,-0.7023,1.0429,-0.6429,1.1024,0.6426,1.1024,0.7023,1.0429,0.7023,-1.0427,0.6426,-1.1024,-0.6429,-1.1024,0*%
%AMMACRO5*4,1,8,-0.5425,-1.1024,-0.602,-1.0427,-0.602,1.0429,-0.5425,1.1024,0.5423,1.1024,0.602,1.0429,0.602,-1.0427,0.5423,-1.1024,-0.5425,-1.1024,0*%
%AMMACRO6*4,1,8,-0.5413,-1.1024,-0.6007,-1.0427,-0.6007,1.0429,-0.5413,1.1024,0.541,1.1024,0.6007,1.0429,0.6007,-1.0427,0.541,-1.1024,-0.5413,-1.1024,0*%
%AMMACRO7*4,1,8,-1.0417,-0.6007,-1.1011,-0.541,-1.1011,0.5413,-1.0417,0.6007,1.0414,0.6007,1.1011,0.5413,1.1011,-0.541,1.0414,-0.6007,-1.0417,-0.6007,0*%
%AMMACRO8*4,1,8,-1.0429,-0.602,-1.1024,-0.5423,-1.1024,0.5425,-1.0429,0.602,1.0427,0.602,1.1024,0.5425,1.1024,-0.5423,1.0427,-0.602,-1.0429,-0.602,0*%
%AMMACRO9*4,1,8,-1.0417,-0.602,-1.1011,-0.5423,-1.1011,0.5425,-1.0417,0.602,1.0414,0.602,1.1011,0.5425,1.1011,-0.5423,1.0414,-0.602,-1.0417,-0.602,0*%
%AMMACRO10*4,1,8,-0.5425,-1.1011,-0.602,-1.0414,-0.602,1.0417,-0.5425,1.1011,0.5423,1.1011,0.602,1.0417,0.602,-1.0414,0.5423,-1.1011,-0.5425,-1.1011,0*%
%AMMACRO11*4,1,8,-0.5413,-1.1011,-0.6007,-1.0414,-0.6007,1.0417,-0.5413,1.1011,0.541,1.1011,0.6007,1.0417,0.6007,-1.0414,0.541,-1.1011,-0.5413,-1.1011,0*%
%AMMACRO12*4,1,8,-1.0417,-0.3277,-1.1011,-0.268,-1.1011,0.2682,-1.0417,0.3277,1.0414,0.3277,1.1011,0.2682,1.1011,-0.268,1.0414,-0.3277,-1.0417,-0.3277,0*%
%AMMACRO13*4,1,8,-1.0925,-1.0516,-1.1519,-0.9919,-1.1519,0.9921,-1.0925,1.0516,1.0922,1.0516,1.1519,0.9921,1.1519,-0.9919,1.0922,-1.0516,-1.0925,-1.0516,0*%
%ADD10C,1.7780*%
%ADD11MACRO1*%
%ADD12C,2.0828*%
%ADD13C,2.1082*%
%ADD14C,1.3970*%
%ADD15C,1.2032*%
%ADD16MACRO2*%
%ADD17MACRO3*%
%ADD18MACRO4*%
%ADD19C,2.2032*%
%ADD20C,1.8542*%
%ADD21MACRO5*%
%ADD22MACRO6*%
%ADD23MACRO7*%
%ADD24MACRO8*%
%ADD25MACRO9*%
%ADD26MACRO10*%
%ADD27MACRO11*%
%ADD28MACRO12*%
%ADD29MACRO13*%

%LPD*%
D10*
G01*
X1422400Y-4343400D03*
G01*
X1422400Y-4089400D03*
G01*
X1422400Y-3835400D03*
G01*
X1422400Y-3581400D03*
G01*
X1422400Y-3327400D03*
D11*
G01*
X1422400Y-3073400D03*
D10*
G01*
X2908300Y-4953000D03*
G01*
X2654300Y-4953000D03*
G01*
X2400300Y-4953000D03*
G01*
X2146300Y-4953000D03*
G01*
X1892300Y-4953000D03*
D11*
G01*
X1638300Y-4953000D03*
D12*
G01*
X4813300Y-3733800D03*
G01*
X4813300Y-2971800D03*
D13*
G01*
X3594100Y-4711700D03*
G01*
X4356100Y-4711700D03*
D14*
G01*
X5702300Y-4673600D03*
G01*
X5702300Y-4419600D03*
D12*
G01*
X5054600Y-3200400D03*
G01*
X5816600Y-3200400D03*
G01*
X5054600Y-2959100D03*
G01*
X5816600Y-2959100D03*
G01*
X4559300Y-2971800D03*
G01*
X4559300Y-3733800D03*
G01*
X4356100Y-4940300D03*
G01*
X3594100Y-4940300D03*
G01*
X5346700Y-3987800D03*
G01*
X4584700Y-3987800D03*
D14*
G01*
X1930400Y-2667000D03*
G01*
X1676400Y-2667000D03*
D15*
G01*
X5383656Y-3606800D03*
G01*
X5233543Y-3606800D03*
D14*
G01*
X4660900Y-4737100D03*
G01*
X4660900Y-4991100D03*
D15*
G01*
X5853556Y-3581400D03*
G01*
X5703443Y-3581400D03*
D16*
G01*
X5181600Y-4965700D03*
D17*
G01*
X5181600Y-4330700D03*
D18*
G01*
X4951603Y-4330700D03*
G01*
X5411596Y-4330700D03*
D19*
G01*
X5999606Y-4962093D03*
G01*
X6649593Y-4962093D03*
G01*
X6649593Y-4512106D03*
G01*
X5999606Y-4512106D03*
G01*
X6012306Y-2803093D03*
G01*
X6662293Y-2803093D03*
G01*
X6662293Y-2353106D03*
G01*
X6012306Y-2353106D03*
D20*
G01*
X5651500Y-4038600D03*
G01*
X5905500Y-4038600D03*
D21*
G01*
X3594100Y-2857500D03*
D22*
G01*
X3394075Y-2857500D03*
G01*
X3194177Y-2857500D03*
D21*
G01*
X2994152Y-2857500D03*
G01*
X2794000Y-2857500D03*
G01*
X2594102Y-2857500D03*
G01*
X2394203Y-2857500D03*
G01*
X2194052Y-2857500D03*
D23*
G01*
X1994027Y-3157600D03*
D24*
G01*
X1994153Y-3357372D03*
D25*
G01*
X1994027Y-3557269D03*
G01*
X1994027Y-3757422D03*
G01*
X1994027Y-3957319D03*
G01*
X1994027Y-4157218D03*
D21*
G01*
X2193543Y-4457446D03*
D26*
G01*
X2393950Y-4457572D03*
D27*
G01*
X2593720Y-4457827D03*
D21*
G01*
X2793745Y-4457700D03*
D26*
G01*
X2993897Y-4457572D03*
D21*
G01*
X3193795Y-4457700D03*
D22*
G01*
X3393820Y-4457700D03*
D21*
G01*
X3593845Y-4457700D03*
D11*
G01*
X2159000Y-2362200D03*
D10*
G01*
X2413000Y-2362200D03*
G01*
X2667000Y-2362200D03*
G01*
X2921000Y-2362200D03*
D11*
G01*
X4267200Y-2349500D03*
D10*
G01*
X4521200Y-2349500D03*
G01*
X4775200Y-2349500D03*
G01*
X5029200Y-2349500D03*
D28*
G01*
X6336156Y-3527552D03*
G01*
X6336156Y-3592576D03*
G01*
X6336156Y-3657600D03*
G01*
X6336156Y-3722623D03*
G01*
X6336156Y-3787647D03*
D29*
G01*
X6643243Y-3207511D03*
G01*
X6643243Y-4107688D03*
M02*
