G04 Layer: BottomLayer*
G04 EasyEDA v6.5.48, 2025-03-08 11:51:36*
G04 8fe2fb576d564ac8881881e7cade559e,369c048249c94b259d5cf78f180de413,10*
G04 Gerber Generator version 0.2*
G04 Scale: 100 percent, Rotated: No, Reflected: No *
G04 Dimensions in millimeters *
G04 leading zeros omitted , absolute positions ,4 integer and 5 decimal *
%FSLAX45Y45*%
%MOMM*%

%ADD10C,0.8000*%
%ADD11C,1.5748*%
%ADD12R,1.5748X1.5748*%
%ADD13C,1.8796*%
%ADD14C,1.9050*%
%ADD15C,1.1938*%
%ADD16C,1.0000*%
%ADD17C,2.0000*%
%ADD18C,1.6510*%
%ADD19C,0.6100*%
%ADD20C,0.0153*%

%LPD*%
G36*
X1217168Y-5155692D02*
G01*
X1213256Y-5154930D01*
X1210005Y-5152694D01*
X1207770Y-5149443D01*
X1207008Y-5145532D01*
X1207465Y-5014772D01*
X1208227Y-5010912D01*
X1210411Y-5007660D01*
X1213612Y-5005476D01*
X1217472Y-5004663D01*
X1221333Y-5005374D01*
X1224635Y-5007457D01*
X1226870Y-5010658D01*
X1233322Y-5024932D01*
X1241298Y-5038140D01*
X1250797Y-5050231D01*
X1261668Y-5061102D01*
X1273759Y-5070602D01*
X1286967Y-5078577D01*
X1300988Y-5084927D01*
X1315669Y-5089499D01*
X1330807Y-5092242D01*
X1346200Y-5093208D01*
X1361592Y-5092242D01*
X1376730Y-5089499D01*
X1391412Y-5084927D01*
X1405432Y-5078577D01*
X1418640Y-5070602D01*
X1430731Y-5061102D01*
X1441602Y-5050231D01*
X1451102Y-5038140D01*
X1459077Y-5024932D01*
X1465427Y-5010912D01*
X1469999Y-4996230D01*
X1472742Y-4981092D01*
X1473708Y-4965700D01*
X1472742Y-4950307D01*
X1469999Y-4935169D01*
X1465427Y-4920488D01*
X1459077Y-4906467D01*
X1451102Y-4893259D01*
X1441602Y-4881168D01*
X1430731Y-4870297D01*
X1418640Y-4860798D01*
X1405432Y-4852822D01*
X1391412Y-4846472D01*
X1376730Y-4841900D01*
X1361592Y-4839157D01*
X1346200Y-4838192D01*
X1330807Y-4839157D01*
X1315669Y-4841900D01*
X1300988Y-4846472D01*
X1286967Y-4852822D01*
X1273759Y-4860798D01*
X1261668Y-4870297D01*
X1250797Y-4881168D01*
X1241298Y-4893259D01*
X1233322Y-4906467D01*
X1227328Y-4919776D01*
X1225042Y-4923028D01*
X1221689Y-4925110D01*
X1217828Y-4925771D01*
X1214018Y-4924958D01*
X1210767Y-4922723D01*
X1208633Y-4919421D01*
X1207871Y-4915611D01*
X1219657Y-2182368D01*
X1220470Y-2178456D01*
X1222654Y-2175205D01*
X1225956Y-2172970D01*
X1229868Y-2172208D01*
X6800088Y-2184146D01*
X6803999Y-2184908D01*
X6807250Y-2187092D01*
X6809486Y-2190394D01*
X6810248Y-2194306D01*
X6806692Y-5145532D01*
X6805930Y-5149443D01*
X6803745Y-5152745D01*
X6800443Y-5154930D01*
X6796531Y-5155692D01*
X3040888Y-5155692D01*
X3036925Y-5154879D01*
X3033522Y-5152542D01*
X3031388Y-5149037D01*
X3030778Y-5145024D01*
X3031794Y-5141061D01*
X3034334Y-5137810D01*
X3038246Y-5134457D01*
X3288537Y-4884013D01*
X3291535Y-4881930D01*
X3295091Y-4881067D01*
X3298698Y-4881473D01*
X3301949Y-4883150D01*
X3304387Y-4885893D01*
X3308400Y-4892395D01*
X3315106Y-4900269D01*
X3322980Y-4906975D01*
X3331768Y-4912360D01*
X3341319Y-4916322D01*
X3351377Y-4918760D01*
X3362096Y-4919573D01*
X3451707Y-4919573D01*
X3466185Y-4918557D01*
X3469741Y-4919776D01*
X3472637Y-4922215D01*
X3474465Y-4925517D01*
X3474923Y-4929276D01*
X3474212Y-4940300D01*
X3475126Y-4955032D01*
X3477869Y-4969560D01*
X3482340Y-4983581D01*
X3488486Y-4996992D01*
X3496259Y-5009540D01*
X3505504Y-5021072D01*
X3516122Y-5031333D01*
X3527907Y-5040223D01*
X3540658Y-5047589D01*
X3554272Y-5053330D01*
X3568446Y-5057394D01*
X3583025Y-5059680D01*
X3597808Y-5060137D01*
X3612489Y-5058765D01*
X3626916Y-5055616D01*
X3640836Y-5050688D01*
X3654044Y-5044084D01*
X3666337Y-5035956D01*
X3677564Y-5026355D01*
X3687470Y-5015433D01*
X3696004Y-5003393D01*
X3703015Y-4990388D01*
X3708349Y-4976622D01*
X3711905Y-4962347D01*
X3713734Y-4947666D01*
X3713734Y-4932934D01*
X3711905Y-4918252D01*
X3708349Y-4903978D01*
X3703015Y-4890211D01*
X3696004Y-4877206D01*
X3687470Y-4865166D01*
X3677564Y-4854244D01*
X3666337Y-4844643D01*
X3654044Y-4836515D01*
X3652570Y-4835753D01*
X3649167Y-4833061D01*
X3647236Y-4829149D01*
X3647135Y-4824780D01*
X3648811Y-4820818D01*
X3652012Y-4817872D01*
X3661003Y-4812690D01*
X3672890Y-4803698D01*
X3683609Y-4793335D01*
X3692956Y-4781702D01*
X3700830Y-4769002D01*
X3707079Y-4755438D01*
X3711600Y-4741265D01*
X3714343Y-4726584D01*
X3715258Y-4711700D01*
X3714343Y-4696815D01*
X3711600Y-4682134D01*
X3707079Y-4667961D01*
X3700830Y-4654397D01*
X3692956Y-4641697D01*
X3683609Y-4630064D01*
X3672890Y-4619701D01*
X3661003Y-4610709D01*
X3648100Y-4603242D01*
X3634384Y-4597450D01*
X3620008Y-4593386D01*
X3605276Y-4591100D01*
X3590391Y-4590643D01*
X3575507Y-4592015D01*
X3560927Y-4595164D01*
X3546906Y-4600143D01*
X3533546Y-4606798D01*
X3521100Y-4615027D01*
X3510584Y-4624019D01*
X3507282Y-4625898D01*
X3503523Y-4626457D01*
X3499815Y-4625543D01*
X3496716Y-4623358D01*
X3489147Y-4611268D01*
X3482441Y-4603394D01*
X3474567Y-4596688D01*
X3465779Y-4591304D01*
X3456228Y-4587341D01*
X3446170Y-4584903D01*
X3435451Y-4584090D01*
X3429660Y-4584090D01*
X3418941Y-4584903D01*
X3408883Y-4587341D01*
X3399332Y-4591304D01*
X3390544Y-4596688D01*
X3382365Y-4603648D01*
X2990494Y-4995722D01*
X2987192Y-4997958D01*
X2983331Y-4998720D01*
X2954020Y-4998720D01*
X2954020Y-5012080D01*
X2953258Y-5015941D01*
X2951022Y-5019243D01*
X2947771Y-5021427D01*
X2943860Y-5022240D01*
X2872740Y-5022240D01*
X2868828Y-5021427D01*
X2865577Y-5019243D01*
X2863342Y-5015941D01*
X2862580Y-5012080D01*
X2862580Y-4998720D01*
X2814421Y-4998720D01*
X2818434Y-5006390D01*
X2820009Y-5010454D01*
X2819755Y-5014823D01*
X2817723Y-5018633D01*
X2814218Y-5021275D01*
X2810002Y-5022240D01*
X2752598Y-5022240D01*
X2748381Y-5021275D01*
X2744876Y-5018633D01*
X2742844Y-5014823D01*
X2742590Y-5010454D01*
X2750972Y-4993030D01*
X2755341Y-4980076D01*
X2758033Y-4966665D01*
X2758948Y-4953000D01*
X2758033Y-4939334D01*
X2755341Y-4925923D01*
X2750972Y-4912969D01*
X2744927Y-4900676D01*
X2737307Y-4889296D01*
X2728264Y-4879035D01*
X2718003Y-4869992D01*
X2706624Y-4862372D01*
X2694330Y-4856327D01*
X2681376Y-4851958D01*
X2667965Y-4849266D01*
X2654300Y-4848352D01*
X2640634Y-4849266D01*
X2627223Y-4851958D01*
X2614269Y-4856327D01*
X2601976Y-4862372D01*
X2590596Y-4869992D01*
X2580335Y-4879035D01*
X2571292Y-4889296D01*
X2563672Y-4900676D01*
X2557627Y-4912969D01*
X2553258Y-4925923D01*
X2550566Y-4939334D01*
X2549652Y-4953000D01*
X2550566Y-4966665D01*
X2553258Y-4980076D01*
X2556002Y-4988255D01*
X2556459Y-4992725D01*
X2554935Y-4996992D01*
X2551734Y-5000142D01*
X2547518Y-5001615D01*
X2542997Y-5001107D01*
X2539187Y-4998720D01*
X2507488Y-4966970D01*
X2505151Y-4963363D01*
X2504541Y-4959146D01*
X2504948Y-4953000D01*
X2504033Y-4939334D01*
X2501341Y-4925923D01*
X2496972Y-4912969D01*
X2490927Y-4900676D01*
X2483307Y-4889296D01*
X2474264Y-4879035D01*
X2464003Y-4869992D01*
X2452624Y-4862372D01*
X2440330Y-4856327D01*
X2427376Y-4851958D01*
X2413965Y-4849266D01*
X2400300Y-4848352D01*
X2386634Y-4849266D01*
X2373223Y-4851958D01*
X2360269Y-4856327D01*
X2347976Y-4862372D01*
X2336596Y-4869992D01*
X2326335Y-4879035D01*
X2317292Y-4889296D01*
X2309672Y-4900676D01*
X2303627Y-4912969D01*
X2299258Y-4925923D01*
X2296566Y-4939334D01*
X2295652Y-4953000D01*
X2296566Y-4966665D01*
X2299258Y-4980076D01*
X2303627Y-4993030D01*
X2309672Y-5005324D01*
X2317292Y-5016703D01*
X2326335Y-5026964D01*
X2336596Y-5036007D01*
X2347976Y-5043627D01*
X2360269Y-5049672D01*
X2373223Y-5054041D01*
X2386634Y-5056733D01*
X2400300Y-5057648D01*
X2406446Y-5057241D01*
X2410663Y-5057851D01*
X2414270Y-5060188D01*
X2488539Y-5134457D01*
X2492451Y-5137810D01*
X2494991Y-5141061D01*
X2496007Y-5145024D01*
X2495397Y-5149037D01*
X2493264Y-5152542D01*
X2489860Y-5154879D01*
X2485898Y-5155692D01*
G37*

%LPC*%
G36*
X5702300Y-5105908D02*
G01*
X5717692Y-5104942D01*
X5732830Y-5102199D01*
X5747512Y-5097627D01*
X5761532Y-5091277D01*
X5774740Y-5083302D01*
X5786831Y-5073802D01*
X5797702Y-5062931D01*
X5807202Y-5050840D01*
X5815177Y-5037632D01*
X5821527Y-5023612D01*
X5826099Y-5008930D01*
X5828842Y-4993792D01*
X5829808Y-4978400D01*
X5828842Y-4963007D01*
X5826099Y-4947869D01*
X5821527Y-4933188D01*
X5815177Y-4919167D01*
X5807202Y-4905959D01*
X5797702Y-4893868D01*
X5786831Y-4882997D01*
X5774740Y-4873498D01*
X5761532Y-4865522D01*
X5747512Y-4859172D01*
X5732830Y-4854600D01*
X5717692Y-4851857D01*
X5702300Y-4850892D01*
X5686907Y-4851857D01*
X5671769Y-4854600D01*
X5657088Y-4859172D01*
X5643067Y-4865522D01*
X5629859Y-4873498D01*
X5617768Y-4882997D01*
X5606897Y-4893868D01*
X5597398Y-4905959D01*
X5589422Y-4919167D01*
X5583072Y-4933188D01*
X5578500Y-4947869D01*
X5575757Y-4963007D01*
X5574792Y-4978400D01*
X5575757Y-4993792D01*
X5578500Y-5008930D01*
X5583072Y-5023612D01*
X5589422Y-5037632D01*
X5597398Y-5050840D01*
X5606897Y-5062931D01*
X5617768Y-5073802D01*
X5629859Y-5083302D01*
X5643067Y-5091277D01*
X5657088Y-5097627D01*
X5671769Y-5102199D01*
X5686907Y-5104942D01*
G37*
G36*
X5999632Y-5087975D02*
G01*
X6014770Y-5087061D01*
X6029756Y-5084318D01*
X6044234Y-5079796D01*
X6058103Y-5073548D01*
X6071108Y-5065674D01*
X6083096Y-5056327D01*
X6093815Y-5045557D01*
X6103213Y-5033619D01*
X6111087Y-5020614D01*
X6117336Y-5006746D01*
X6121857Y-4992217D01*
X6124600Y-4977282D01*
X6125514Y-4962093D01*
X6124600Y-4946904D01*
X6121857Y-4931968D01*
X6117336Y-4917440D01*
X6111087Y-4903571D01*
X6103213Y-4890566D01*
X6093815Y-4878628D01*
X6083096Y-4867859D01*
X6071108Y-4858512D01*
X6058103Y-4850638D01*
X6044234Y-4844389D01*
X6029756Y-4839868D01*
X6014770Y-4837125D01*
X5999632Y-4836210D01*
X5984443Y-4837125D01*
X5969457Y-4839868D01*
X5954979Y-4844389D01*
X5941110Y-4850638D01*
X5928106Y-4858512D01*
X5916117Y-4867859D01*
X5905398Y-4878628D01*
X5896000Y-4890566D01*
X5888126Y-4903571D01*
X5881878Y-4917440D01*
X5877356Y-4931968D01*
X5874613Y-4946904D01*
X5873699Y-4962093D01*
X5874613Y-4977282D01*
X5877356Y-4992217D01*
X5881878Y-5006746D01*
X5888126Y-5020614D01*
X5896000Y-5033619D01*
X5905398Y-5045557D01*
X5916117Y-5056327D01*
X5928106Y-5065674D01*
X5941110Y-5073548D01*
X5954979Y-5079796D01*
X5969457Y-5084318D01*
X5984443Y-5087061D01*
G37*
G36*
X6649618Y-5087975D02*
G01*
X6664756Y-5087061D01*
X6679742Y-5084318D01*
X6694220Y-5079796D01*
X6708089Y-5073548D01*
X6721094Y-5065674D01*
X6733082Y-5056327D01*
X6743801Y-5045557D01*
X6753199Y-5033619D01*
X6761073Y-5020614D01*
X6767322Y-5006746D01*
X6771843Y-4992217D01*
X6774586Y-4977282D01*
X6775500Y-4962093D01*
X6774586Y-4946904D01*
X6771843Y-4931968D01*
X6767322Y-4917440D01*
X6761073Y-4903571D01*
X6753199Y-4890566D01*
X6743801Y-4878628D01*
X6733082Y-4867859D01*
X6721094Y-4858512D01*
X6708089Y-4850638D01*
X6694220Y-4844389D01*
X6679742Y-4839868D01*
X6664756Y-4837125D01*
X6651193Y-4836312D01*
X6647637Y-4835398D01*
X6644589Y-4833366D01*
X6025286Y-4214012D01*
X6017107Y-4207052D01*
X6008319Y-4201668D01*
X5998768Y-4197705D01*
X5988710Y-4195267D01*
X5977991Y-4194454D01*
X5650738Y-4194454D01*
X5646877Y-4193641D01*
X5643575Y-4191457D01*
X5611876Y-4159758D01*
X5609488Y-4155948D01*
X5608980Y-4151477D01*
X5610453Y-4147210D01*
X5613603Y-4144010D01*
X5617870Y-4142486D01*
X5623458Y-4143349D01*
X5637326Y-4146092D01*
X5651500Y-4147058D01*
X5665673Y-4146092D01*
X5679541Y-4143349D01*
X5693003Y-4138777D01*
X5705703Y-4132529D01*
X5717489Y-4124604D01*
X5728157Y-4115257D01*
X5737504Y-4104589D01*
X5745429Y-4092803D01*
X5751677Y-4080103D01*
X5756249Y-4066641D01*
X5758992Y-4052773D01*
X5759958Y-4038600D01*
X5758992Y-4024426D01*
X5756249Y-4010558D01*
X5751677Y-3997096D01*
X5745429Y-3984396D01*
X5737504Y-3972610D01*
X5728157Y-3961942D01*
X5717489Y-3952595D01*
X5705703Y-3944670D01*
X5693003Y-3938422D01*
X5679541Y-3933850D01*
X5665673Y-3931107D01*
X5651500Y-3930142D01*
X5641797Y-3930802D01*
X5637580Y-3930192D01*
X5633974Y-3927856D01*
X5402021Y-3695903D01*
X5400344Y-3693363D01*
X5397652Y-3691534D01*
X5393588Y-3687470D01*
X5385409Y-3680510D01*
X5376621Y-3675126D01*
X5367070Y-3671163D01*
X5360111Y-3669487D01*
X5356098Y-3667506D01*
X5353304Y-3663950D01*
X5352288Y-3659581D01*
X5352288Y-3638143D01*
X5316829Y-3638143D01*
X5312511Y-3637178D01*
X5309006Y-3634435D01*
X5307025Y-3630472D01*
X5306872Y-3626053D01*
X5308904Y-3615486D01*
X5309362Y-3603904D01*
X5308041Y-3592372D01*
X5306923Y-3588308D01*
X5306618Y-3584600D01*
X5307634Y-3581044D01*
X5309920Y-3578098D01*
X5313070Y-3576116D01*
X5316728Y-3575456D01*
X5352288Y-3575456D01*
X5352288Y-3537864D01*
X5350002Y-3538778D01*
X5339994Y-3544722D01*
X5331053Y-3552139D01*
X5323332Y-3560826D01*
X5317134Y-3570325D01*
X5314340Y-3573221D01*
X5310632Y-3574796D01*
X5306568Y-3574796D01*
X5302859Y-3573221D01*
X5300065Y-3570325D01*
X5293868Y-3560826D01*
X5286146Y-3552139D01*
X5277205Y-3544722D01*
X5267198Y-3538778D01*
X5256428Y-3534460D01*
X5245150Y-3531819D01*
X5233568Y-3530904D01*
X5221935Y-3531819D01*
X5210657Y-3534460D01*
X5199888Y-3538778D01*
X5189880Y-3544722D01*
X5180939Y-3552139D01*
X5173218Y-3560826D01*
X5166868Y-3570528D01*
X5162143Y-3581146D01*
X5159044Y-3592372D01*
X5157724Y-3603904D01*
X5158181Y-3615486D01*
X5160365Y-3626916D01*
X5164328Y-3637838D01*
X5169865Y-3648049D01*
X5172557Y-3651554D01*
X5174386Y-3655669D01*
X5174335Y-3660140D01*
X5172354Y-3664153D01*
X5168849Y-3666896D01*
X5164480Y-3667912D01*
X4918506Y-3667912D01*
X4915408Y-3667404D01*
X4912664Y-3666032D01*
X4910378Y-3663848D01*
X4904333Y-3655822D01*
X4894072Y-3645204D01*
X4882540Y-3635959D01*
X4869992Y-3628186D01*
X4856581Y-3622040D01*
X4842560Y-3617569D01*
X4828032Y-3614826D01*
X4813300Y-3613912D01*
X4798568Y-3614826D01*
X4784039Y-3617569D01*
X4770018Y-3622040D01*
X4756607Y-3628186D01*
X4744059Y-3635959D01*
X4732528Y-3645204D01*
X4722266Y-3655822D01*
X4713376Y-3667607D01*
X4706010Y-3680358D01*
X4700270Y-3693922D01*
X4695952Y-3709212D01*
X4693869Y-3713124D01*
X4690262Y-3715765D01*
X4685893Y-3716629D01*
X4681575Y-3715512D01*
X4678172Y-3712667D01*
X4676241Y-3708603D01*
X4674616Y-3700983D01*
X4669688Y-3687064D01*
X4663084Y-3673856D01*
X4654956Y-3661562D01*
X4645355Y-3650335D01*
X4634433Y-3640429D01*
X4622393Y-3631895D01*
X4609388Y-3624884D01*
X4595622Y-3619550D01*
X4581347Y-3615994D01*
X4566666Y-3614165D01*
X4551934Y-3614165D01*
X4537252Y-3615994D01*
X4522978Y-3619550D01*
X4509211Y-3624884D01*
X4496206Y-3631895D01*
X4480153Y-3643071D01*
X4476292Y-3643680D01*
X4472533Y-3642817D01*
X4469333Y-3640582D01*
X4467199Y-3637330D01*
X4466437Y-3633520D01*
X4466437Y-3258820D01*
X4467250Y-3254959D01*
X4469434Y-3251657D01*
X4525721Y-3195370D01*
X4529023Y-3193186D01*
X4532884Y-3192373D01*
X4658207Y-3192373D01*
X4668926Y-3191560D01*
X4678984Y-3189122D01*
X4688535Y-3185160D01*
X4697323Y-3179775D01*
X4705502Y-3172815D01*
X4785461Y-3092856D01*
X4787950Y-3091027D01*
X4790846Y-3090062D01*
X4793894Y-3089960D01*
X4805934Y-3091434D01*
X4820666Y-3091434D01*
X4835347Y-3089605D01*
X4849622Y-3086049D01*
X4863388Y-3080715D01*
X4876393Y-3073704D01*
X4888433Y-3065170D01*
X4899355Y-3055264D01*
X4908956Y-3044037D01*
X4917084Y-3031744D01*
X4923688Y-3018536D01*
X4926787Y-3009798D01*
X4928717Y-3006445D01*
X4931816Y-3004058D01*
X4935575Y-3003042D01*
X4939436Y-3003499D01*
X4942840Y-3005378D01*
X4945329Y-3008376D01*
X4952695Y-3022193D01*
X4961229Y-3034233D01*
X4971135Y-3045155D01*
X4982362Y-3054756D01*
X4994656Y-3062884D01*
X5007864Y-3069488D01*
X5009794Y-3070148D01*
X5013350Y-3072333D01*
X5015738Y-3075686D01*
X5016601Y-3079750D01*
X5015738Y-3083814D01*
X5013350Y-3087166D01*
X5009794Y-3089351D01*
X5007864Y-3090011D01*
X4994656Y-3096615D01*
X4982362Y-3104743D01*
X4971135Y-3114344D01*
X4961229Y-3125266D01*
X4952695Y-3137306D01*
X4945684Y-3150311D01*
X4940350Y-3164078D01*
X4936794Y-3178352D01*
X4934966Y-3193034D01*
X4934966Y-3207766D01*
X4936794Y-3222447D01*
X4940350Y-3236722D01*
X4945684Y-3250488D01*
X4952695Y-3263493D01*
X4961229Y-3275533D01*
X4971135Y-3286455D01*
X4982362Y-3296056D01*
X4994656Y-3304184D01*
X5007864Y-3310788D01*
X5021783Y-3315715D01*
X5036210Y-3318865D01*
X5050891Y-3320237D01*
X5065674Y-3319779D01*
X5080254Y-3317494D01*
X5094427Y-3313429D01*
X5108041Y-3307689D01*
X5120792Y-3300323D01*
X5132578Y-3291433D01*
X5143195Y-3281172D01*
X5152440Y-3269640D01*
X5160213Y-3257092D01*
X5166360Y-3243681D01*
X5170830Y-3229660D01*
X5173573Y-3215132D01*
X5174488Y-3200400D01*
X5173573Y-3185668D01*
X5172811Y-3181654D01*
X5172710Y-3178352D01*
X5173726Y-3175254D01*
X5175605Y-3172612D01*
X5716727Y-2631490D01*
X5720029Y-2629306D01*
X5723890Y-2628493D01*
X6452463Y-2628493D01*
X6463182Y-2627680D01*
X6473240Y-2625242D01*
X6482791Y-2621280D01*
X6491579Y-2615895D01*
X6499758Y-2608935D01*
X6629400Y-2479294D01*
X6632041Y-2477363D01*
X6635140Y-2476398D01*
X6638391Y-2476500D01*
X6647129Y-2478074D01*
X6662318Y-2478989D01*
X6677456Y-2478074D01*
X6692442Y-2475331D01*
X6706920Y-2470810D01*
X6720789Y-2464562D01*
X6733794Y-2456688D01*
X6745782Y-2447340D01*
X6756501Y-2436571D01*
X6765899Y-2424633D01*
X6773773Y-2411628D01*
X6780022Y-2397760D01*
X6784543Y-2383231D01*
X6787286Y-2368296D01*
X6788200Y-2353106D01*
X6787286Y-2337917D01*
X6784543Y-2322982D01*
X6780022Y-2308453D01*
X6773773Y-2294585D01*
X6765899Y-2281580D01*
X6756501Y-2269642D01*
X6745782Y-2258872D01*
X6733794Y-2249525D01*
X6720789Y-2241651D01*
X6706920Y-2235403D01*
X6692442Y-2230882D01*
X6677456Y-2228138D01*
X6662318Y-2227224D01*
X6647129Y-2228138D01*
X6632143Y-2230882D01*
X6617665Y-2235403D01*
X6603796Y-2241651D01*
X6590792Y-2249525D01*
X6578803Y-2258872D01*
X6568084Y-2269642D01*
X6558686Y-2281580D01*
X6550812Y-2294585D01*
X6544564Y-2308453D01*
X6540042Y-2322982D01*
X6537299Y-2337917D01*
X6536385Y-2353106D01*
X6537299Y-2368296D01*
X6538925Y-2377135D01*
X6539026Y-2380386D01*
X6538061Y-2383485D01*
X6536131Y-2386126D01*
X6428536Y-2493721D01*
X6425234Y-2495905D01*
X6421374Y-2496718D01*
X6037681Y-2496718D01*
X6033516Y-2495804D01*
X6030061Y-2493264D01*
X6027978Y-2489555D01*
X6027572Y-2485288D01*
X6028994Y-2481275D01*
X6031890Y-2478176D01*
X6035852Y-2476550D01*
X6042456Y-2475331D01*
X6056934Y-2470810D01*
X6070803Y-2464562D01*
X6083808Y-2456688D01*
X6095796Y-2447340D01*
X6106515Y-2436571D01*
X6115913Y-2424633D01*
X6123787Y-2411628D01*
X6130036Y-2397760D01*
X6134557Y-2383231D01*
X6137300Y-2368296D01*
X6138214Y-2353106D01*
X6137300Y-2337917D01*
X6134557Y-2322982D01*
X6130036Y-2308453D01*
X6123787Y-2294585D01*
X6115913Y-2281580D01*
X6106515Y-2269642D01*
X6095796Y-2258872D01*
X6083808Y-2249525D01*
X6070803Y-2241651D01*
X6056934Y-2235403D01*
X6042456Y-2230882D01*
X6027470Y-2228138D01*
X6012332Y-2227224D01*
X5997143Y-2228138D01*
X5982157Y-2230882D01*
X5967679Y-2235403D01*
X5953810Y-2241651D01*
X5940806Y-2249525D01*
X5928817Y-2258872D01*
X5918098Y-2269642D01*
X5908700Y-2281580D01*
X5900826Y-2294585D01*
X5894578Y-2308453D01*
X5890056Y-2322982D01*
X5887313Y-2337917D01*
X5886399Y-2353106D01*
X5887313Y-2368296D01*
X5890056Y-2383231D01*
X5894578Y-2397760D01*
X5900826Y-2411628D01*
X5908700Y-2424633D01*
X5918098Y-2436571D01*
X5928817Y-2447340D01*
X5940806Y-2456688D01*
X5953810Y-2464562D01*
X5967679Y-2470810D01*
X5982157Y-2475331D01*
X5988761Y-2476550D01*
X5992723Y-2478176D01*
X5995619Y-2481275D01*
X5997041Y-2485288D01*
X5996635Y-2489555D01*
X5994552Y-2493264D01*
X5991098Y-2495804D01*
X5986932Y-2496718D01*
X5712714Y-2496718D01*
X5708396Y-2495753D01*
X5704890Y-2493010D01*
X5702858Y-2489047D01*
X5702757Y-2484628D01*
X5704484Y-2480564D01*
X5707837Y-2477617D01*
X5712104Y-2476398D01*
X5717692Y-2476042D01*
X5732830Y-2473299D01*
X5747512Y-2468727D01*
X5761532Y-2462377D01*
X5774740Y-2454402D01*
X5786831Y-2444902D01*
X5797702Y-2434031D01*
X5807202Y-2421940D01*
X5815177Y-2408732D01*
X5821527Y-2394712D01*
X5826099Y-2380030D01*
X5828842Y-2364892D01*
X5829808Y-2349500D01*
X5828842Y-2334107D01*
X5826099Y-2318969D01*
X5821527Y-2304288D01*
X5815177Y-2290267D01*
X5807202Y-2277059D01*
X5797702Y-2264968D01*
X5786831Y-2254097D01*
X5774740Y-2244598D01*
X5761532Y-2236622D01*
X5747512Y-2230272D01*
X5732830Y-2225700D01*
X5717692Y-2222957D01*
X5702300Y-2221992D01*
X5686907Y-2222957D01*
X5671769Y-2225700D01*
X5657088Y-2230272D01*
X5643067Y-2236622D01*
X5629859Y-2244598D01*
X5617768Y-2254097D01*
X5606897Y-2264968D01*
X5597398Y-2277059D01*
X5589422Y-2290267D01*
X5583072Y-2304288D01*
X5578500Y-2318969D01*
X5575757Y-2334107D01*
X5574792Y-2349500D01*
X5575757Y-2364892D01*
X5578500Y-2380030D01*
X5583072Y-2394712D01*
X5589422Y-2408732D01*
X5597398Y-2421940D01*
X5606897Y-2434031D01*
X5617768Y-2444902D01*
X5629859Y-2454402D01*
X5643067Y-2462377D01*
X5657088Y-2468727D01*
X5671769Y-2473299D01*
X5686907Y-2476042D01*
X5692800Y-2476398D01*
X5696966Y-2477566D01*
X5700268Y-2480411D01*
X5702096Y-2484323D01*
X5702096Y-2488641D01*
X5700369Y-2492552D01*
X5697118Y-2495448D01*
X5692952Y-2496667D01*
X5682081Y-2497531D01*
X5672023Y-2499969D01*
X5662472Y-2503932D01*
X5653684Y-2509316D01*
X5645505Y-2516276D01*
X5191607Y-2970225D01*
X5188204Y-2972460D01*
X5184190Y-2973171D01*
X5180228Y-2972257D01*
X5176926Y-2969920D01*
X5174843Y-2966415D01*
X5174284Y-2962402D01*
X5174488Y-2959100D01*
X5173573Y-2944368D01*
X5170830Y-2929839D01*
X5166360Y-2915818D01*
X5160213Y-2902407D01*
X5152440Y-2889859D01*
X5143195Y-2878328D01*
X5132578Y-2868066D01*
X5120792Y-2859176D01*
X5108041Y-2851810D01*
X5094427Y-2846070D01*
X5080254Y-2842006D01*
X5065674Y-2839720D01*
X5059476Y-2839567D01*
X5055666Y-2838704D01*
X5052517Y-2836468D01*
X5050383Y-2833166D01*
X5049672Y-2829356D01*
X5050434Y-2825496D01*
X5054498Y-2815640D01*
X5056936Y-2805582D01*
X5057749Y-2795270D01*
X5056936Y-2784957D01*
X5054498Y-2774899D01*
X5050536Y-2765348D01*
X5045151Y-2756560D01*
X5038445Y-2748686D01*
X5030571Y-2741980D01*
X5021783Y-2736596D01*
X5012232Y-2732633D01*
X5002174Y-2730195D01*
X4990236Y-2729382D01*
X4979517Y-2730195D01*
X4969459Y-2732633D01*
X4959908Y-2736596D01*
X4951120Y-2741980D01*
X4942941Y-2748940D01*
X4841087Y-2850794D01*
X4838446Y-2852724D01*
X4835347Y-2853690D01*
X4832045Y-2853588D01*
X4828032Y-2852826D01*
X4813300Y-2851912D01*
X4798568Y-2852826D01*
X4784039Y-2855569D01*
X4770018Y-2860040D01*
X4756607Y-2866186D01*
X4744059Y-2873959D01*
X4732528Y-2883204D01*
X4722266Y-2893822D01*
X4713376Y-2905607D01*
X4706010Y-2918358D01*
X4700270Y-2931922D01*
X4696155Y-2946603D01*
X4693920Y-2960725D01*
X4693513Y-2975508D01*
X4694885Y-2990392D01*
X4695037Y-2993745D01*
X4694123Y-2996996D01*
X4692142Y-2999740D01*
X4669739Y-3022142D01*
X4666437Y-3024378D01*
X4662525Y-3025140D01*
X4612640Y-3025140D01*
X4612640Y-3050438D01*
X4611878Y-3054299D01*
X4609642Y-3057601D01*
X4606391Y-3059785D01*
X4602480Y-3060598D01*
X4532934Y-3060598D01*
X4529023Y-3059785D01*
X4525721Y-3057601D01*
X4508957Y-3040786D01*
X4506722Y-3037484D01*
X4505960Y-3033623D01*
X4505960Y-3025140D01*
X4497527Y-3025140D01*
X4493615Y-3024378D01*
X4490313Y-3022142D01*
X4336084Y-2867761D01*
X4333900Y-2864459D01*
X4333087Y-2860548D01*
X4333087Y-2464308D01*
X4333900Y-2460396D01*
X4336084Y-2457145D01*
X4339386Y-2454910D01*
X4343247Y-2454148D01*
X4345381Y-2454148D01*
X4351680Y-2453436D01*
X4357166Y-2451506D01*
X4362043Y-2448458D01*
X4366158Y-2444343D01*
X4369206Y-2439466D01*
X4371136Y-2433980D01*
X4371848Y-2427681D01*
X4371848Y-2271318D01*
X4371136Y-2265019D01*
X4369206Y-2259533D01*
X4366158Y-2254656D01*
X4362043Y-2250541D01*
X4357166Y-2247493D01*
X4351680Y-2245563D01*
X4345381Y-2244852D01*
X4189018Y-2244852D01*
X4182719Y-2245563D01*
X4177233Y-2247493D01*
X4172356Y-2250541D01*
X4168241Y-2254656D01*
X4165193Y-2259533D01*
X4163263Y-2265019D01*
X4162551Y-2271318D01*
X4162551Y-2427681D01*
X4163263Y-2433980D01*
X4165193Y-2439466D01*
X4168241Y-2444343D01*
X4172356Y-2448458D01*
X4177233Y-2451506D01*
X4182719Y-2453436D01*
X4189018Y-2454148D01*
X4191152Y-2454148D01*
X4195013Y-2454910D01*
X4198315Y-2457145D01*
X4200499Y-2460396D01*
X4201312Y-2464308D01*
X4201312Y-2891637D01*
X4202125Y-2902305D01*
X4204512Y-2912364D01*
X4208475Y-2921914D01*
X4213860Y-2930753D01*
X4220870Y-2938881D01*
X4401007Y-3119272D01*
X4403242Y-3122574D01*
X4404004Y-3126435D01*
X4403242Y-3130346D01*
X4401007Y-3133648D01*
X4354220Y-3180435D01*
X4347260Y-3188614D01*
X4341876Y-3197402D01*
X4337913Y-3206953D01*
X4335475Y-3217011D01*
X4334662Y-3227730D01*
X4334662Y-3803243D01*
X4335475Y-3813962D01*
X4337913Y-3824020D01*
X4341876Y-3833571D01*
X4347260Y-3842359D01*
X4354220Y-3850538D01*
X4463694Y-3960012D01*
X4465574Y-3962654D01*
X4466590Y-3965752D01*
X4466488Y-3969054D01*
X4465726Y-3973068D01*
X4464812Y-3987800D01*
X4465726Y-4002532D01*
X4466488Y-4006596D01*
X4466590Y-4009847D01*
X4465624Y-4012996D01*
X4463694Y-4015638D01*
X4154322Y-4325213D01*
X4147362Y-4333392D01*
X4141978Y-4342180D01*
X4138015Y-4351731D01*
X4135577Y-4361789D01*
X4134764Y-4372508D01*
X4134764Y-4784445D01*
X4135577Y-4795164D01*
X4138015Y-4805222D01*
X4141978Y-4814773D01*
X4147362Y-4823561D01*
X4154322Y-4831740D01*
X4235094Y-4912512D01*
X4236974Y-4915154D01*
X4237990Y-4918252D01*
X4237888Y-4921554D01*
X4237126Y-4925568D01*
X4236212Y-4940300D01*
X4237126Y-4955032D01*
X4239869Y-4969560D01*
X4244340Y-4983581D01*
X4250486Y-4996992D01*
X4258259Y-5009540D01*
X4267504Y-5021072D01*
X4278122Y-5031333D01*
X4289907Y-5040223D01*
X4302658Y-5047589D01*
X4316272Y-5053330D01*
X4330446Y-5057394D01*
X4345025Y-5059680D01*
X4359808Y-5060137D01*
X4374489Y-5058765D01*
X4388916Y-5055616D01*
X4402836Y-5050688D01*
X4416044Y-5044084D01*
X4428337Y-5035956D01*
X4439564Y-5026355D01*
X4449470Y-5015433D01*
X4458004Y-5003393D01*
X4465015Y-4990388D01*
X4470349Y-4976622D01*
X4473905Y-4962347D01*
X4475734Y-4947666D01*
X4475734Y-4932934D01*
X4473905Y-4918252D01*
X4470349Y-4903978D01*
X4465015Y-4890211D01*
X4458004Y-4877206D01*
X4449470Y-4865166D01*
X4439564Y-4854244D01*
X4428337Y-4844643D01*
X4416044Y-4836515D01*
X4414570Y-4835753D01*
X4411167Y-4833061D01*
X4409236Y-4829149D01*
X4409135Y-4824780D01*
X4410811Y-4820818D01*
X4414012Y-4817872D01*
X4423003Y-4812690D01*
X4434890Y-4803698D01*
X4445609Y-4793335D01*
X4454956Y-4781702D01*
X4462830Y-4769002D01*
X4469079Y-4755438D01*
X4473600Y-4741265D01*
X4476343Y-4726584D01*
X4477258Y-4711700D01*
X4476343Y-4696815D01*
X4475378Y-4691837D01*
X4475327Y-4688586D01*
X4476292Y-4685487D01*
X4478172Y-4682794D01*
X4672533Y-4488484D01*
X4675835Y-4486300D01*
X4679696Y-4485487D01*
X5644540Y-4485487D01*
X5647740Y-4486046D01*
X5650636Y-4487519D01*
X5656021Y-4491583D01*
X5666740Y-4497425D01*
X5678170Y-4501692D01*
X5690108Y-4504283D01*
X5702300Y-4505147D01*
X5714492Y-4504283D01*
X5726430Y-4501692D01*
X5737860Y-4497425D01*
X5748578Y-4491583D01*
X5758332Y-4484268D01*
X5766968Y-4475632D01*
X5774283Y-4465878D01*
X5780125Y-4455160D01*
X5784392Y-4443730D01*
X5786983Y-4431792D01*
X5787847Y-4419600D01*
X5786983Y-4407408D01*
X5784392Y-4395470D01*
X5780125Y-4384040D01*
X5774283Y-4373321D01*
X5766968Y-4363567D01*
X5758332Y-4354931D01*
X5748578Y-4347616D01*
X5744362Y-4345330D01*
X5741060Y-4342384D01*
X5739282Y-4338320D01*
X5739384Y-4333900D01*
X5741416Y-4329938D01*
X5744921Y-4327194D01*
X5749239Y-4326229D01*
X5946902Y-4326229D01*
X5950762Y-4327042D01*
X5954064Y-4329226D01*
X5994450Y-4369612D01*
X5996635Y-4372813D01*
X5997448Y-4376572D01*
X5996787Y-4380382D01*
X5994755Y-4383684D01*
X5991606Y-4385970D01*
X5987897Y-4386935D01*
X5984443Y-4387138D01*
X5969457Y-4389882D01*
X5954979Y-4394403D01*
X5941110Y-4400651D01*
X5928106Y-4408525D01*
X5916117Y-4417872D01*
X5905398Y-4428642D01*
X5896000Y-4440580D01*
X5888126Y-4453585D01*
X5881878Y-4467453D01*
X5877356Y-4481982D01*
X5874613Y-4496917D01*
X5873699Y-4512106D01*
X5874613Y-4527296D01*
X5877356Y-4542231D01*
X5881878Y-4556760D01*
X5888126Y-4570628D01*
X5896000Y-4583633D01*
X5905398Y-4595571D01*
X5916117Y-4606340D01*
X5928106Y-4615688D01*
X5941110Y-4623562D01*
X5954979Y-4629810D01*
X5969457Y-4634331D01*
X5984443Y-4637074D01*
X5999632Y-4637989D01*
X6014770Y-4637074D01*
X6029756Y-4634331D01*
X6044234Y-4629810D01*
X6058103Y-4623562D01*
X6071108Y-4615688D01*
X6083096Y-4606340D01*
X6093815Y-4595571D01*
X6103213Y-4583633D01*
X6111087Y-4570628D01*
X6117336Y-4556760D01*
X6121857Y-4542231D01*
X6124600Y-4527296D01*
X6124803Y-4523841D01*
X6125768Y-4520082D01*
X6128054Y-4516983D01*
X6131306Y-4514951D01*
X6135116Y-4514291D01*
X6138926Y-4515104D01*
X6142126Y-4517288D01*
X6530136Y-4905298D01*
X6532422Y-4908702D01*
X6533134Y-4912715D01*
X6531864Y-4917440D01*
X6527342Y-4931968D01*
X6524599Y-4946904D01*
X6523685Y-4962093D01*
X6524599Y-4977282D01*
X6527342Y-4992217D01*
X6531864Y-5006746D01*
X6538112Y-5020614D01*
X6545986Y-5033619D01*
X6555384Y-5045557D01*
X6566103Y-5056327D01*
X6578092Y-5065674D01*
X6591096Y-5073548D01*
X6604965Y-5079796D01*
X6619443Y-5084318D01*
X6634429Y-5087061D01*
G37*
G36*
X4660900Y-5076647D02*
G01*
X4673092Y-5075783D01*
X4685030Y-5073192D01*
X4696460Y-5068925D01*
X4707178Y-5063083D01*
X4716932Y-5055768D01*
X4725568Y-5047132D01*
X4732883Y-5037378D01*
X4738725Y-5026660D01*
X4742992Y-5015230D01*
X4745583Y-5003292D01*
X4746447Y-4991100D01*
X4745583Y-4978908D01*
X4742992Y-4966970D01*
X4738725Y-4955540D01*
X4732883Y-4944821D01*
X4725568Y-4935067D01*
X4716932Y-4926431D01*
X4707178Y-4919116D01*
X4696460Y-4913274D01*
X4685030Y-4909007D01*
X4673092Y-4906416D01*
X4660900Y-4905552D01*
X4648708Y-4906416D01*
X4636770Y-4909007D01*
X4625340Y-4913274D01*
X4614621Y-4919116D01*
X4604867Y-4926431D01*
X4596231Y-4935067D01*
X4588916Y-4944821D01*
X4583074Y-4955540D01*
X4578807Y-4966970D01*
X4576216Y-4978908D01*
X4575352Y-4991100D01*
X4576216Y-5003292D01*
X4578807Y-5015230D01*
X4583074Y-5026660D01*
X4588916Y-5037378D01*
X4596231Y-5047132D01*
X4604867Y-5055768D01*
X4614621Y-5063083D01*
X4625340Y-5068925D01*
X4636770Y-5073192D01*
X4648708Y-5075783D01*
G37*
G36*
X2146300Y-5057648D02*
G01*
X2159965Y-5056733D01*
X2173376Y-5054041D01*
X2186330Y-5049672D01*
X2198624Y-5043627D01*
X2210003Y-5036007D01*
X2220264Y-5026964D01*
X2229307Y-5016703D01*
X2236927Y-5005324D01*
X2242972Y-4993030D01*
X2247341Y-4980076D01*
X2250033Y-4966665D01*
X2250948Y-4953000D01*
X2250033Y-4939334D01*
X2247341Y-4925923D01*
X2242972Y-4912969D01*
X2236927Y-4900676D01*
X2229307Y-4889296D01*
X2220264Y-4879035D01*
X2210003Y-4869992D01*
X2198624Y-4862372D01*
X2186330Y-4856327D01*
X2173376Y-4851958D01*
X2159965Y-4849266D01*
X2146300Y-4848352D01*
X2132634Y-4849266D01*
X2119223Y-4851958D01*
X2106269Y-4856327D01*
X2093975Y-4862372D01*
X2082596Y-4869992D01*
X2072335Y-4879035D01*
X2063292Y-4889296D01*
X2055672Y-4900676D01*
X2049627Y-4912969D01*
X2045258Y-4925923D01*
X2042566Y-4939334D01*
X2041652Y-4953000D01*
X2042566Y-4966665D01*
X2045258Y-4980076D01*
X2049627Y-4993030D01*
X2055672Y-5005324D01*
X2063292Y-5016703D01*
X2072335Y-5026964D01*
X2082596Y-5036007D01*
X2093975Y-5043627D01*
X2106269Y-5049672D01*
X2119223Y-5054041D01*
X2132634Y-5056733D01*
G37*
G36*
X1560118Y-5057648D02*
G01*
X1716481Y-5057648D01*
X1722780Y-5056936D01*
X1728266Y-5055006D01*
X1733143Y-5051958D01*
X1737258Y-5047843D01*
X1740306Y-5042966D01*
X1742236Y-5037480D01*
X1742948Y-5031181D01*
X1742948Y-4874818D01*
X1742236Y-4868519D01*
X1740306Y-4863033D01*
X1737258Y-4858156D01*
X1733143Y-4854041D01*
X1728266Y-4850993D01*
X1722780Y-4849063D01*
X1716481Y-4848352D01*
X1560118Y-4848352D01*
X1553819Y-4849063D01*
X1548333Y-4850993D01*
X1543456Y-4854041D01*
X1539341Y-4858156D01*
X1536293Y-4863033D01*
X1534363Y-4868519D01*
X1533652Y-4874818D01*
X1533652Y-5031181D01*
X1534363Y-5037480D01*
X1536293Y-5042966D01*
X1539341Y-5047843D01*
X1543456Y-5051958D01*
X1548333Y-5055006D01*
X1553819Y-5056936D01*
G37*
G36*
X1846580Y-5046878D02*
G01*
X1846580Y-4998720D01*
X1798421Y-4998720D01*
X1801672Y-5005324D01*
X1809292Y-5016703D01*
X1818335Y-5026964D01*
X1828596Y-5036007D01*
X1839975Y-5043627D01*
G37*
G36*
X1938020Y-5046878D02*
G01*
X1944624Y-5043627D01*
X1956003Y-5036007D01*
X1966264Y-5026964D01*
X1975307Y-5016703D01*
X1982927Y-5005324D01*
X1986178Y-4998720D01*
X1938020Y-4998720D01*
G37*
G36*
X1798421Y-4907280D02*
G01*
X1846580Y-4907280D01*
X1846580Y-4859121D01*
X1839975Y-4862372D01*
X1828596Y-4869992D01*
X1818335Y-4879035D01*
X1809292Y-4889296D01*
X1801672Y-4900676D01*
G37*
G36*
X1938020Y-4907280D02*
G01*
X1986178Y-4907280D01*
X1982927Y-4900676D01*
X1975307Y-4889296D01*
X1966264Y-4879035D01*
X1956003Y-4869992D01*
X1944624Y-4862372D01*
X1938020Y-4859121D01*
G37*
G36*
X2814421Y-4907280D02*
G01*
X2862580Y-4907280D01*
X2862580Y-4859121D01*
X2855976Y-4862372D01*
X2844596Y-4869992D01*
X2834335Y-4879035D01*
X2825292Y-4889296D01*
X2817672Y-4900676D01*
G37*
G36*
X2954020Y-4907280D02*
G01*
X3002178Y-4907280D01*
X2998927Y-4900676D01*
X2991307Y-4889296D01*
X2982264Y-4879035D01*
X2972003Y-4869992D01*
X2960624Y-4862372D01*
X2954020Y-4859121D01*
G37*
G36*
X4697120Y-4814570D02*
G01*
X4707178Y-4809083D01*
X4716932Y-4801768D01*
X4725568Y-4793132D01*
X4732883Y-4783378D01*
X4738370Y-4773320D01*
X4697120Y-4773320D01*
G37*
G36*
X4624730Y-4814570D02*
G01*
X4624730Y-4773320D01*
X4583430Y-4773320D01*
X4588916Y-4783378D01*
X4596231Y-4793132D01*
X4604867Y-4801768D01*
X4614621Y-4809083D01*
G37*
G36*
X2721356Y-4785715D02*
G01*
X2731668Y-4784902D01*
X2741726Y-4782464D01*
X2751277Y-4778502D01*
X2760065Y-4773117D01*
X2768244Y-4766157D01*
X3049473Y-4484928D01*
X3052775Y-4482744D01*
X3056636Y-4481931D01*
X3455009Y-4481931D01*
X3465728Y-4481118D01*
X3475786Y-4478680D01*
X3485337Y-4474718D01*
X3494125Y-4469333D01*
X3502304Y-4462373D01*
X3640175Y-4324502D01*
X3647135Y-4316323D01*
X3652520Y-4307535D01*
X3656482Y-4297984D01*
X3658920Y-4287926D01*
X3659733Y-4277614D01*
X3658920Y-4267301D01*
X3656482Y-4257243D01*
X3652520Y-4247692D01*
X3647135Y-4238904D01*
X3640429Y-4231030D01*
X3632555Y-4224324D01*
X3623767Y-4218940D01*
X3614216Y-4214977D01*
X3604158Y-4212539D01*
X3593846Y-4211726D01*
X3583533Y-4212539D01*
X3573475Y-4214977D01*
X3563924Y-4218940D01*
X3555136Y-4224324D01*
X3546957Y-4231284D01*
X3431082Y-4347159D01*
X3427780Y-4349343D01*
X3423920Y-4350156D01*
X3262376Y-4350156D01*
X3258464Y-4349343D01*
X3255162Y-4347159D01*
X3252978Y-4343857D01*
X3252215Y-4339996D01*
X3252978Y-4336084D01*
X3256432Y-4327702D01*
X3258870Y-4317644D01*
X3259683Y-4306925D01*
X3259683Y-4295292D01*
X3258870Y-4284573D01*
X3256432Y-4274515D01*
X3252470Y-4264964D01*
X3247085Y-4256176D01*
X3240125Y-4247997D01*
X2481884Y-3489756D01*
X2479700Y-3486454D01*
X2478887Y-3482594D01*
X2478887Y-2656078D01*
X2479700Y-2652217D01*
X2481884Y-2648915D01*
X2485186Y-2646680D01*
X2489047Y-2645918D01*
X2492959Y-2646680D01*
X2496261Y-2648915D01*
X2733649Y-2886303D01*
X2741828Y-2893263D01*
X2750616Y-2898648D01*
X2760167Y-2902610D01*
X2770225Y-2905048D01*
X2780944Y-2905861D01*
X3747363Y-2905861D01*
X3758082Y-2905048D01*
X3768140Y-2902610D01*
X3777691Y-2898648D01*
X3786479Y-2893263D01*
X3794658Y-2886303D01*
X3841343Y-2839618D01*
X3848303Y-2831439D01*
X3853687Y-2822651D01*
X3857650Y-2813100D01*
X3860088Y-2803042D01*
X3860901Y-2792730D01*
X3860088Y-2782417D01*
X3857650Y-2772359D01*
X3853687Y-2762808D01*
X3848303Y-2754020D01*
X3841597Y-2746146D01*
X3833723Y-2739440D01*
X3824935Y-2734056D01*
X3815384Y-2730093D01*
X3805326Y-2727655D01*
X3795014Y-2726842D01*
X3784701Y-2727655D01*
X3774643Y-2730093D01*
X3765092Y-2734056D01*
X3756304Y-2739440D01*
X3748125Y-2746400D01*
X3723436Y-2771089D01*
X3720134Y-2773273D01*
X3716274Y-2774086D01*
X3153918Y-2774086D01*
X3149752Y-2773172D01*
X3146298Y-2770632D01*
X3144215Y-2766872D01*
X3143859Y-2762656D01*
X3145282Y-2758592D01*
X3148330Y-2753563D01*
X3152292Y-2744012D01*
X3154730Y-2733954D01*
X3155543Y-2723642D01*
X3154730Y-2713329D01*
X3152292Y-2703271D01*
X3148330Y-2693720D01*
X3142945Y-2684932D01*
X3135985Y-2676753D01*
X2989884Y-2530652D01*
X2987700Y-2527350D01*
X2986887Y-2523490D01*
X2986887Y-2447848D01*
X2987802Y-2443683D01*
X2990392Y-2440228D01*
X2994964Y-2436164D01*
X3004007Y-2425903D01*
X3011627Y-2414524D01*
X3017672Y-2402230D01*
X3022041Y-2389276D01*
X3024733Y-2375865D01*
X3025648Y-2362200D01*
X3024733Y-2348534D01*
X3022041Y-2335123D01*
X3017672Y-2322169D01*
X3011627Y-2309876D01*
X3004007Y-2298496D01*
X2994964Y-2288235D01*
X2984703Y-2279192D01*
X2973324Y-2271572D01*
X2961030Y-2265527D01*
X2948076Y-2261158D01*
X2934665Y-2258466D01*
X2921000Y-2257552D01*
X2907334Y-2258466D01*
X2893923Y-2261158D01*
X2880969Y-2265527D01*
X2868676Y-2271572D01*
X2857296Y-2279192D01*
X2847035Y-2288235D01*
X2837992Y-2298496D01*
X2830372Y-2309876D01*
X2824327Y-2322169D01*
X2819958Y-2335123D01*
X2817266Y-2348534D01*
X2816352Y-2362200D01*
X2817266Y-2375865D01*
X2819958Y-2389276D01*
X2824327Y-2402230D01*
X2830372Y-2414524D01*
X2837992Y-2425903D01*
X2847035Y-2436164D01*
X2851607Y-2440228D01*
X2854198Y-2443683D01*
X2855112Y-2447848D01*
X2855112Y-2554579D01*
X2855925Y-2565298D01*
X2858363Y-2575356D01*
X2862326Y-2584907D01*
X2867710Y-2593695D01*
X2874670Y-2601874D01*
X3029508Y-2756712D01*
X3031744Y-2760014D01*
X3032506Y-2763926D01*
X3031744Y-2767787D01*
X3029508Y-2771089D01*
X3026206Y-2773273D01*
X3022346Y-2774086D01*
X2833217Y-2774086D01*
X2828950Y-2773121D01*
X2825496Y-2770479D01*
X2823464Y-2766669D01*
X2823210Y-2762300D01*
X2824784Y-2758236D01*
X2827934Y-2755239D01*
X2832709Y-2752293D01*
X2840583Y-2745587D01*
X2847289Y-2737713D01*
X2852674Y-2728925D01*
X2856636Y-2719374D01*
X2859074Y-2709316D01*
X2859887Y-2699004D01*
X2859074Y-2688691D01*
X2856636Y-2678633D01*
X2852674Y-2669082D01*
X2847289Y-2660294D01*
X2840329Y-2652115D01*
X2735884Y-2547670D01*
X2733700Y-2544368D01*
X2732887Y-2540508D01*
X2732887Y-2447848D01*
X2733802Y-2443683D01*
X2736392Y-2440228D01*
X2740964Y-2436164D01*
X2750007Y-2425903D01*
X2757627Y-2414524D01*
X2763672Y-2402230D01*
X2768041Y-2389276D01*
X2770733Y-2375865D01*
X2771648Y-2362200D01*
X2770733Y-2348534D01*
X2768041Y-2335123D01*
X2763672Y-2322169D01*
X2757627Y-2309876D01*
X2750007Y-2298496D01*
X2740964Y-2288235D01*
X2730703Y-2279192D01*
X2719324Y-2271572D01*
X2707030Y-2265527D01*
X2694076Y-2261158D01*
X2680665Y-2258466D01*
X2667000Y-2257552D01*
X2653334Y-2258466D01*
X2639923Y-2261158D01*
X2626969Y-2265527D01*
X2614676Y-2271572D01*
X2603296Y-2279192D01*
X2593035Y-2288235D01*
X2583992Y-2298496D01*
X2576372Y-2309876D01*
X2570327Y-2322169D01*
X2565958Y-2335123D01*
X2563266Y-2348534D01*
X2562352Y-2362200D01*
X2563266Y-2375865D01*
X2565958Y-2389276D01*
X2570327Y-2402230D01*
X2576372Y-2414524D01*
X2583992Y-2425903D01*
X2593035Y-2436164D01*
X2597607Y-2440228D01*
X2600198Y-2443683D01*
X2601112Y-2447848D01*
X2601112Y-2542794D01*
X2600299Y-2546654D01*
X2598115Y-2549956D01*
X2594813Y-2552192D01*
X2590952Y-2552954D01*
X2587040Y-2552192D01*
X2583738Y-2549956D01*
X2577744Y-2543962D01*
X2569565Y-2537002D01*
X2560777Y-2531618D01*
X2551226Y-2527655D01*
X2541168Y-2525217D01*
X2530856Y-2524404D01*
X2520543Y-2525217D01*
X2510485Y-2527655D01*
X2500934Y-2531618D01*
X2494381Y-2535631D01*
X2490317Y-2537053D01*
X2486101Y-2536647D01*
X2482342Y-2534564D01*
X2479802Y-2531160D01*
X2478887Y-2526944D01*
X2478887Y-2447848D01*
X2479802Y-2443683D01*
X2482392Y-2440228D01*
X2486964Y-2436164D01*
X2496007Y-2425903D01*
X2503627Y-2414524D01*
X2509672Y-2402230D01*
X2514041Y-2389276D01*
X2516733Y-2375865D01*
X2517648Y-2362200D01*
X2516733Y-2348534D01*
X2514041Y-2335123D01*
X2509672Y-2322169D01*
X2503627Y-2309876D01*
X2496007Y-2298496D01*
X2486964Y-2288235D01*
X2476703Y-2279192D01*
X2465324Y-2271572D01*
X2453030Y-2265527D01*
X2440076Y-2261158D01*
X2426665Y-2258466D01*
X2413000Y-2257552D01*
X2399334Y-2258466D01*
X2385923Y-2261158D01*
X2372969Y-2265527D01*
X2360676Y-2271572D01*
X2349296Y-2279192D01*
X2339035Y-2288235D01*
X2329992Y-2298496D01*
X2322372Y-2309876D01*
X2316327Y-2322169D01*
X2311958Y-2335123D01*
X2309266Y-2348534D01*
X2308352Y-2362200D01*
X2309266Y-2375865D01*
X2311958Y-2389276D01*
X2316327Y-2402230D01*
X2322372Y-2414524D01*
X2329992Y-2425903D01*
X2339035Y-2436164D01*
X2343607Y-2440228D01*
X2346198Y-2443683D01*
X2347112Y-2447848D01*
X2347112Y-3470656D01*
X2346299Y-3474516D01*
X2344115Y-3477818D01*
X2340813Y-3480054D01*
X2336952Y-3480815D01*
X2333040Y-3480054D01*
X2329738Y-3477818D01*
X2227884Y-3375964D01*
X2225700Y-3372662D01*
X2224887Y-3368801D01*
X2224887Y-2477008D01*
X2225700Y-2473096D01*
X2227884Y-2469845D01*
X2231186Y-2467610D01*
X2235047Y-2466848D01*
X2237181Y-2466848D01*
X2243480Y-2466136D01*
X2248966Y-2464206D01*
X2253843Y-2461158D01*
X2257958Y-2457043D01*
X2261006Y-2452166D01*
X2262936Y-2446680D01*
X2263648Y-2440381D01*
X2263648Y-2284018D01*
X2262936Y-2277719D01*
X2261006Y-2272233D01*
X2257958Y-2267356D01*
X2253843Y-2263241D01*
X2248966Y-2260193D01*
X2243480Y-2258263D01*
X2237181Y-2257552D01*
X2080818Y-2257552D01*
X2074519Y-2258263D01*
X2069033Y-2260193D01*
X2064156Y-2263241D01*
X2060041Y-2267356D01*
X2056993Y-2272233D01*
X2055063Y-2277719D01*
X2054352Y-2284018D01*
X2054352Y-2440381D01*
X2055063Y-2446680D01*
X2056993Y-2452166D01*
X2060041Y-2457043D01*
X2064156Y-2461158D01*
X2069033Y-2464206D01*
X2074519Y-2466136D01*
X2080818Y-2466848D01*
X2082952Y-2466848D01*
X2086813Y-2467610D01*
X2090115Y-2469845D01*
X2092299Y-2473096D01*
X2093112Y-2477008D01*
X2093112Y-3399891D01*
X2093925Y-3410610D01*
X2096363Y-3420668D01*
X2100326Y-3430219D01*
X2105710Y-3439007D01*
X2112670Y-3447186D01*
X3004007Y-4338523D01*
X3006191Y-4341825D01*
X3007004Y-4345686D01*
X3006191Y-4349597D01*
X3004007Y-4352899D01*
X3000705Y-4355084D01*
X2995218Y-4357370D01*
X2986430Y-4362754D01*
X2978251Y-4369714D01*
X2675026Y-4672939D01*
X2668066Y-4681118D01*
X2662682Y-4689906D01*
X2658719Y-4699457D01*
X2656281Y-4709515D01*
X2655468Y-4719828D01*
X2656281Y-4730140D01*
X2658719Y-4740198D01*
X2662682Y-4749749D01*
X2668066Y-4758537D01*
X2674772Y-4766411D01*
X2682646Y-4773117D01*
X2691434Y-4778502D01*
X2700985Y-4782464D01*
X2711043Y-4784902D01*
G37*
G36*
X5738520Y-4751070D02*
G01*
X5748578Y-4745583D01*
X5758332Y-4738268D01*
X5766968Y-4729632D01*
X5774283Y-4719878D01*
X5779770Y-4709820D01*
X5738520Y-4709820D01*
G37*
G36*
X5666130Y-4751070D02*
G01*
X5666130Y-4709820D01*
X5624830Y-4709820D01*
X5630316Y-4719878D01*
X5637631Y-4729632D01*
X5646267Y-4738268D01*
X5656021Y-4745583D01*
G37*
G36*
X4583430Y-4700930D02*
G01*
X4624730Y-4700930D01*
X4624730Y-4659630D01*
X4614621Y-4665116D01*
X4604867Y-4672431D01*
X4596231Y-4681067D01*
X4588916Y-4690821D01*
G37*
G36*
X4697120Y-4700930D02*
G01*
X4738370Y-4700930D01*
X4732883Y-4690821D01*
X4725568Y-4681067D01*
X4716932Y-4672431D01*
X4707178Y-4665116D01*
X4697120Y-4659630D01*
G37*
G36*
X5624830Y-4637430D02*
G01*
X5666130Y-4637430D01*
X5666130Y-4596130D01*
X5656021Y-4601616D01*
X5646267Y-4608931D01*
X5637631Y-4617567D01*
X5630316Y-4627321D01*
G37*
G36*
X5738520Y-4637430D02*
G01*
X5779770Y-4637430D01*
X5774283Y-4627321D01*
X5766968Y-4617567D01*
X5758332Y-4608931D01*
X5748578Y-4601616D01*
X5738520Y-4596130D01*
G37*
G36*
X6705955Y-4624527D02*
G01*
X6708089Y-4623562D01*
X6721094Y-4615688D01*
X6733082Y-4606340D01*
X6743801Y-4595571D01*
X6753199Y-4583633D01*
X6761073Y-4570628D01*
X6762038Y-4568444D01*
X6705955Y-4568444D01*
G37*
G36*
X6593230Y-4624527D02*
G01*
X6593230Y-4568444D01*
X6537147Y-4568444D01*
X6538112Y-4570628D01*
X6545986Y-4583633D01*
X6555384Y-4595571D01*
X6566103Y-4606340D01*
X6578092Y-4615688D01*
X6591096Y-4623562D01*
G37*
G36*
X6537147Y-4455769D02*
G01*
X6593230Y-4455769D01*
X6593230Y-4399686D01*
X6591096Y-4400651D01*
X6578092Y-4408525D01*
X6566103Y-4417872D01*
X6555384Y-4428642D01*
X6545986Y-4440580D01*
X6538112Y-4453585D01*
G37*
G36*
X6705955Y-4455769D02*
G01*
X6762038Y-4455769D01*
X6761073Y-4453585D01*
X6753199Y-4440580D01*
X6743801Y-4428642D01*
X6733082Y-4417872D01*
X6721094Y-4408525D01*
X6708089Y-4400651D01*
X6705955Y-4399686D01*
G37*
G36*
X1422400Y-4448048D02*
G01*
X1436065Y-4447133D01*
X1449476Y-4444441D01*
X1462430Y-4440072D01*
X1474724Y-4434027D01*
X1486103Y-4426407D01*
X1496364Y-4417364D01*
X1505407Y-4407103D01*
X1513027Y-4395724D01*
X1519072Y-4383430D01*
X1523441Y-4370476D01*
X1526133Y-4357065D01*
X1527048Y-4343400D01*
X1526133Y-4329734D01*
X1523441Y-4316323D01*
X1519072Y-4303369D01*
X1513027Y-4291076D01*
X1505407Y-4279696D01*
X1496364Y-4269435D01*
X1486103Y-4260392D01*
X1474724Y-4252772D01*
X1462430Y-4246727D01*
X1449476Y-4242358D01*
X1436065Y-4239666D01*
X1422400Y-4238752D01*
X1408734Y-4239666D01*
X1395323Y-4242358D01*
X1382369Y-4246727D01*
X1370076Y-4252772D01*
X1358696Y-4260392D01*
X1348435Y-4269435D01*
X1339392Y-4279696D01*
X1331772Y-4291076D01*
X1325727Y-4303369D01*
X1321358Y-4316323D01*
X1318666Y-4329734D01*
X1317752Y-4343400D01*
X1318666Y-4357065D01*
X1321358Y-4370476D01*
X1325727Y-4383430D01*
X1331772Y-4395724D01*
X1339392Y-4407103D01*
X1348435Y-4417364D01*
X1358696Y-4426407D01*
X1370076Y-4434027D01*
X1382369Y-4440072D01*
X1395323Y-4444441D01*
X1408734Y-4447133D01*
G37*
G36*
X1422400Y-4194048D02*
G01*
X1436065Y-4193133D01*
X1449476Y-4190441D01*
X1462430Y-4186072D01*
X1474724Y-4180027D01*
X1486103Y-4172407D01*
X1496364Y-4163364D01*
X1505407Y-4153103D01*
X1513027Y-4141724D01*
X1519072Y-4129430D01*
X1523441Y-4116476D01*
X1526133Y-4103065D01*
X1527048Y-4089400D01*
X1526133Y-4075734D01*
X1523441Y-4062323D01*
X1519072Y-4049369D01*
X1513027Y-4037076D01*
X1505407Y-4025696D01*
X1496364Y-4015435D01*
X1486103Y-4006392D01*
X1474724Y-3998772D01*
X1462430Y-3992727D01*
X1449476Y-3988358D01*
X1436065Y-3985666D01*
X1422400Y-3984751D01*
X1408734Y-3985666D01*
X1395323Y-3988358D01*
X1382369Y-3992727D01*
X1370076Y-3998772D01*
X1358696Y-4006392D01*
X1348435Y-4015435D01*
X1339392Y-4025696D01*
X1331772Y-4037076D01*
X1325727Y-4049369D01*
X1321358Y-4062323D01*
X1318666Y-4075734D01*
X1317752Y-4089400D01*
X1318666Y-4103065D01*
X1321358Y-4116476D01*
X1325727Y-4129430D01*
X1331772Y-4141724D01*
X1339392Y-4153103D01*
X1348435Y-4163364D01*
X1358696Y-4172407D01*
X1370076Y-4180027D01*
X1382369Y-4186072D01*
X1395323Y-4190441D01*
X1408734Y-4193133D01*
G37*
G36*
X5953150Y-4135780D02*
G01*
X5959703Y-4132529D01*
X5971489Y-4124604D01*
X5982157Y-4115257D01*
X5991504Y-4104589D01*
X5999429Y-4092803D01*
X6002680Y-4086250D01*
X5953150Y-4086250D01*
G37*
G36*
X5857900Y-4135780D02*
G01*
X5857900Y-4086250D01*
X5808319Y-4086250D01*
X5811570Y-4092803D01*
X5819495Y-4104589D01*
X5828842Y-4115257D01*
X5839510Y-4124604D01*
X5851296Y-4132529D01*
G37*
G36*
X5808319Y-3991000D02*
G01*
X5857900Y-3991000D01*
X5857900Y-3941419D01*
X5851296Y-3944670D01*
X5839510Y-3952595D01*
X5828842Y-3961942D01*
X5819495Y-3972610D01*
X5811570Y-3984396D01*
G37*
G36*
X5953150Y-3991000D02*
G01*
X6002680Y-3991000D01*
X5999429Y-3984396D01*
X5991504Y-3972610D01*
X5982157Y-3961942D01*
X5971489Y-3952595D01*
X5959703Y-3944670D01*
X5953150Y-3941419D01*
G37*
G36*
X1422400Y-3940048D02*
G01*
X1436065Y-3939133D01*
X1449476Y-3936441D01*
X1462430Y-3932072D01*
X1474724Y-3926027D01*
X1486103Y-3918407D01*
X1496364Y-3909364D01*
X1505407Y-3899103D01*
X1513027Y-3887724D01*
X1519072Y-3875430D01*
X1523441Y-3862476D01*
X1526133Y-3849065D01*
X1527048Y-3835400D01*
X1526133Y-3821734D01*
X1523441Y-3808323D01*
X1519072Y-3795369D01*
X1513027Y-3783076D01*
X1505407Y-3771696D01*
X1496364Y-3761435D01*
X1486103Y-3752392D01*
X1474724Y-3744772D01*
X1462430Y-3738727D01*
X1449476Y-3734358D01*
X1436065Y-3731666D01*
X1422400Y-3730751D01*
X1408734Y-3731666D01*
X1395323Y-3734358D01*
X1382369Y-3738727D01*
X1370076Y-3744772D01*
X1358696Y-3752392D01*
X1348435Y-3761435D01*
X1339392Y-3771696D01*
X1331772Y-3783076D01*
X1325727Y-3795369D01*
X1321358Y-3808323D01*
X1318666Y-3821734D01*
X1317752Y-3835400D01*
X1318666Y-3849065D01*
X1321358Y-3862476D01*
X1325727Y-3875430D01*
X1331772Y-3887724D01*
X1339392Y-3899103D01*
X1348435Y-3909364D01*
X1358696Y-3918407D01*
X1370076Y-3926027D01*
X1382369Y-3932072D01*
X1395323Y-3936441D01*
X1408734Y-3939133D01*
G37*
G36*
X1422400Y-3686048D02*
G01*
X1436065Y-3685133D01*
X1449476Y-3682441D01*
X1462430Y-3678072D01*
X1474724Y-3672027D01*
X1486103Y-3664407D01*
X1496364Y-3655364D01*
X1505407Y-3645103D01*
X1513027Y-3633724D01*
X1519072Y-3621430D01*
X1523441Y-3608476D01*
X1526133Y-3595065D01*
X1527048Y-3581400D01*
X1526133Y-3567734D01*
X1523441Y-3554323D01*
X1519072Y-3541369D01*
X1513027Y-3529076D01*
X1505407Y-3517696D01*
X1496364Y-3507435D01*
X1486103Y-3498392D01*
X1474724Y-3490772D01*
X1462430Y-3484727D01*
X1449476Y-3480358D01*
X1436065Y-3477666D01*
X1422400Y-3476751D01*
X1408734Y-3477666D01*
X1395323Y-3480358D01*
X1382369Y-3484727D01*
X1370076Y-3490772D01*
X1358696Y-3498392D01*
X1348435Y-3507435D01*
X1339392Y-3517696D01*
X1331772Y-3529076D01*
X1325727Y-3541369D01*
X1321358Y-3554323D01*
X1318666Y-3567734D01*
X1317752Y-3581400D01*
X1318666Y-3595065D01*
X1321358Y-3608476D01*
X1325727Y-3621430D01*
X1331772Y-3633724D01*
X1339392Y-3645103D01*
X1348435Y-3655364D01*
X1358696Y-3664407D01*
X1370076Y-3672027D01*
X1382369Y-3678072D01*
X1395323Y-3682441D01*
X1408734Y-3685133D01*
G37*
G36*
X5415026Y-3675684D02*
G01*
X5422442Y-3672027D01*
X5431942Y-3665321D01*
X5440324Y-3657295D01*
X5447334Y-3648049D01*
X5452719Y-3638143D01*
X5415026Y-3638143D01*
G37*
G36*
X5697626Y-3657041D02*
G01*
X5709259Y-3657041D01*
X5720740Y-3655263D01*
X5731814Y-3651758D01*
X5742228Y-3646627D01*
X5751728Y-3639921D01*
X5760110Y-3631895D01*
X5767120Y-3622649D01*
X5769559Y-3618179D01*
X5772404Y-3614877D01*
X5776315Y-3613099D01*
X5780684Y-3613099D01*
X5784596Y-3614877D01*
X5787440Y-3618179D01*
X5789879Y-3622649D01*
X5796889Y-3631895D01*
X5805271Y-3639921D01*
X5814771Y-3646627D01*
X5822188Y-3650284D01*
X5822188Y-3612743D01*
X5786729Y-3612743D01*
X5782411Y-3611778D01*
X5778906Y-3609035D01*
X5776925Y-3605072D01*
X5776772Y-3600653D01*
X5778804Y-3590086D01*
X5779262Y-3578504D01*
X5777941Y-3566972D01*
X5776823Y-3562908D01*
X5776518Y-3559200D01*
X5777534Y-3555644D01*
X5779820Y-3552698D01*
X5782970Y-3550716D01*
X5786628Y-3550056D01*
X5822188Y-3550056D01*
X5822188Y-3512464D01*
X5819902Y-3513378D01*
X5809894Y-3519322D01*
X5800953Y-3526739D01*
X5793232Y-3535426D01*
X5788152Y-3543198D01*
X5785104Y-3546246D01*
X5781040Y-3547719D01*
X5776772Y-3547414D01*
X5772962Y-3545332D01*
X5770372Y-3541877D01*
X5769457Y-3537661D01*
X5769457Y-3345129D01*
X5770270Y-3341268D01*
X5772454Y-3337966D01*
X5788812Y-3321608D01*
X5791555Y-3319627D01*
X5794756Y-3318662D01*
X5812891Y-3320237D01*
X5827674Y-3319779D01*
X5842254Y-3317494D01*
X5856427Y-3313429D01*
X5870041Y-3307689D01*
X5882792Y-3300323D01*
X5894578Y-3291433D01*
X5905195Y-3281172D01*
X5914440Y-3269640D01*
X5922213Y-3257092D01*
X5928360Y-3243681D01*
X5932830Y-3229660D01*
X5935573Y-3215132D01*
X5936488Y-3200400D01*
X5935573Y-3185668D01*
X5932830Y-3171139D01*
X5928360Y-3157118D01*
X5922213Y-3143707D01*
X5914440Y-3131159D01*
X5905195Y-3119628D01*
X5894578Y-3109366D01*
X5886551Y-3103321D01*
X5884367Y-3101035D01*
X5882995Y-3098292D01*
X5882487Y-3095193D01*
X5882487Y-3064306D01*
X5882995Y-3061208D01*
X5884367Y-3058464D01*
X5886551Y-3056178D01*
X5894578Y-3050133D01*
X5905195Y-3039872D01*
X5914440Y-3028340D01*
X5922213Y-3015792D01*
X5928360Y-3002381D01*
X5932830Y-2988360D01*
X5935573Y-2973832D01*
X5936488Y-2959100D01*
X5935573Y-2944368D01*
X5932830Y-2929839D01*
X5930036Y-2921000D01*
X5929579Y-2916936D01*
X5930798Y-2913024D01*
X5933440Y-2909925D01*
X5937046Y-2908096D01*
X5941110Y-2907842D01*
X5944971Y-2909214D01*
X5953810Y-2914548D01*
X5967679Y-2920796D01*
X5982157Y-2925318D01*
X5997143Y-2928061D01*
X6012332Y-2928975D01*
X6027470Y-2928061D01*
X6042456Y-2925318D01*
X6056934Y-2920796D01*
X6070803Y-2914548D01*
X6083808Y-2906674D01*
X6095796Y-2897327D01*
X6106515Y-2886557D01*
X6115913Y-2874619D01*
X6123787Y-2861614D01*
X6130036Y-2847746D01*
X6134557Y-2833217D01*
X6137300Y-2818282D01*
X6138214Y-2803093D01*
X6137300Y-2787904D01*
X6134557Y-2772968D01*
X6130036Y-2758440D01*
X6123787Y-2744571D01*
X6115913Y-2731566D01*
X6106515Y-2719628D01*
X6095796Y-2708859D01*
X6083808Y-2699512D01*
X6070803Y-2691638D01*
X6056934Y-2685389D01*
X6042456Y-2680868D01*
X6027470Y-2678125D01*
X6012332Y-2677210D01*
X5997143Y-2678125D01*
X5982157Y-2680868D01*
X5967679Y-2685389D01*
X5953810Y-2691638D01*
X5940806Y-2699512D01*
X5928817Y-2708859D01*
X5918098Y-2719628D01*
X5908700Y-2731566D01*
X5900826Y-2744571D01*
X5894578Y-2758440D01*
X5890056Y-2772968D01*
X5887313Y-2787904D01*
X5886399Y-2803093D01*
X5887313Y-2818282D01*
X5890056Y-2833217D01*
X5893816Y-2845155D01*
X5894222Y-2849168D01*
X5893054Y-2853029D01*
X5890463Y-2856128D01*
X5886856Y-2857957D01*
X5882843Y-2858262D01*
X5879033Y-2856992D01*
X5870041Y-2851810D01*
X5856427Y-2846070D01*
X5842254Y-2842006D01*
X5827674Y-2839720D01*
X5812891Y-2839313D01*
X5798210Y-2840634D01*
X5783783Y-2843784D01*
X5769864Y-2848711D01*
X5756656Y-2855315D01*
X5744362Y-2863443D01*
X5733135Y-2873044D01*
X5723229Y-2883966D01*
X5714695Y-2896006D01*
X5707684Y-2909011D01*
X5702350Y-2922778D01*
X5698794Y-2937052D01*
X5696966Y-2951734D01*
X5696966Y-2966466D01*
X5698794Y-2981147D01*
X5702350Y-2995422D01*
X5707684Y-3009188D01*
X5714695Y-3022193D01*
X5723229Y-3034233D01*
X5733135Y-3045155D01*
X5748578Y-3058210D01*
X5750153Y-3061106D01*
X5750712Y-3064408D01*
X5750712Y-3095091D01*
X5750153Y-3098393D01*
X5748578Y-3101289D01*
X5733135Y-3114344D01*
X5723229Y-3125266D01*
X5714695Y-3137306D01*
X5707684Y-3150311D01*
X5702350Y-3164078D01*
X5698794Y-3178352D01*
X5696966Y-3193034D01*
X5696966Y-3207766D01*
X5698490Y-3219958D01*
X5698388Y-3223006D01*
X5697372Y-3225901D01*
X5695594Y-3228390D01*
X5657189Y-3266846D01*
X5650280Y-3274974D01*
X5644896Y-3283762D01*
X5640933Y-3293313D01*
X5638495Y-3303371D01*
X5637682Y-3314090D01*
X5637682Y-3541014D01*
X5636768Y-3545179D01*
X5632043Y-3555746D01*
X5628944Y-3566972D01*
X5627624Y-3578504D01*
X5628081Y-3590086D01*
X5630265Y-3601516D01*
X5634228Y-3612438D01*
X5639765Y-3622649D01*
X5646775Y-3631895D01*
X5655157Y-3639921D01*
X5664657Y-3646627D01*
X5675071Y-3651758D01*
X5686145Y-3655263D01*
G37*
G36*
X5884926Y-3650284D02*
G01*
X5892342Y-3646627D01*
X5901842Y-3639921D01*
X5910224Y-3631895D01*
X5917234Y-3622649D01*
X5922619Y-3612743D01*
X5884926Y-3612743D01*
G37*
G36*
X5415026Y-3575456D02*
G01*
X5452516Y-3575456D01*
X5450332Y-3570528D01*
X5443982Y-3560826D01*
X5436260Y-3552139D01*
X5427319Y-3544722D01*
X5417312Y-3538778D01*
X5415026Y-3537864D01*
G37*
G36*
X5884926Y-3550056D02*
G01*
X5922416Y-3550056D01*
X5920232Y-3545128D01*
X5913882Y-3535426D01*
X5906160Y-3526739D01*
X5897219Y-3519322D01*
X5887212Y-3513378D01*
X5884926Y-3512464D01*
G37*
G36*
X1422400Y-3432048D02*
G01*
X1436065Y-3431133D01*
X1449476Y-3428441D01*
X1462430Y-3424072D01*
X1474724Y-3418027D01*
X1486103Y-3410407D01*
X1496364Y-3401364D01*
X1505407Y-3391103D01*
X1513027Y-3379724D01*
X1519072Y-3367430D01*
X1523441Y-3354476D01*
X1526133Y-3341065D01*
X1527048Y-3327400D01*
X1526133Y-3313734D01*
X1523441Y-3300323D01*
X1519072Y-3287369D01*
X1513027Y-3275076D01*
X1505407Y-3263696D01*
X1496364Y-3253435D01*
X1486103Y-3244392D01*
X1474724Y-3236772D01*
X1462430Y-3230727D01*
X1449476Y-3226358D01*
X1436065Y-3223666D01*
X1422400Y-3222752D01*
X1408734Y-3223666D01*
X1395323Y-3226358D01*
X1382369Y-3230727D01*
X1370076Y-3236772D01*
X1358696Y-3244392D01*
X1348435Y-3253435D01*
X1339392Y-3263696D01*
X1331772Y-3275076D01*
X1325727Y-3287369D01*
X1321358Y-3300323D01*
X1318666Y-3313734D01*
X1317752Y-3327400D01*
X1318666Y-3341065D01*
X1321358Y-3354476D01*
X1325727Y-3367430D01*
X1331772Y-3379724D01*
X1339392Y-3391103D01*
X1348435Y-3401364D01*
X1358696Y-3410407D01*
X1370076Y-3418027D01*
X1382369Y-3424072D01*
X1395323Y-3428441D01*
X1408734Y-3431133D01*
G37*
G36*
X1344218Y-3178048D02*
G01*
X1500581Y-3178048D01*
X1506880Y-3177336D01*
X1512366Y-3175406D01*
X1517243Y-3172358D01*
X1521358Y-3168243D01*
X1524406Y-3163366D01*
X1526336Y-3157880D01*
X1527048Y-3151581D01*
X1527048Y-2995218D01*
X1526336Y-2988919D01*
X1524406Y-2983433D01*
X1521358Y-2978556D01*
X1517243Y-2974441D01*
X1512366Y-2971393D01*
X1506880Y-2969463D01*
X1500581Y-2968752D01*
X1344218Y-2968752D01*
X1337919Y-2969463D01*
X1332433Y-2971393D01*
X1327556Y-2974441D01*
X1323441Y-2978556D01*
X1320393Y-2983433D01*
X1318463Y-2988919D01*
X1317752Y-2995218D01*
X1317752Y-3151581D01*
X1318463Y-3157880D01*
X1320393Y-3163366D01*
X1323441Y-3168243D01*
X1327556Y-3172358D01*
X1332433Y-3175406D01*
X1337919Y-3177336D01*
G37*
G36*
X4452213Y-2918460D02*
G01*
X4505960Y-2918460D01*
X4505960Y-2864662D01*
X4496206Y-2869895D01*
X4484166Y-2878429D01*
X4473244Y-2888335D01*
X4463643Y-2899562D01*
X4455515Y-2911856D01*
G37*
G36*
X4612640Y-2918460D02*
G01*
X4666386Y-2918460D01*
X4663084Y-2911856D01*
X4654956Y-2899562D01*
X4645355Y-2888335D01*
X4632045Y-2876143D01*
X4629810Y-2872994D01*
X4628896Y-2869234D01*
X4629454Y-2865424D01*
X4631436Y-2862072D01*
X4634534Y-2859684D01*
X4638243Y-2858668D01*
X4649368Y-2857804D01*
X4659426Y-2855366D01*
X4668977Y-2851404D01*
X4677765Y-2846019D01*
X4685639Y-2839313D01*
X4692345Y-2831439D01*
X4697730Y-2822651D01*
X4701692Y-2813100D01*
X4704130Y-2803042D01*
X4704943Y-2792323D01*
X4704943Y-2771140D01*
X4705756Y-2767279D01*
X4707940Y-2763977D01*
X5015230Y-2456688D01*
X5018836Y-2454351D01*
X5023053Y-2453741D01*
X5029200Y-2454148D01*
X5042865Y-2453233D01*
X5056276Y-2450541D01*
X5069230Y-2446172D01*
X5081524Y-2440127D01*
X5092903Y-2432507D01*
X5103164Y-2423464D01*
X5112207Y-2413203D01*
X5119827Y-2401824D01*
X5125872Y-2389530D01*
X5130241Y-2376576D01*
X5132933Y-2363165D01*
X5133848Y-2349500D01*
X5132933Y-2335834D01*
X5130241Y-2322423D01*
X5125872Y-2309469D01*
X5119827Y-2297176D01*
X5112207Y-2285796D01*
X5103164Y-2275535D01*
X5092903Y-2266492D01*
X5081524Y-2258872D01*
X5069230Y-2252827D01*
X5056276Y-2248458D01*
X5042865Y-2245766D01*
X5029200Y-2244852D01*
X5015534Y-2245766D01*
X5002123Y-2248458D01*
X4989169Y-2252827D01*
X4976876Y-2258872D01*
X4965496Y-2266492D01*
X4955235Y-2275535D01*
X4946192Y-2285796D01*
X4938572Y-2297176D01*
X4932527Y-2309469D01*
X4928158Y-2322423D01*
X4925466Y-2335834D01*
X4924552Y-2349500D01*
X4924958Y-2355646D01*
X4924348Y-2359863D01*
X4922012Y-2363470D01*
X4890312Y-2395220D01*
X4886502Y-2397607D01*
X4881981Y-2398115D01*
X4877765Y-2396642D01*
X4874564Y-2393492D01*
X4873040Y-2389225D01*
X4873498Y-2384755D01*
X4876241Y-2376576D01*
X4878933Y-2363165D01*
X4879848Y-2349500D01*
X4878933Y-2335834D01*
X4876241Y-2322423D01*
X4871872Y-2309469D01*
X4865827Y-2297176D01*
X4858207Y-2285796D01*
X4849164Y-2275535D01*
X4838903Y-2266492D01*
X4827524Y-2258872D01*
X4815230Y-2252827D01*
X4802276Y-2248458D01*
X4788865Y-2245766D01*
X4775200Y-2244852D01*
X4761534Y-2245766D01*
X4748123Y-2248458D01*
X4735169Y-2252827D01*
X4722876Y-2258872D01*
X4711496Y-2266492D01*
X4701235Y-2275535D01*
X4692192Y-2285796D01*
X4684572Y-2297176D01*
X4678527Y-2309469D01*
X4674158Y-2322423D01*
X4671466Y-2335834D01*
X4670552Y-2349500D01*
X4671466Y-2363165D01*
X4674158Y-2376576D01*
X4678527Y-2389530D01*
X4684572Y-2401824D01*
X4692192Y-2413203D01*
X4701235Y-2423464D01*
X4711496Y-2432507D01*
X4722876Y-2440127D01*
X4735169Y-2446172D01*
X4748123Y-2450541D01*
X4761534Y-2453233D01*
X4775200Y-2454148D01*
X4788865Y-2453233D01*
X4802276Y-2450541D01*
X4810455Y-2447798D01*
X4814925Y-2447340D01*
X4819192Y-2448864D01*
X4822342Y-2452065D01*
X4823815Y-2456281D01*
X4823307Y-2460802D01*
X4820920Y-2464612D01*
X4592726Y-2692755D01*
X4585766Y-2700934D01*
X4580382Y-2709722D01*
X4576419Y-2719273D01*
X4573981Y-2729331D01*
X4573168Y-2740050D01*
X4573168Y-2792323D01*
X4573981Y-2803042D01*
X4576419Y-2813100D01*
X4580382Y-2822651D01*
X4585766Y-2831439D01*
X4592472Y-2839313D01*
X4600346Y-2846019D01*
X4607763Y-2850591D01*
X4610354Y-2852877D01*
X4612081Y-2855874D01*
X4612640Y-2859278D01*
G37*
G36*
X6718655Y-2915513D02*
G01*
X6720789Y-2914548D01*
X6733794Y-2906674D01*
X6745782Y-2897327D01*
X6756501Y-2886557D01*
X6765899Y-2874619D01*
X6773773Y-2861614D01*
X6774738Y-2859430D01*
X6718655Y-2859430D01*
G37*
G36*
X6605930Y-2915513D02*
G01*
X6605930Y-2859430D01*
X6549847Y-2859430D01*
X6550812Y-2861614D01*
X6558686Y-2874619D01*
X6568084Y-2886557D01*
X6578803Y-2897327D01*
X6590792Y-2906674D01*
X6603796Y-2914548D01*
G37*
G36*
X1930400Y-2752547D02*
G01*
X1942592Y-2751683D01*
X1954530Y-2749092D01*
X1965960Y-2744825D01*
X1976678Y-2738983D01*
X1986432Y-2731668D01*
X1995068Y-2723032D01*
X2002383Y-2713278D01*
X2008225Y-2702560D01*
X2012492Y-2691130D01*
X2015083Y-2679192D01*
X2015947Y-2667000D01*
X2015083Y-2654808D01*
X2012492Y-2642870D01*
X2008225Y-2631440D01*
X2002383Y-2620721D01*
X1995068Y-2610967D01*
X1986432Y-2602331D01*
X1976678Y-2595016D01*
X1965960Y-2589174D01*
X1954530Y-2584907D01*
X1942592Y-2582316D01*
X1930400Y-2581452D01*
X1918207Y-2582316D01*
X1906270Y-2584907D01*
X1894839Y-2589174D01*
X1884121Y-2595016D01*
X1874367Y-2602331D01*
X1865731Y-2610967D01*
X1858416Y-2620721D01*
X1852574Y-2631440D01*
X1848307Y-2642870D01*
X1845716Y-2654808D01*
X1844852Y-2667000D01*
X1845716Y-2679192D01*
X1848307Y-2691130D01*
X1852574Y-2702560D01*
X1858416Y-2713278D01*
X1865731Y-2723032D01*
X1874367Y-2731668D01*
X1884121Y-2738983D01*
X1894839Y-2744825D01*
X1906270Y-2749092D01*
X1918207Y-2751683D01*
G37*
G36*
X6718655Y-2746756D02*
G01*
X6774738Y-2746756D01*
X6773773Y-2744571D01*
X6765899Y-2731566D01*
X6756501Y-2719628D01*
X6745782Y-2708859D01*
X6733794Y-2699512D01*
X6720789Y-2691638D01*
X6718655Y-2690672D01*
G37*
G36*
X6549847Y-2746756D02*
G01*
X6605930Y-2746756D01*
X6605930Y-2690672D01*
X6603796Y-2691638D01*
X6590792Y-2699512D01*
X6578803Y-2708859D01*
X6568084Y-2719628D01*
X6558686Y-2731566D01*
X6550812Y-2744571D01*
G37*
G36*
X1712620Y-2744470D02*
G01*
X1722678Y-2738983D01*
X1732432Y-2731668D01*
X1741068Y-2723032D01*
X1748383Y-2713278D01*
X1753870Y-2703220D01*
X1712620Y-2703220D01*
G37*
G36*
X1640230Y-2744470D02*
G01*
X1640230Y-2703220D01*
X1598930Y-2703220D01*
X1604416Y-2713278D01*
X1611731Y-2723032D01*
X1620367Y-2731668D01*
X1630121Y-2738983D01*
G37*
G36*
X1712620Y-2630830D02*
G01*
X1753870Y-2630830D01*
X1748383Y-2620721D01*
X1741068Y-2610967D01*
X1732432Y-2602331D01*
X1722678Y-2595016D01*
X1712620Y-2589530D01*
G37*
G36*
X1598930Y-2630830D02*
G01*
X1640230Y-2630830D01*
X1640230Y-2589530D01*
X1630121Y-2595016D01*
X1620367Y-2602331D01*
X1611731Y-2610967D01*
X1604416Y-2620721D01*
G37*
G36*
X1371600Y-2451608D02*
G01*
X1386992Y-2450642D01*
X1402130Y-2447899D01*
X1416812Y-2443327D01*
X1430832Y-2436977D01*
X1444040Y-2429002D01*
X1456131Y-2419502D01*
X1467002Y-2408631D01*
X1476502Y-2396540D01*
X1484477Y-2383332D01*
X1490827Y-2369312D01*
X1495399Y-2354630D01*
X1498142Y-2339492D01*
X1499108Y-2324100D01*
X1498142Y-2308707D01*
X1495399Y-2293569D01*
X1490827Y-2278888D01*
X1484477Y-2264867D01*
X1476502Y-2251659D01*
X1467002Y-2239568D01*
X1456131Y-2228697D01*
X1444040Y-2219198D01*
X1430832Y-2211222D01*
X1416812Y-2204872D01*
X1402130Y-2200300D01*
X1386992Y-2197557D01*
X1371600Y-2196592D01*
X1356207Y-2197557D01*
X1341069Y-2200300D01*
X1326388Y-2204872D01*
X1312367Y-2211222D01*
X1299159Y-2219198D01*
X1287068Y-2228697D01*
X1276197Y-2239568D01*
X1266698Y-2251659D01*
X1258722Y-2264867D01*
X1252372Y-2278888D01*
X1247800Y-2293569D01*
X1245057Y-2308707D01*
X1244092Y-2324100D01*
X1245057Y-2339492D01*
X1247800Y-2354630D01*
X1252372Y-2369312D01*
X1258722Y-2383332D01*
X1266698Y-2396540D01*
X1276197Y-2408631D01*
X1287068Y-2419502D01*
X1299159Y-2429002D01*
X1312367Y-2436977D01*
X1326388Y-2443327D01*
X1341069Y-2447899D01*
X1356207Y-2450642D01*
G37*
G36*
X4475480Y-2443378D02*
G01*
X4475480Y-2395220D01*
X4427321Y-2395220D01*
X4430572Y-2401824D01*
X4438192Y-2413203D01*
X4447235Y-2423464D01*
X4457496Y-2432507D01*
X4468876Y-2440127D01*
G37*
G36*
X4566920Y-2443378D02*
G01*
X4573524Y-2440127D01*
X4584903Y-2432507D01*
X4595164Y-2423464D01*
X4604207Y-2413203D01*
X4611827Y-2401824D01*
X4615078Y-2395220D01*
X4566920Y-2395220D01*
G37*
G36*
X4427321Y-2303780D02*
G01*
X4475480Y-2303780D01*
X4475480Y-2255621D01*
X4468876Y-2258872D01*
X4457496Y-2266492D01*
X4447235Y-2275535D01*
X4438192Y-2285796D01*
X4430572Y-2297176D01*
G37*
G36*
X4566920Y-2303780D02*
G01*
X4615078Y-2303780D01*
X4611827Y-2297176D01*
X4604207Y-2285796D01*
X4595164Y-2275535D01*
X4584903Y-2266492D01*
X4573524Y-2258872D01*
X4566920Y-2255621D01*
G37*

%LPD*%
D10*
X1892300Y-4816094D02*
G01*
X1892300Y-4953000D01*
X1676400Y-2667000D02*
G01*
X1676400Y-4600194D01*
X1892300Y-4816094D01*
X2908300Y-4953000D02*
G01*
X2771393Y-4816094D01*
X1892300Y-4816094D01*
X4660900Y-4737100D02*
G01*
X4525772Y-4872481D01*
X4525772Y-4986273D01*
X4417822Y-5093970D01*
X4277868Y-5093970D01*
X4040124Y-4855971D01*
X4040124Y-4553712D01*
X4660900Y-4737100D02*
G01*
X5638800Y-4737100D01*
X5702300Y-4673600D01*
X4040124Y-4553712D02*
G01*
X4040124Y-3175254D01*
X4227068Y-2988055D01*
X2908300Y-4953000D02*
G01*
X3307588Y-4553712D01*
X4040124Y-4553712D01*
X5853684Y-3692397D02*
G01*
X5853684Y-3581400D01*
X5905500Y-4038600D02*
G01*
X5853684Y-3986784D01*
X5853684Y-3692397D01*
X5853684Y-3692397D02*
G01*
X5469381Y-3692397D01*
X5383784Y-3606800D01*
X6649720Y-4512055D02*
G01*
X6176009Y-4038600D01*
X5905500Y-4038600D01*
X6662420Y-2803144D02*
G01*
X5883909Y-3581400D01*
X5853684Y-3581400D01*
X4521200Y-2349500D02*
G01*
X4521200Y-2933700D01*
X4559300Y-2971800D01*
X2721356Y-4719828D02*
G01*
X3025140Y-4416044D01*
X3455415Y-4416044D01*
X3593845Y-4277613D01*
X5702300Y-4419600D02*
G01*
X4648200Y-4419600D01*
X4356100Y-4711700D01*
X2921000Y-2362200D02*
G01*
X2921000Y-2554986D01*
X3089656Y-2723642D01*
X2667000Y-2362200D02*
G01*
X2667000Y-2572004D01*
X2794000Y-2699004D01*
X2159000Y-2362200D02*
G01*
X2159000Y-3400297D01*
X3055111Y-4296410D01*
X2413000Y-2362200D02*
G01*
X2413000Y-3514089D01*
X3193795Y-4294886D01*
X3193795Y-4307331D01*
X5029200Y-2349500D02*
G01*
X4639056Y-2739644D01*
X4639056Y-2792729D01*
X2530856Y-2590292D02*
G01*
X2780538Y-2839973D01*
X3747770Y-2839973D01*
X3795013Y-2792729D01*
X4991861Y-2795270D02*
G01*
X4989829Y-2795270D01*
X4813300Y-2971800D01*
X5816600Y-2959100D02*
G01*
X5816600Y-3200400D01*
X4356100Y-4940300D02*
G01*
X4200652Y-4784852D01*
X4200652Y-4372102D01*
X4584700Y-3987800D01*
X4501388Y-3126486D02*
G01*
X4658613Y-3126486D01*
X4813300Y-2971800D01*
X4267200Y-2349500D02*
G01*
X4267200Y-2892044D01*
X4501388Y-3126486D01*
X4584700Y-3987800D02*
G01*
X4400550Y-3803650D01*
X4400550Y-3227323D01*
X4501388Y-3126486D01*
X5703570Y-3581400D02*
G01*
X5703570Y-3313684D01*
X5816600Y-3200400D01*
X6662420Y-2353055D02*
G01*
X6452870Y-2562605D01*
X5692393Y-2562605D01*
X5054600Y-3200400D01*
X3361690Y-4853686D02*
G01*
X3452113Y-4853686D01*
X3594100Y-4711700D01*
X6649720Y-4962144D02*
G01*
X6649720Y-4931663D01*
X5978397Y-4260342D01*
X5619241Y-4260342D01*
X5346700Y-3987800D01*
X5651500Y-4038600D02*
G01*
X5346700Y-3733800D01*
X4813300Y-3733800D01*
X2400300Y-4953000D02*
G01*
X2535427Y-5088128D01*
X2991358Y-5088128D01*
X3429254Y-4649978D01*
X3435858Y-4649978D01*
D11*
G01*
X1422400Y-4343400D03*
G01*
X1422400Y-4089400D03*
G01*
X1422400Y-3835400D03*
G01*
X1422400Y-3581400D03*
G01*
X1422400Y-3327400D03*
D12*
G01*
X1422400Y-3073400D03*
D11*
G01*
X2908300Y-4953000D03*
G01*
X2654300Y-4953000D03*
G01*
X2400300Y-4953000D03*
G01*
X2146300Y-4953000D03*
G01*
X1892300Y-4953000D03*
D12*
G01*
X1638300Y-4953000D03*
D13*
G01*
X4813300Y-3733800D03*
G01*
X4813300Y-2971800D03*
D14*
G01*
X3594100Y-4711700D03*
G01*
X4356100Y-4711700D03*
D15*
G01*
X5702300Y-4673600D03*
G01*
X5702300Y-4419600D03*
D13*
G01*
X5054600Y-3200400D03*
G01*
X5816600Y-3200400D03*
G01*
X5054600Y-2959100D03*
G01*
X5816600Y-2959100D03*
G01*
X4559300Y-2971800D03*
G01*
X4559300Y-3733800D03*
G01*
X4356100Y-4940300D03*
G01*
X3594100Y-4940300D03*
G01*
X5346700Y-3987800D03*
G01*
X4584700Y-3987800D03*
D15*
G01*
X1930400Y-2667000D03*
G01*
X1676400Y-2667000D03*
D16*
G01*
X5383656Y-3606800D03*
G01*
X5233543Y-3606800D03*
D15*
G01*
X4660900Y-4737100D03*
G01*
X4660900Y-4991100D03*
D16*
G01*
X5853556Y-3581400D03*
G01*
X5703443Y-3581400D03*
D17*
G01*
X5999606Y-4962093D03*
G01*
X6649593Y-4962093D03*
G01*
X6649593Y-4512106D03*
G01*
X5999606Y-4512106D03*
G01*
X6012306Y-2803093D03*
G01*
X6662293Y-2803093D03*
G01*
X6662293Y-2353106D03*
G01*
X6012306Y-2353106D03*
D18*
G01*
X5651500Y-4038600D03*
G01*
X5905500Y-4038600D03*
D12*
G01*
X2159000Y-2362200D03*
D11*
G01*
X2413000Y-2362200D03*
G01*
X2667000Y-2362200D03*
G01*
X2921000Y-2362200D03*
D12*
G01*
X4267200Y-2349500D03*
D11*
G01*
X4521200Y-2349500D03*
G01*
X4775200Y-2349500D03*
G01*
X5029200Y-2349500D03*
D19*
G01*
X4227068Y-2988055D03*
G01*
X3593845Y-4277613D03*
G01*
X2721356Y-4719828D03*
G01*
X3089656Y-2723642D03*
G01*
X2794000Y-2699004D03*
G01*
X3055111Y-4296410D03*
G01*
X3193795Y-4307331D03*
G01*
X2530856Y-2590292D03*
G01*
X3795013Y-2792729D03*
G01*
X4639056Y-2792729D03*
G01*
X4991861Y-2795270D03*
G01*
X3361690Y-4853686D03*
G01*
X3435858Y-4649978D03*
M02*
