G04 Layer: TopSilkscreenLayer*
G04 EasyEDA v6.5.48, 2025-03-08 11:51:36*
G04 8fe2fb576d564ac8881881e7cade559e,369c048249c94b259d5cf78f180de413,10*
G04 Gerber Generator version 0.2*
G04 Scale: 100 percent, Rotated: No, Reflected: No *
G04 Dimensions in millimeters *
G04 leading zeros omitted , absolute positions ,4 integer and 5 decimal *
%FSLAX45Y45*%
%MOMM*%

%ADD10C,0.2032*%
%ADD11C,0.1016*%
%ADD12C,0.1524*%
%ADD13C,0.2030*%
%ADD14C,0.2540*%
%ADD15C,0.2286*%
%ADD16C,0.2007*%
%ADD17C,0.0123*%

%LPD*%
G36*
X1691538Y-2214270D02*
G01*
X1676907Y-2214524D01*
X1662277Y-2215134D01*
X1647545Y-2216150D01*
X1632356Y-2217623D01*
X1616913Y-2219502D01*
X1601978Y-2221788D01*
X1587550Y-2224430D01*
X1573631Y-2227427D01*
X1560220Y-2230729D01*
X1547317Y-2234336D01*
X1534972Y-2238248D01*
X1523136Y-2242464D01*
X1511909Y-2246934D01*
X1501241Y-2251659D01*
X1491132Y-2256637D01*
X1481683Y-2261819D01*
X1472793Y-2267204D01*
X1464513Y-2272842D01*
X1456893Y-2278634D01*
X1449882Y-2284577D01*
X1443532Y-2290673D01*
X1437843Y-2296922D01*
X1432864Y-2303272D01*
X1428546Y-2309723D01*
X1424940Y-2316327D01*
X1422044Y-2322982D01*
X1420825Y-2326284D01*
X1419047Y-2333040D01*
X1417929Y-2339848D01*
X1417624Y-2346655D01*
X1418031Y-2353462D01*
X1419250Y-2360320D01*
X1421231Y-2367127D01*
X1424025Y-2373884D01*
X1427632Y-2380640D01*
X1432052Y-2387295D01*
X1437284Y-2393950D01*
X1441067Y-2398064D01*
X1535684Y-2398064D01*
X1537055Y-2396439D01*
X1540611Y-2394356D01*
X1545894Y-2392019D01*
X1552194Y-2389581D01*
X1558950Y-2387346D01*
X1565554Y-2385466D01*
X1571396Y-2384196D01*
X1575866Y-2383688D01*
X1581912Y-2383688D01*
X1581912Y-2298446D01*
X1571447Y-2295804D01*
X1563776Y-2293518D01*
X1556613Y-2290724D01*
X1550111Y-2287625D01*
X1544574Y-2284374D01*
X1540256Y-2281072D01*
X1537411Y-2277973D01*
X1536293Y-2275230D01*
X1537157Y-2272944D01*
X1538681Y-2271826D01*
X1540713Y-2271979D01*
X1544370Y-2273808D01*
X1550873Y-2277719D01*
X1557121Y-2281174D01*
X1563573Y-2284018D01*
X1570177Y-2286203D01*
X1576933Y-2287727D01*
X1583690Y-2288641D01*
X1590548Y-2288895D01*
X1597355Y-2288540D01*
X1604162Y-2287524D01*
X1610868Y-2285847D01*
X1617472Y-2283561D01*
X1623872Y-2280666D01*
X1636115Y-2273858D01*
X1640281Y-2272741D01*
X1642719Y-2273858D01*
X1643481Y-2277110D01*
X1642618Y-2278735D01*
X1640128Y-2280869D01*
X1636369Y-2283409D01*
X1627344Y-2288286D01*
X1747266Y-2288286D01*
X1748536Y-2283815D01*
X1752600Y-2278278D01*
X1757019Y-2273503D01*
X1760270Y-2271979D01*
X1763471Y-2273858D01*
X1767839Y-2279091D01*
X1771446Y-2284933D01*
X1772310Y-2289911D01*
X1770278Y-2294839D01*
X1765401Y-2300325D01*
X1759712Y-2305608D01*
X1753311Y-2298395D01*
X1748840Y-2292756D01*
X1747266Y-2288286D01*
X1627344Y-2288286D01*
X1620367Y-2291537D01*
X1614474Y-2293874D01*
X1608836Y-2295804D01*
X1599488Y-2298598D01*
X1599488Y-2331720D01*
X1665478Y-2331720D01*
X1692046Y-2316581D01*
X1698802Y-2313990D01*
X1704136Y-2314092D01*
X1710689Y-2316480D01*
X1714906Y-2319020D01*
X1716989Y-2321915D01*
X1717192Y-2324862D01*
X1715719Y-2327605D01*
X1712874Y-2329840D01*
X1708861Y-2331313D01*
X1703882Y-2331770D01*
X1747164Y-2331770D01*
X1747215Y-2328316D01*
X1749094Y-2324100D01*
X1752803Y-2319477D01*
X1757019Y-2315260D01*
X1759813Y-2313787D01*
X1762709Y-2315108D01*
X1767128Y-2319223D01*
X1770989Y-2323693D01*
X1772920Y-2327757D01*
X1772920Y-2331364D01*
X1770938Y-2334564D01*
X1770125Y-2337155D01*
X1769618Y-2342388D01*
X1769416Y-2349500D01*
X1795780Y-2349500D01*
X1797405Y-2337206D01*
X1797507Y-2335123D01*
X1798472Y-2332837D01*
X1801317Y-2329891D01*
X1805939Y-2326335D01*
X1812340Y-2322220D01*
X1822094Y-2316683D01*
X1828647Y-2314143D01*
X1834337Y-2314194D01*
X1841500Y-2316429D01*
X1846884Y-2319121D01*
X1848866Y-2322118D01*
X1847342Y-2325420D01*
X1842363Y-2329129D01*
X1838655Y-2331059D01*
X1835556Y-2331872D01*
X1832406Y-2331720D01*
X1821942Y-2329027D01*
X1817776Y-2330094D01*
X1815693Y-2334209D01*
X1815084Y-2341829D01*
X1815439Y-2349144D01*
X1817319Y-2352192D01*
X1821942Y-2351278D01*
X1830578Y-2346858D01*
X1841652Y-2340813D01*
X1848154Y-2348484D01*
X1851660Y-2353056D01*
X1853539Y-2357221D01*
X1854250Y-2362454D01*
X1854149Y-2370226D01*
X1853590Y-2384298D01*
X1820011Y-2403805D01*
X1808784Y-2396845D01*
X1801520Y-2391816D01*
X1798167Y-2387752D01*
X1798523Y-2384196D01*
X1802384Y-2380538D01*
X1806752Y-2377998D01*
X1810715Y-2377440D01*
X1815388Y-2378964D01*
X1821891Y-2382723D01*
X1829257Y-2386380D01*
X1833880Y-2385872D01*
X1836369Y-2380945D01*
X1837080Y-2371242D01*
X1836420Y-2362504D01*
X1833829Y-2358440D01*
X1828698Y-2358694D01*
X1820214Y-2362911D01*
X1809953Y-2368905D01*
X1802384Y-2360676D01*
X1798624Y-2356256D01*
X1796542Y-2352751D01*
X1795780Y-2349500D01*
X1769414Y-2349550D01*
X1769719Y-2366213D01*
X1770227Y-2374087D01*
X1770989Y-2380538D01*
X1772259Y-2387244D01*
X1771599Y-2389936D01*
X1769821Y-2393086D01*
X1766824Y-2396896D01*
X1760169Y-2404618D01*
X1753514Y-2397404D01*
X1749399Y-2392324D01*
X1747316Y-2388158D01*
X1747215Y-2384907D01*
X1749094Y-2382621D01*
X1749958Y-2380284D01*
X1750669Y-2375052D01*
X1751126Y-2367483D01*
X1751279Y-2358390D01*
X1751126Y-2349296D01*
X1750669Y-2341778D01*
X1749958Y-2336495D01*
X1749094Y-2334209D01*
X1747164Y-2331770D01*
X1703882Y-2331770D01*
X1690928Y-2329383D01*
X1686255Y-2330399D01*
X1683816Y-2334107D01*
X1683105Y-2340813D01*
X1683715Y-2348179D01*
X1686052Y-2351532D01*
X1690827Y-2351176D01*
X1698853Y-2347417D01*
X1709877Y-2341422D01*
X1716278Y-2347569D01*
X1719783Y-2351328D01*
X1721713Y-2355189D01*
X1722475Y-2360625D01*
X1722628Y-2369261D01*
X1722526Y-2384806D01*
X1689811Y-2403805D01*
X1677619Y-2396540D01*
X1669491Y-2391105D01*
X1666138Y-2386990D01*
X1667357Y-2383536D01*
X1672996Y-2380030D01*
X1677416Y-2378151D01*
X1680819Y-2377694D01*
X1684528Y-2378964D01*
X1690065Y-2381961D01*
X1697939Y-2385872D01*
X1702511Y-2385872D01*
X1704593Y-2381402D01*
X1705102Y-2371801D01*
X1705051Y-2365654D01*
X1704695Y-2361184D01*
X1703882Y-2358339D01*
X1702307Y-2357069D01*
X1699717Y-2357272D01*
X1695957Y-2358898D01*
X1683664Y-2366264D01*
X1680768Y-2367178D01*
X1677720Y-2366619D01*
X1674672Y-2364740D01*
X1671828Y-2361742D01*
X1669338Y-2357831D01*
X1667357Y-2353259D01*
X1666036Y-2348230D01*
X1665579Y-2342845D01*
X1665478Y-2331720D01*
X1599488Y-2331720D01*
X1599488Y-2383688D01*
X1604772Y-2383688D01*
X1608124Y-2384145D01*
X1613255Y-2385314D01*
X1619554Y-2387041D01*
X1642922Y-2394661D01*
X1643430Y-2396083D01*
X1643481Y-2399080D01*
X1643125Y-2402128D01*
X1642516Y-2403500D01*
X1610055Y-2393340D01*
X1599692Y-2391206D01*
X1594815Y-2390648D01*
X1589989Y-2390495D01*
X1585214Y-2390648D01*
X1580388Y-2391156D01*
X1575358Y-2392019D01*
X1570075Y-2393238D01*
X1546707Y-2400503D01*
X1539798Y-2401874D01*
X1536496Y-2401062D01*
X1535684Y-2398064D01*
X1441067Y-2398064D01*
X1446733Y-2403652D01*
X1454099Y-2410053D01*
X1462328Y-2416251D01*
X1471422Y-2422398D01*
X1481124Y-2428138D01*
X1490980Y-2433421D01*
X1501292Y-2438400D01*
X1511909Y-2443022D01*
X1522933Y-2447340D01*
X1534210Y-2451354D01*
X1545844Y-2455011D01*
X1557731Y-2458364D01*
X1569872Y-2461412D01*
X1582216Y-2464104D01*
X1594764Y-2466543D01*
X1607464Y-2468626D01*
X1620316Y-2470454D01*
X1633321Y-2471928D01*
X1646377Y-2473147D01*
X1659534Y-2474010D01*
X1672742Y-2474620D01*
X1686001Y-2474925D01*
X1712417Y-2474671D01*
X1732076Y-2473706D01*
X1745081Y-2472690D01*
X1757984Y-2471420D01*
X1770786Y-2469845D01*
X1783384Y-2468016D01*
X1801875Y-2464714D01*
X1813966Y-2462174D01*
X1825802Y-2459380D01*
X1837385Y-2456332D01*
X1848612Y-2452979D01*
X1859534Y-2449372D01*
X1870100Y-2445512D01*
X1880311Y-2441397D01*
X1890115Y-2436977D01*
X1899462Y-2432354D01*
X1908403Y-2427478D01*
X1916836Y-2422296D01*
X1924812Y-2416911D01*
X1932228Y-2411272D01*
X1939086Y-2405380D01*
X1945386Y-2399233D01*
X1951075Y-2392883D01*
X1956155Y-2386279D01*
X1966874Y-2369820D01*
X1966874Y-2320594D01*
X1956054Y-2304034D01*
X1950923Y-2297328D01*
X1945030Y-2290876D01*
X1938477Y-2284628D01*
X1931263Y-2278583D01*
X1923389Y-2272741D01*
X1914956Y-2267102D01*
X1905914Y-2261768D01*
X1896364Y-2256637D01*
X1886254Y-2251760D01*
X1875688Y-2247138D01*
X1864664Y-2242820D01*
X1853184Y-2238756D01*
X1841296Y-2234946D01*
X1829003Y-2231440D01*
X1816404Y-2228291D01*
X1803450Y-2225395D01*
X1790242Y-2222804D01*
X1776730Y-2220569D01*
X1762963Y-2218639D01*
X1748993Y-2217064D01*
X1734870Y-2215845D01*
X1720545Y-2214930D01*
X1706118Y-2214422D01*
G37*
G36*
X5534964Y-2475026D02*
G01*
X5502757Y-2475687D01*
X5486400Y-2476500D01*
X5470652Y-2477617D01*
X5455208Y-2479040D01*
X5440070Y-2480767D01*
X5425287Y-2482799D01*
X5410809Y-2485136D01*
X5396636Y-2487777D01*
X5382869Y-2490673D01*
X5369407Y-2493873D01*
X5356352Y-2497328D01*
X5343702Y-2501036D01*
X5331409Y-2504948D01*
X5319522Y-2509164D01*
X5308041Y-2513533D01*
X5297017Y-2518206D01*
X5286400Y-2523032D01*
X5276240Y-2528062D01*
X5266537Y-2533243D01*
X5257292Y-2538679D01*
X5248554Y-2544216D01*
X5240274Y-2549956D01*
X5232501Y-2555849D01*
X5225186Y-2561894D01*
X5218430Y-2568092D01*
X5212232Y-2574340D01*
X5206542Y-2580792D01*
X5201412Y-2587294D01*
X5196840Y-2593898D01*
X5192826Y-2600655D01*
X5189372Y-2607411D01*
X5186527Y-2614269D01*
X5184292Y-2621229D01*
X5182666Y-2628188D01*
X5181650Y-2635199D01*
X5181295Y-2642260D01*
X5181549Y-2649372D01*
X5182514Y-2656484D01*
X5184089Y-2663596D01*
X5186375Y-2670708D01*
X5189321Y-2677769D01*
X5192928Y-2684881D01*
X5197297Y-2691942D01*
X5202377Y-2698953D01*
X5208168Y-2705912D01*
X5211318Y-2709367D01*
X5335371Y-2709367D01*
X5337149Y-2707487D01*
X5341874Y-2704846D01*
X5348732Y-2701848D01*
X5356961Y-2698699D01*
X5365648Y-2695702D01*
X5373979Y-2693212D01*
X5381142Y-2691536D01*
X5387848Y-2690622D01*
X5389016Y-2689504D01*
X5389880Y-2686964D01*
X5390388Y-2682595D01*
X5390692Y-2675788D01*
X5390743Y-2653131D01*
X5389778Y-2581503D01*
X5367324Y-2574340D01*
X5360365Y-2571546D01*
X5353812Y-2568498D01*
X5347868Y-2565400D01*
X5342788Y-2562352D01*
X5338876Y-2559507D01*
X5336336Y-2556967D01*
X5335422Y-2554935D01*
X5335778Y-2552344D01*
X5338013Y-2551988D01*
X5343652Y-2554224D01*
X5360822Y-2562606D01*
X5373268Y-2567635D01*
X5379161Y-2569514D01*
X5384952Y-2570988D01*
X5390591Y-2572054D01*
X5396179Y-2572715D01*
X5401716Y-2572918D01*
X5407253Y-2572715D01*
X5412740Y-2572156D01*
X5418328Y-2571140D01*
X5424017Y-2569667D01*
X5429758Y-2567838D01*
X5435701Y-2565603D01*
X5441797Y-2562910D01*
X5455158Y-2556510D01*
X5460847Y-2554325D01*
X5465013Y-2553462D01*
X5467248Y-2553919D01*
X5467350Y-2555595D01*
X5465419Y-2558034D01*
X5461660Y-2560929D01*
X5456478Y-2564180D01*
X5450179Y-2567584D01*
X5443118Y-2570886D01*
X5438356Y-2572816D01*
X5602579Y-2572816D01*
X5602935Y-2567432D01*
X5606643Y-2560320D01*
X5611977Y-2554122D01*
X5617057Y-2551430D01*
X5618327Y-2552090D01*
X5620562Y-2553817D01*
X5626557Y-2559558D01*
X5631129Y-2565501D01*
X5632145Y-2570835D01*
X5629452Y-2576474D01*
X5622899Y-2583281D01*
X5617972Y-2585872D01*
X5612892Y-2584958D01*
X5607710Y-2580589D01*
X5602579Y-2572816D01*
X5438356Y-2572816D01*
X5427980Y-2576576D01*
X5412079Y-2581503D01*
X5411464Y-2625090D01*
X5499912Y-2625090D01*
X5520131Y-2613456D01*
X5528310Y-2609037D01*
X5535625Y-2605684D01*
X5541314Y-2603703D01*
X5544566Y-2603398D01*
X5556504Y-2607818D01*
X5561584Y-2610358D01*
X5563057Y-2613101D01*
X5560872Y-2616454D01*
X5555030Y-2620568D01*
X5550814Y-2622804D01*
X5547156Y-2623667D01*
X5543143Y-2623312D01*
X5538012Y-2621737D01*
X5528868Y-2619349D01*
X5523179Y-2620670D01*
X5520232Y-2626258D01*
X5519420Y-2636621D01*
X5519572Y-2642819D01*
X5520080Y-2647492D01*
X5521096Y-2650744D01*
X5522671Y-2652623D01*
X5525008Y-2653182D01*
X5528157Y-2652522D01*
X5532272Y-2650744D01*
X5542483Y-2645257D01*
X5547106Y-2643479D01*
X5551322Y-2642565D01*
X5555081Y-2642514D01*
X5558434Y-2643327D01*
X5561330Y-2645054D01*
X5563819Y-2647594D01*
X5565851Y-2650998D01*
X5567426Y-2655265D01*
X5568594Y-2660396D01*
X5569305Y-2666390D01*
X5569559Y-2673197D01*
X5569661Y-2690418D01*
X5562250Y-2694686D01*
X5601563Y-2694686D01*
X5603748Y-2688590D01*
X5604510Y-2684119D01*
X5605119Y-2678379D01*
X5605780Y-2664358D01*
X5605780Y-2649270D01*
X5605068Y-2635808D01*
X5604510Y-2630576D01*
X5603748Y-2626766D01*
X5601766Y-2622804D01*
X5602173Y-2620111D01*
X5604103Y-2616504D01*
X5607659Y-2611678D01*
X5613349Y-2604770D01*
X5617057Y-2602484D01*
X5620715Y-2604719D01*
X5626252Y-2611424D01*
X5630468Y-2616962D01*
X5632246Y-2620670D01*
X5631942Y-2623769D01*
X5629757Y-2627376D01*
X5628335Y-2630271D01*
X5627217Y-2634335D01*
X5626297Y-2639466D01*
X5664555Y-2639466D01*
X5664657Y-2625344D01*
X5705551Y-2601823D01*
X5709310Y-2603042D01*
X5717489Y-2606192D01*
X5723077Y-2609291D01*
X5725871Y-2612796D01*
X5726125Y-2616250D01*
X5724245Y-2619349D01*
X5720588Y-2621788D01*
X5715457Y-2623210D01*
X5709158Y-2623261D01*
X5693714Y-2619654D01*
X5688076Y-2621280D01*
X5684977Y-2626664D01*
X5684012Y-2636164D01*
X5684215Y-2642412D01*
X5684723Y-2647086D01*
X5685739Y-2650388D01*
X5687364Y-2652318D01*
X5689701Y-2652979D01*
X5692851Y-2652471D01*
X5697016Y-2650794D01*
X5707481Y-2645410D01*
X5712256Y-2643581D01*
X5716524Y-2642616D01*
X5720334Y-2642514D01*
X5723636Y-2643276D01*
X5726480Y-2644952D01*
X5728868Y-2647492D01*
X5730798Y-2650896D01*
X5732322Y-2655265D01*
X5733338Y-2660497D01*
X5733999Y-2666695D01*
X5734202Y-2673756D01*
X5734202Y-2690672D01*
X5694273Y-2713939D01*
X5679389Y-2705912D01*
X5669534Y-2700070D01*
X5665368Y-2695752D01*
X5666486Y-2691942D01*
X5672480Y-2687726D01*
X5677204Y-2685338D01*
X5681167Y-2684830D01*
X5685891Y-2686405D01*
X5699302Y-2693365D01*
X5704179Y-2695244D01*
X5707938Y-2695854D01*
X5710682Y-2694990D01*
X5712612Y-2692654D01*
X5713831Y-2688742D01*
X5714492Y-2683154D01*
X5714542Y-2668422D01*
X5714034Y-2662885D01*
X5713018Y-2659024D01*
X5711291Y-2656789D01*
X5708751Y-2656027D01*
X5705246Y-2656636D01*
X5700623Y-2658516D01*
X5680710Y-2669184D01*
X5672582Y-2661412D01*
X5668416Y-2656840D01*
X5665927Y-2652471D01*
X5664809Y-2647035D01*
X5664555Y-2639466D01*
X5626297Y-2639466D01*
X5625693Y-2645257D01*
X5625185Y-2658160D01*
X5625693Y-2671114D01*
X5626354Y-2677007D01*
X5627217Y-2682138D01*
X5628386Y-2686354D01*
X5629757Y-2689352D01*
X5631992Y-2693263D01*
X5632297Y-2696413D01*
X5630316Y-2699969D01*
X5617362Y-2714599D01*
X5608523Y-2705912D01*
X5604154Y-2701188D01*
X5601919Y-2697734D01*
X5601563Y-2694686D01*
X5562250Y-2694686D01*
X5536387Y-2709468D01*
X5531967Y-2711450D01*
X5528360Y-2712364D01*
X5525160Y-2712161D01*
X5521807Y-2710891D01*
X5512562Y-2705557D01*
X5504129Y-2699918D01*
X5500624Y-2695600D01*
X5501843Y-2691790D01*
X5507482Y-2687574D01*
X5512003Y-2685186D01*
X5515660Y-2684627D01*
X5520131Y-2686151D01*
X5533186Y-2693314D01*
X5538266Y-2695346D01*
X5542280Y-2695905D01*
X5545378Y-2695041D01*
X5547614Y-2692603D01*
X5549087Y-2688590D01*
X5549849Y-2682951D01*
X5550103Y-2675534D01*
X5550001Y-2668168D01*
X5549442Y-2662631D01*
X5548325Y-2658821D01*
X5546547Y-2656586D01*
X5543854Y-2655925D01*
X5540095Y-2656636D01*
X5535117Y-2658668D01*
X5513832Y-2669997D01*
X5506974Y-2661615D01*
X5503722Y-2656941D01*
X5501589Y-2652014D01*
X5500420Y-2646324D01*
X5500014Y-2639161D01*
X5499912Y-2625090D01*
X5411464Y-2625090D01*
X5410606Y-2689504D01*
X5438698Y-2696616D01*
X5446826Y-2699054D01*
X5453786Y-2701391D01*
X5459425Y-2703626D01*
X5463641Y-2705709D01*
X5466435Y-2707640D01*
X5467654Y-2709316D01*
X5467197Y-2710789D01*
X5464911Y-2711551D01*
X5460644Y-2711246D01*
X5454548Y-2709773D01*
X5441746Y-2705608D01*
X5436514Y-2704236D01*
X5431028Y-2703068D01*
X5419394Y-2701391D01*
X5407202Y-2700528D01*
X5394858Y-2700528D01*
X5382818Y-2701340D01*
X5371388Y-2702966D01*
X5361025Y-2705455D01*
X5344871Y-2711145D01*
X5338572Y-2712821D01*
X5335930Y-2712161D01*
X5335371Y-2709367D01*
X5211318Y-2709367D01*
X5218023Y-2716123D01*
X5225034Y-2722422D01*
X5232501Y-2728569D01*
X5240375Y-2734411D01*
X5248605Y-2740101D01*
X5257241Y-2745486D01*
X5266232Y-2750667D01*
X5275529Y-2755646D01*
X5285232Y-2760370D01*
X5295188Y-2764891D01*
X5305450Y-2769158D01*
X5321401Y-2775153D01*
X5332374Y-2778861D01*
X5343550Y-2782316D01*
X5360822Y-2787142D01*
X5384495Y-2792730D01*
X5396636Y-2795219D01*
X5421325Y-2799486D01*
X5446522Y-2802890D01*
X5465724Y-2804820D01*
X5485079Y-2806293D01*
X5504586Y-2807258D01*
X5530646Y-2807766D01*
X5550204Y-2807563D01*
X5569661Y-2806903D01*
X5589066Y-2805734D01*
X5614670Y-2803398D01*
X5627319Y-2801924D01*
X5646115Y-2799283D01*
X5664555Y-2796184D01*
X5682640Y-2792577D01*
X5706059Y-2787091D01*
X5717489Y-2783992D01*
X5728665Y-2780690D01*
X5739587Y-2777185D01*
X5750255Y-2773476D01*
X5760618Y-2769565D01*
X5770727Y-2765399D01*
X5780532Y-2761081D01*
X5789980Y-2756509D01*
X5799074Y-2751734D01*
X5807862Y-2746806D01*
X5816244Y-2741625D01*
X5824270Y-2736240D01*
X5831840Y-2730652D01*
X5839053Y-2724861D01*
X5845810Y-2718866D01*
X5852109Y-2712669D01*
X5857951Y-2706217D01*
X5863336Y-2699613D01*
X5868162Y-2692806D01*
X5879185Y-2676296D01*
X5879134Y-2639060D01*
X5878474Y-2631236D01*
X5877204Y-2623566D01*
X5875324Y-2615996D01*
X5872784Y-2608580D01*
X5869686Y-2601315D01*
X5866028Y-2594203D01*
X5861761Y-2587244D01*
X5856935Y-2580436D01*
X5851601Y-2573782D01*
X5845657Y-2567330D01*
X5839256Y-2561031D01*
X5832297Y-2554884D01*
X5824880Y-2548991D01*
X5816955Y-2543251D01*
X5808522Y-2537663D01*
X5799632Y-2532329D01*
X5790336Y-2527198D01*
X5780532Y-2522270D01*
X5770372Y-2517546D01*
X5759754Y-2513025D01*
X5748731Y-2508758D01*
X5737301Y-2504694D01*
X5725515Y-2500884D01*
X5713323Y-2497328D01*
X5700826Y-2494026D01*
X5687974Y-2490927D01*
X5674766Y-2488133D01*
X5661253Y-2485542D01*
X5647385Y-2483256D01*
X5633262Y-2481224D01*
X5618835Y-2479497D01*
X5604154Y-2478024D01*
X5589168Y-2476855D01*
X5573979Y-2475941D01*
X5558536Y-2475382D01*
G37*
D10*
X5080248Y-2565402D02*
G01*
X5003794Y-2565402D01*
X5080248Y-2611122D02*
G01*
X5076438Y-2604010D01*
X5069326Y-2596644D01*
X5061960Y-2593088D01*
X5051038Y-2589278D01*
X5033004Y-2589278D01*
X5022082Y-2593088D01*
X5014716Y-2596644D01*
X5007350Y-2604010D01*
X5003794Y-2611122D01*
X5003794Y-2625854D01*
X5007350Y-2632966D01*
X5014716Y-2640332D01*
X5022082Y-2643888D01*
X5033004Y-2647698D01*
X5051038Y-2647698D01*
X5061960Y-2643888D01*
X5069326Y-2640332D01*
X5076438Y-2632966D01*
X5080248Y-2625854D01*
X5080248Y-2611122D01*
X5065770Y-2671574D02*
G01*
X5069326Y-2678940D01*
X5080248Y-2689862D01*
X5003794Y-2689862D01*
X5080248Y-2721104D02*
G01*
X5080248Y-2760982D01*
X5051038Y-2739138D01*
X5051038Y-2750060D01*
X5047482Y-2757426D01*
X5043926Y-2760982D01*
X5033004Y-2764792D01*
X5025638Y-2764792D01*
X5014716Y-2760982D01*
X5007350Y-2753870D01*
X5003794Y-2742948D01*
X5003794Y-2732026D01*
X5007350Y-2721104D01*
X5011160Y-2717294D01*
X5018272Y-2713738D01*
X2705354Y-2527302D02*
G01*
X2628900Y-2527302D01*
X2705354Y-2573022D02*
G01*
X2701543Y-2565910D01*
X2694431Y-2558544D01*
X2687065Y-2554988D01*
X2676143Y-2551432D01*
X2658109Y-2551432D01*
X2647188Y-2554988D01*
X2639822Y-2558544D01*
X2632456Y-2565910D01*
X2628900Y-2573022D01*
X2628900Y-2587754D01*
X2632456Y-2594866D01*
X2639822Y-2602232D01*
X2647188Y-2605788D01*
X2658109Y-2609598D01*
X2676143Y-2609598D01*
X2687065Y-2605788D01*
X2694431Y-2602232D01*
X2701543Y-2594866D01*
X2705354Y-2587754D01*
X2705354Y-2573022D01*
X2690875Y-2633474D02*
G01*
X2694431Y-2640840D01*
X2705354Y-2651762D01*
X2628900Y-2651762D01*
X2705354Y-2711960D02*
G01*
X2654300Y-2675638D01*
X2654300Y-2730248D01*
X2705354Y-2711960D02*
G01*
X2628900Y-2711960D01*
X2959359Y-2527297D02*
G01*
X2882905Y-2527297D01*
X2959359Y-2573017D02*
G01*
X2955549Y-2565905D01*
X2948437Y-2558539D01*
X2941071Y-2554983D01*
X2930149Y-2551173D01*
X2912115Y-2551173D01*
X2901193Y-2554983D01*
X2893827Y-2558539D01*
X2886461Y-2565905D01*
X2882905Y-2573017D01*
X2882905Y-2587749D01*
X2886461Y-2594861D01*
X2893827Y-2602227D01*
X2901193Y-2605783D01*
X2912115Y-2609593D01*
X2930149Y-2609593D01*
X2941071Y-2605783D01*
X2948437Y-2602227D01*
X2955549Y-2594861D01*
X2959359Y-2587749D01*
X2959359Y-2573017D01*
X2944881Y-2633469D02*
G01*
X2948437Y-2640835D01*
X2959359Y-2651757D01*
X2882905Y-2651757D01*
X2948437Y-2719321D02*
G01*
X2955549Y-2715765D01*
X2959359Y-2704843D01*
X2959359Y-2697477D01*
X2955549Y-2686555D01*
X2944881Y-2679189D01*
X2926593Y-2675633D01*
X2908305Y-2675633D01*
X2893827Y-2679189D01*
X2886461Y-2686555D01*
X2882905Y-2697477D01*
X2882905Y-2701033D01*
X2886461Y-2711955D01*
X2893827Y-2719321D01*
X2904749Y-2722877D01*
X2908305Y-2722877D01*
X2919227Y-2719321D01*
X2926593Y-2711955D01*
X2930149Y-2701033D01*
X2930149Y-2697477D01*
X2926593Y-2686555D01*
X2919227Y-2679189D01*
X2908305Y-2675633D01*
D11*
X1206500Y-6184900D02*
G01*
X3031299Y-6201450D01*
X4982400Y-6219149D02*
G01*
X6807200Y-6235700D01*
X1332804Y-6262248D02*
G01*
X1206500Y-6184900D01*
X1334185Y-6109855D01*
X6679514Y-6310744D02*
G01*
X6807200Y-6235700D01*
X6680895Y-6158351D01*
X3221967Y-6064704D02*
G01*
X3106402Y-6063655D01*
X3094029Y-6167432D01*
X3105566Y-6155852D01*
X3140466Y-6144740D01*
X3175010Y-6145052D01*
X3209447Y-6156794D01*
X3232350Y-6180119D01*
X3243719Y-6215021D01*
X3243508Y-6238133D01*
X3231512Y-6272570D01*
X3208190Y-6295473D01*
X3173544Y-6306591D01*
X3139000Y-6306276D01*
X3104309Y-6294531D01*
X3092985Y-6282745D01*
X3081510Y-6259525D01*
X3459388Y-6101402D02*
G01*
X3448169Y-6078186D01*
X3413475Y-6066442D01*
X3390364Y-6066231D01*
X3355715Y-6077346D01*
X3332289Y-6111933D01*
X3320336Y-6169487D01*
X3319813Y-6227142D01*
X3330823Y-6273472D01*
X3353727Y-6296794D01*
X3388164Y-6308537D01*
X3399848Y-6308643D01*
X3434494Y-6297526D01*
X3457818Y-6274622D01*
X3469815Y-6240185D01*
X3469921Y-6228504D01*
X3458550Y-6193856D01*
X3435647Y-6170531D01*
X3401209Y-6158534D01*
X3389525Y-6158428D01*
X3354877Y-6169799D01*
X3331555Y-6192702D01*
X3319813Y-6227142D01*
X3557338Y-6252410D02*
G01*
X3545804Y-6263736D01*
X3557127Y-6275524D01*
X3568664Y-6263944D01*
X3557338Y-6252410D01*
X3715976Y-6069185D02*
G01*
X3681331Y-6080300D01*
X3657902Y-6114887D01*
X3645697Y-6172436D01*
X3645382Y-6206980D01*
X3656543Y-6264742D01*
X3679339Y-6299748D01*
X3713779Y-6311491D01*
X3736893Y-6311699D01*
X3771539Y-6300584D01*
X3794968Y-6265997D01*
X3807175Y-6208448D01*
X3807487Y-6173904D01*
X3796327Y-6116142D01*
X3773530Y-6081135D01*
X3739090Y-6069393D01*
X3715976Y-6069185D01*
X3953967Y-6071344D02*
G01*
X3919065Y-6082456D01*
X3895636Y-6117043D01*
X3883685Y-6174595D01*
X3883370Y-6209139D01*
X3894277Y-6266898D01*
X3917076Y-6301905D01*
X3951767Y-6313650D01*
X3974627Y-6313855D01*
X4009527Y-6302743D01*
X4032956Y-6268156D01*
X4044909Y-6210604D01*
X4045221Y-6176060D01*
X4034315Y-6118301D01*
X4011518Y-6083294D01*
X3976824Y-6071549D01*
X3953967Y-6071344D01*
X4271736Y-6155001D02*
G01*
X4259994Y-6189438D01*
X4236671Y-6212342D01*
X4201767Y-6223711D01*
X4190339Y-6223607D01*
X4155902Y-6211610D01*
X4132999Y-6188288D01*
X4121627Y-6153640D01*
X4121734Y-6141956D01*
X4133730Y-6107518D01*
X4157052Y-6084615D01*
X4191701Y-6073500D01*
X4203131Y-6073602D01*
X4237822Y-6085347D01*
X4260725Y-6108672D01*
X4271736Y-6155001D01*
X4271213Y-6212657D01*
X4259259Y-6270208D01*
X4235831Y-6304795D01*
X4200931Y-6315908D01*
X4177819Y-6315699D01*
X4143380Y-6303957D01*
X4132160Y-6280739D01*
X4347933Y-6155692D02*
G01*
X4346468Y-6317228D01*
X4347514Y-6201918D02*
G01*
X4382371Y-6167434D01*
X4405589Y-6156215D01*
X4440384Y-6156530D01*
X4463394Y-6168169D01*
X4474509Y-6203068D01*
X4473463Y-6318382D01*
X4474509Y-6203068D02*
G01*
X4509366Y-6168585D01*
X4532584Y-6157366D01*
X4567379Y-6157681D01*
X4590389Y-6169322D01*
X4601504Y-6204221D01*
X4600458Y-6319532D01*
X4678118Y-6158687D02*
G01*
X4676655Y-6320223D01*
X4677699Y-6204912D02*
G01*
X4712558Y-6170429D01*
X4735774Y-6159210D01*
X4770572Y-6159525D01*
X4793581Y-6171163D01*
X4804694Y-6206065D01*
X4803647Y-6321376D01*
X4804694Y-6206065D02*
G01*
X4839553Y-6171580D01*
X4862769Y-6160361D01*
X4897567Y-6160676D01*
X4920576Y-6172316D01*
X4931689Y-6207216D01*
X4930642Y-6322527D01*
D10*
X4818888Y-2565402D02*
G01*
X4742434Y-2565402D01*
X4818888Y-2611122D02*
G01*
X4815077Y-2604010D01*
X4807965Y-2596644D01*
X4800600Y-2593088D01*
X4789677Y-2589278D01*
X4771643Y-2589278D01*
X4760722Y-2593088D01*
X4753356Y-2596644D01*
X4745990Y-2604010D01*
X4742434Y-2611122D01*
X4742434Y-2625854D01*
X4745990Y-2632966D01*
X4753356Y-2640332D01*
X4760722Y-2643888D01*
X4771643Y-2647698D01*
X4789677Y-2647698D01*
X4800600Y-2643888D01*
X4807965Y-2640332D01*
X4815077Y-2632966D01*
X4818888Y-2625854D01*
X4818888Y-2611122D01*
X4804409Y-2671574D02*
G01*
X4807965Y-2678940D01*
X4818888Y-2689862D01*
X4742434Y-2689862D01*
X4800600Y-2717294D02*
G01*
X4804409Y-2717294D01*
X4811522Y-2721104D01*
X4815077Y-2724660D01*
X4818888Y-2732026D01*
X4818888Y-2746504D01*
X4815077Y-2753870D01*
X4811522Y-2757426D01*
X4804409Y-2760982D01*
X4797043Y-2760982D01*
X4789677Y-2757426D01*
X4778756Y-2750060D01*
X4742434Y-2713738D01*
X4742434Y-2764792D01*
X2451354Y-2527302D02*
G01*
X2374900Y-2527302D01*
X2451354Y-2573022D02*
G01*
X2447543Y-2565910D01*
X2440431Y-2558544D01*
X2433065Y-2554988D01*
X2422144Y-2551178D01*
X2404110Y-2551178D01*
X2393187Y-2554988D01*
X2385821Y-2558544D01*
X2378455Y-2565910D01*
X2374900Y-2573022D01*
X2374900Y-2587754D01*
X2378455Y-2594866D01*
X2385821Y-2602232D01*
X2393187Y-2605788D01*
X2404110Y-2609598D01*
X2422144Y-2609598D01*
X2433065Y-2605788D01*
X2440431Y-2602232D01*
X2447543Y-2594866D01*
X2451354Y-2587754D01*
X2451354Y-2573022D01*
X2451354Y-2677162D02*
G01*
X2451354Y-2640840D01*
X2418587Y-2637030D01*
X2422144Y-2640840D01*
X2425954Y-2651762D01*
X2425954Y-2662684D01*
X2422144Y-2673606D01*
X2415031Y-2680718D01*
X2404110Y-2684274D01*
X2396744Y-2684274D01*
X2385821Y-2680718D01*
X2378455Y-2673606D01*
X2374900Y-2662684D01*
X2374900Y-2651762D01*
X2378455Y-2640840D01*
X2382265Y-2637030D01*
X2389378Y-2633474D01*
X2197354Y-2527302D02*
G01*
X2120900Y-2527302D01*
X2197354Y-2573022D02*
G01*
X2193544Y-2565910D01*
X2186431Y-2558544D01*
X2179065Y-2554988D01*
X2168144Y-2551178D01*
X2150110Y-2551178D01*
X2139187Y-2554988D01*
X2131821Y-2558544D01*
X2124455Y-2565910D01*
X2120900Y-2573022D01*
X2120900Y-2587754D01*
X2124455Y-2594866D01*
X2131821Y-2602232D01*
X2139187Y-2605788D01*
X2150110Y-2609598D01*
X2168144Y-2609598D01*
X2179065Y-2605788D01*
X2186431Y-2602232D01*
X2193544Y-2594866D01*
X2197354Y-2587754D01*
X2197354Y-2573022D01*
X2197354Y-2669796D02*
G01*
X2146300Y-2633474D01*
X2146300Y-2688084D01*
X2197354Y-2669796D02*
G01*
X2120900Y-2669796D01*
X2915668Y-4652010D02*
G01*
X2923034Y-4648200D01*
X2930146Y-4641087D01*
X2933956Y-4633721D01*
X2933956Y-4619244D01*
X2930146Y-4611878D01*
X2923034Y-4604765D01*
X2915668Y-4600955D01*
X2904746Y-4597400D01*
X2886712Y-4597400D01*
X2875790Y-4600955D01*
X2868424Y-4604765D01*
X2861058Y-4611878D01*
X2857502Y-4619244D01*
X2857502Y-4633721D01*
X2861058Y-4641087D01*
X2868424Y-4648200D01*
X2875790Y-4652010D01*
X2886712Y-4652010D01*
X2886712Y-4633721D02*
G01*
X2886712Y-4652010D01*
X2933956Y-4675886D02*
G01*
X2857502Y-4675886D01*
X2933956Y-4675886D02*
G01*
X2857502Y-4726939D01*
X2933956Y-4726939D02*
G01*
X2857502Y-4726939D01*
X2933956Y-4750815D02*
G01*
X2857502Y-4750815D01*
X2933956Y-4750815D02*
G01*
X2933956Y-4776215D01*
X2930146Y-4787137D01*
X2923034Y-4794504D01*
X2915668Y-4798060D01*
X2904746Y-4801870D01*
X2886712Y-4801870D01*
X2875790Y-4798060D01*
X2868424Y-4794504D01*
X2861058Y-4787137D01*
X2857502Y-4776215D01*
X2857502Y-4750815D01*
X2705359Y-4635500D02*
G01*
X2628905Y-4664710D01*
X2705359Y-4693665D02*
G01*
X2628905Y-4664710D01*
X2705359Y-4717795D02*
G01*
X2701549Y-4721352D01*
X2705359Y-4724907D01*
X2708915Y-4721352D01*
X2705359Y-4717795D01*
X2679959Y-4721352D02*
G01*
X2628905Y-4721352D01*
X2679959Y-4749037D02*
G01*
X2628905Y-4749037D01*
X2665227Y-4749037D02*
G01*
X2676149Y-4759960D01*
X2679959Y-4767071D01*
X2679959Y-4777994D01*
X2676149Y-4785360D01*
X2665227Y-4788915D01*
X2628905Y-4788915D01*
X2438654Y-4660900D02*
G01*
X2362200Y-4660900D01*
X2438654Y-4660900D02*
G01*
X2438654Y-4693665D01*
X2434844Y-4704587D01*
X2431287Y-4708144D01*
X2424176Y-4711700D01*
X2416810Y-4711700D01*
X2409444Y-4708144D01*
X2405887Y-4704587D01*
X2402331Y-4693665D01*
X2402331Y-4660900D01*
X2402331Y-4686300D02*
G01*
X2362200Y-4711700D01*
X2438654Y-4735829D02*
G01*
X2362200Y-4786629D01*
X2438654Y-4786629D02*
G01*
X2362200Y-4735829D01*
X2197354Y-4673600D02*
G01*
X2120900Y-4673600D01*
X2197354Y-4648200D02*
G01*
X2197354Y-4699000D01*
X2197354Y-4723129D02*
G01*
X2120900Y-4773929D01*
X2197354Y-4773929D02*
G01*
X2120900Y-4723129D01*
X1912365Y-4639310D02*
G01*
X1919731Y-4635500D01*
X1926844Y-4628387D01*
X1930654Y-4621021D01*
X1930654Y-4606544D01*
X1926844Y-4599178D01*
X1919731Y-4592065D01*
X1912365Y-4588255D01*
X1901444Y-4584700D01*
X1883410Y-4584700D01*
X1872487Y-4588255D01*
X1865121Y-4592065D01*
X1857755Y-4599178D01*
X1854200Y-4606544D01*
X1854200Y-4621021D01*
X1857755Y-4628387D01*
X1865121Y-4635500D01*
X1872487Y-4639310D01*
X1883410Y-4639310D01*
X1883410Y-4621021D02*
G01*
X1883410Y-4639310D01*
X1930654Y-4663186D02*
G01*
X1854200Y-4663186D01*
X1930654Y-4663186D02*
G01*
X1854200Y-4714239D01*
X1930654Y-4714239D02*
G01*
X1854200Y-4714239D01*
X1930654Y-4738115D02*
G01*
X1854200Y-4738115D01*
X1930654Y-4738115D02*
G01*
X1930654Y-4763515D01*
X1926844Y-4774437D01*
X1919731Y-4781804D01*
X1912365Y-4785360D01*
X1901444Y-4789170D01*
X1883410Y-4789170D01*
X1872487Y-4785360D01*
X1865121Y-4781804D01*
X1857755Y-4774437D01*
X1854200Y-4763515D01*
X1854200Y-4738115D01*
X1663954Y-4572000D02*
G01*
X1587500Y-4601210D01*
X1663954Y-4630165D02*
G01*
X1587500Y-4601210D01*
X1645665Y-4708652D02*
G01*
X1653031Y-4705095D01*
X1660144Y-4697729D01*
X1663954Y-4690618D01*
X1663954Y-4675886D01*
X1660144Y-4668773D01*
X1653031Y-4661407D01*
X1645665Y-4657852D01*
X1634744Y-4654295D01*
X1616710Y-4654295D01*
X1605787Y-4657852D01*
X1598421Y-4661407D01*
X1591055Y-4668773D01*
X1587500Y-4675886D01*
X1587500Y-4690618D01*
X1591055Y-4697729D01*
X1598421Y-4705095D01*
X1605787Y-4708652D01*
X1645665Y-4787392D02*
G01*
X1653031Y-4783581D01*
X1660144Y-4776470D01*
X1663954Y-4769104D01*
X1663954Y-4754626D01*
X1660144Y-4747260D01*
X1653031Y-4739894D01*
X1645665Y-4736337D01*
X1634744Y-4732781D01*
X1616710Y-4732781D01*
X1605787Y-4736337D01*
X1598421Y-4739894D01*
X1591055Y-4747260D01*
X1587500Y-4754626D01*
X1587500Y-4769104D01*
X1591055Y-4776470D01*
X1598421Y-4783581D01*
X1605787Y-4787392D01*
D11*
X749300Y-2324100D02*
G01*
X747661Y-2662971D01*
X738238Y-4614128D02*
G01*
X736600Y-4953000D01*
X672487Y-2450729D02*
G01*
X749300Y-2324100D01*
X824885Y-2451465D01*
X661014Y-4825634D02*
G01*
X736600Y-4953000D01*
X813412Y-4826370D01*
X657801Y-4551370D02*
G01*
X646117Y-4551311D01*
X623059Y-4539772D01*
X611685Y-4528032D01*
X600113Y-4504862D01*
X600336Y-4458634D01*
X612132Y-4435830D01*
X623618Y-4424202D01*
X646785Y-4412884D01*
X669899Y-4412995D01*
X692957Y-4424537D01*
X727389Y-4447819D01*
X842401Y-4563945D01*
X843183Y-4402150D01*
X636450Y-4186516D02*
G01*
X613280Y-4197835D01*
X601428Y-4232577D01*
X601319Y-4255437D01*
X612833Y-4290291D01*
X647265Y-4313572D01*
X705121Y-4325282D01*
X762779Y-4325559D01*
X809063Y-4314352D01*
X832286Y-4291350D01*
X843887Y-4256608D01*
X843940Y-4245178D01*
X832678Y-4210580D01*
X809675Y-4187355D01*
X774933Y-4175503D01*
X763506Y-4175447D01*
X728649Y-4186963D01*
X705680Y-4209966D01*
X693828Y-4244454D01*
X693773Y-4255884D01*
X705289Y-4290738D01*
X728037Y-4313961D01*
X762779Y-4325559D01*
X787041Y-4087929D02*
G01*
X798415Y-4099415D01*
X810155Y-4088041D01*
X798527Y-4076301D01*
X787041Y-4087929D01*
X660524Y-3988003D02*
G01*
X648840Y-3987947D01*
X625782Y-3976151D01*
X614408Y-3964665D01*
X602835Y-3941495D01*
X603059Y-3895270D01*
X614855Y-3872212D01*
X626338Y-3860838D01*
X649508Y-3849265D01*
X672622Y-3849377D01*
X695680Y-3861173D01*
X730112Y-3884452D01*
X845124Y-4000324D01*
X845903Y-3838783D01*
X603984Y-3703754D02*
G01*
X615500Y-3738354D01*
X638558Y-3750149D01*
X661672Y-3750261D01*
X684842Y-3738689D01*
X696384Y-3715631D01*
X708291Y-3669461D01*
X719886Y-3634973D01*
X743112Y-3611971D01*
X766282Y-3600653D01*
X800826Y-3600818D01*
X823884Y-3612360D01*
X835510Y-3624099D01*
X846775Y-3658699D01*
X846551Y-3704927D01*
X834953Y-3739415D01*
X823213Y-3751044D01*
X800044Y-3762362D01*
X765502Y-3762194D01*
X742442Y-3750652D01*
X719439Y-3727427D01*
X708179Y-3692575D01*
X696719Y-3646291D01*
X685398Y-3623376D01*
X662340Y-3611580D01*
X639229Y-3611468D01*
X616056Y-3623040D01*
X604207Y-3657528D01*
X603984Y-3703754D01*
X686605Y-3373950D02*
G01*
X721093Y-3385548D01*
X744095Y-3408773D01*
X755357Y-3443371D01*
X755302Y-3455055D01*
X743704Y-3489543D01*
X720478Y-3512545D01*
X685878Y-3524062D01*
X674194Y-3524006D01*
X639706Y-3512154D01*
X616706Y-3488931D01*
X605188Y-3454331D01*
X605246Y-3442647D01*
X617095Y-3408159D01*
X640321Y-3385157D01*
X686605Y-3373950D01*
X744260Y-3374229D01*
X801862Y-3385936D01*
X836548Y-3409218D01*
X847811Y-3443818D01*
X847699Y-3466932D01*
X836101Y-3501674D01*
X812934Y-3512992D01*
X686970Y-3297750D02*
G01*
X848514Y-3298532D01*
X732944Y-3297974D02*
G01*
X698571Y-3263008D01*
X687252Y-3239841D01*
X687417Y-3205297D01*
X698959Y-3182238D01*
X733559Y-3170974D01*
X849127Y-3171532D01*
X733559Y-3170974D02*
G01*
X699183Y-3136011D01*
X687865Y-3112841D01*
X688032Y-3078297D01*
X699574Y-3055238D01*
X734171Y-3043976D01*
X849741Y-3044535D01*
X688566Y-2967555D02*
G01*
X850110Y-2968335D01*
X734540Y-2967776D02*
G01*
X700166Y-2932813D01*
X688847Y-2909643D01*
X689013Y-2875099D01*
X700554Y-2852041D01*
X735154Y-2840779D01*
X850722Y-2841337D01*
X735154Y-2840779D02*
G01*
X700778Y-2805813D01*
X689460Y-2782646D01*
X689627Y-2748102D01*
X701169Y-2725044D01*
X735766Y-2713781D01*
X851336Y-2714337D01*
D10*
X1642110Y-3053587D02*
G01*
X1638300Y-3046221D01*
X1631187Y-3039110D01*
X1623821Y-3035300D01*
X1609344Y-3035300D01*
X1601978Y-3039110D01*
X1594865Y-3046221D01*
X1591055Y-3053587D01*
X1587500Y-3064510D01*
X1587500Y-3082544D01*
X1591055Y-3093465D01*
X1594865Y-3100831D01*
X1601978Y-3108197D01*
X1609344Y-3111754D01*
X1623821Y-3111754D01*
X1631187Y-3108197D01*
X1638300Y-3100831D01*
X1642110Y-3093465D01*
X1717039Y-3046221D02*
G01*
X1709673Y-3039110D01*
X1698752Y-3035300D01*
X1684273Y-3035300D01*
X1673352Y-3039110D01*
X1665986Y-3046221D01*
X1665986Y-3053587D01*
X1669795Y-3060700D01*
X1673352Y-3064510D01*
X1680718Y-3068065D01*
X1702307Y-3075431D01*
X1709673Y-3078987D01*
X1713229Y-3082544D01*
X1717039Y-3089910D01*
X1717039Y-3100831D01*
X1709673Y-3108197D01*
X1698752Y-3111754D01*
X1684273Y-3111754D01*
X1673352Y-3108197D01*
X1665986Y-3100831D01*
X1762760Y-3035300D02*
G01*
X1751837Y-3039110D01*
X1744471Y-3049778D01*
X1740915Y-3068065D01*
X1740915Y-3078987D01*
X1744471Y-3097276D01*
X1751837Y-3108197D01*
X1762760Y-3111754D01*
X1770126Y-3111754D01*
X1781047Y-3108197D01*
X1788160Y-3097276D01*
X1791970Y-3078987D01*
X1791970Y-3068065D01*
X1788160Y-3049778D01*
X1781047Y-3039110D01*
X1770126Y-3035300D01*
X1762760Y-3035300D01*
X1587500Y-3296412D02*
G01*
X1587500Y-3372865D01*
X1587500Y-3296412D02*
G01*
X1616710Y-3372865D01*
X1645665Y-3296412D02*
G01*
X1616710Y-3372865D01*
X1645665Y-3296412D02*
G01*
X1645665Y-3372865D01*
X1669795Y-3296412D02*
G01*
X1669795Y-3372865D01*
X1744471Y-3307334D02*
G01*
X1737360Y-3300221D01*
X1726437Y-3296412D01*
X1711960Y-3296412D01*
X1701037Y-3300221D01*
X1693671Y-3307334D01*
X1693671Y-3314700D01*
X1697228Y-3321812D01*
X1701037Y-3325621D01*
X1708150Y-3329178D01*
X1729994Y-3336544D01*
X1737360Y-3340100D01*
X1740915Y-3343655D01*
X1744471Y-3351021D01*
X1744471Y-3361944D01*
X1737360Y-3369310D01*
X1726437Y-3372865D01*
X1711960Y-3372865D01*
X1701037Y-3369310D01*
X1693671Y-3361944D01*
X1790445Y-3296412D02*
G01*
X1779523Y-3300221D01*
X1772157Y-3310889D01*
X1768602Y-3329178D01*
X1768602Y-3340100D01*
X1772157Y-3358387D01*
X1779523Y-3369310D01*
X1790445Y-3372865D01*
X1797557Y-3372865D01*
X1808479Y-3369310D01*
X1815845Y-3358387D01*
X1819402Y-3340100D01*
X1819402Y-3329178D01*
X1815845Y-3310889D01*
X1808479Y-3300221D01*
X1797557Y-3296412D01*
X1790445Y-3296412D01*
X1604010Y-3537712D02*
G01*
X1574800Y-3614165D01*
X1604010Y-3537712D02*
G01*
X1632965Y-3614165D01*
X1585721Y-3588765D02*
G01*
X1622044Y-3588765D01*
X1657095Y-3537712D02*
G01*
X1657095Y-3614165D01*
X1657095Y-3537712D02*
G01*
X1682495Y-3537712D01*
X1693418Y-3541521D01*
X1700529Y-3548634D01*
X1704339Y-3556000D01*
X1707895Y-3566921D01*
X1707895Y-3584955D01*
X1704339Y-3595878D01*
X1700529Y-3603244D01*
X1693418Y-3610610D01*
X1682495Y-3614165D01*
X1657095Y-3614165D01*
X1786381Y-3556000D02*
G01*
X1782826Y-3548634D01*
X1775460Y-3541521D01*
X1768347Y-3537712D01*
X1753615Y-3537712D01*
X1746504Y-3541521D01*
X1739137Y-3548634D01*
X1735581Y-3556000D01*
X1731771Y-3566921D01*
X1731771Y-3584955D01*
X1735581Y-3595878D01*
X1739137Y-3603244D01*
X1746504Y-3610610D01*
X1753615Y-3614165D01*
X1768347Y-3614165D01*
X1775460Y-3610610D01*
X1782826Y-3603244D01*
X1786381Y-3595878D01*
X1574800Y-3791712D02*
G01*
X1574800Y-3868165D01*
X1620520Y-3791712D02*
G01*
X1613407Y-3795521D01*
X1606042Y-3802634D01*
X1602486Y-3810000D01*
X1598676Y-3820921D01*
X1598676Y-3838955D01*
X1602486Y-3849878D01*
X1606042Y-3857244D01*
X1613407Y-3864610D01*
X1620520Y-3868165D01*
X1635252Y-3868165D01*
X1642363Y-3864610D01*
X1649729Y-3857244D01*
X1653286Y-3849878D01*
X1657095Y-3838955D01*
X1657095Y-3820921D01*
X1653286Y-3810000D01*
X1649729Y-3802634D01*
X1642363Y-3795521D01*
X1635252Y-3791712D01*
X1620520Y-3791712D01*
X1680971Y-3806189D02*
G01*
X1688337Y-3802634D01*
X1699260Y-3791712D01*
X1699260Y-3868165D01*
X1744979Y-3791712D02*
G01*
X1734057Y-3795521D01*
X1726692Y-3806189D01*
X1723136Y-3824478D01*
X1723136Y-3835400D01*
X1726692Y-3853687D01*
X1734057Y-3864610D01*
X1744979Y-3868165D01*
X1752345Y-3868165D01*
X1763268Y-3864610D01*
X1770379Y-3853687D01*
X1774189Y-3835400D01*
X1774189Y-3824478D01*
X1770379Y-3806189D01*
X1763268Y-3795521D01*
X1752345Y-3791712D01*
X1744979Y-3791712D01*
X1587500Y-4045712D02*
G01*
X1587500Y-4122165D01*
X1587500Y-4045712D02*
G01*
X1616710Y-4122165D01*
X1645665Y-4045712D02*
G01*
X1616710Y-4122165D01*
X1645665Y-4045712D02*
G01*
X1645665Y-4122165D01*
X1691386Y-4045712D02*
G01*
X1680463Y-4049521D01*
X1673352Y-4060189D01*
X1669795Y-4078478D01*
X1669795Y-4089400D01*
X1673352Y-4107687D01*
X1680463Y-4118610D01*
X1691386Y-4122165D01*
X1698752Y-4122165D01*
X1709673Y-4118610D01*
X1717039Y-4107687D01*
X1720595Y-4089400D01*
X1720595Y-4078478D01*
X1717039Y-4060189D01*
X1709673Y-4049521D01*
X1698752Y-4045712D01*
X1691386Y-4045712D01*
X1795526Y-4056634D02*
G01*
X1788160Y-4049521D01*
X1777237Y-4045712D01*
X1762760Y-4045712D01*
X1751837Y-4049521D01*
X1744471Y-4056634D01*
X1744471Y-4064000D01*
X1748281Y-4071112D01*
X1751837Y-4074921D01*
X1759204Y-4078478D01*
X1781047Y-4085844D01*
X1788160Y-4089400D01*
X1791970Y-4092955D01*
X1795526Y-4100321D01*
X1795526Y-4111244D01*
X1788160Y-4118610D01*
X1777237Y-4122165D01*
X1762760Y-4122165D01*
X1751837Y-4118610D01*
X1744471Y-4111244D01*
X1819402Y-4045712D02*
G01*
X1819402Y-4122165D01*
X1638300Y-4310634D02*
G01*
X1631187Y-4303521D01*
X1620265Y-4299712D01*
X1605787Y-4299712D01*
X1594865Y-4303521D01*
X1587500Y-4310634D01*
X1587500Y-4318000D01*
X1591055Y-4325112D01*
X1594865Y-4328921D01*
X1601978Y-4332478D01*
X1623821Y-4339844D01*
X1631187Y-4343400D01*
X1634744Y-4346955D01*
X1638300Y-4354321D01*
X1638300Y-4365244D01*
X1631187Y-4372610D01*
X1620265Y-4376165D01*
X1605787Y-4376165D01*
X1594865Y-4372610D01*
X1587500Y-4365244D01*
X1717039Y-4318000D02*
G01*
X1713229Y-4310634D01*
X1706118Y-4303521D01*
X1698752Y-4299712D01*
X1684273Y-4299712D01*
X1676907Y-4303521D01*
X1669795Y-4310634D01*
X1665986Y-4318000D01*
X1662429Y-4328921D01*
X1662429Y-4346955D01*
X1665986Y-4357878D01*
X1669795Y-4365244D01*
X1676907Y-4372610D01*
X1684273Y-4376165D01*
X1698752Y-4376165D01*
X1706118Y-4372610D01*
X1713229Y-4365244D01*
X1717039Y-4357878D01*
X1740915Y-4299712D02*
G01*
X1740915Y-4376165D01*
X1740915Y-4376165D02*
G01*
X1784604Y-4376165D01*
X1808479Y-4299712D02*
G01*
X1808479Y-4376165D01*
X1859534Y-4299712D02*
G01*
X1808479Y-4350765D01*
X1826768Y-4332478D02*
G01*
X1859534Y-4376165D01*
D11*
X3060700Y-2032000D02*
G01*
X4040700Y-2032000D01*
X2933700Y-1955800D02*
G01*
X3060700Y-2032000D01*
X2933700Y-2108200D01*
X4167700Y-1955800D02*
G01*
X4040700Y-2032000D01*
X4167700Y-2108200D01*
X2889250Y-1771142D02*
G01*
X2877565Y-1805686D01*
X2854452Y-1828800D01*
X2819908Y-1840229D01*
X2808224Y-1840229D01*
X2773679Y-1828800D01*
X2750565Y-1805686D01*
X2739136Y-1771142D01*
X2739136Y-1759457D01*
X2750565Y-1724913D01*
X2773679Y-1701800D01*
X2808224Y-1690370D01*
X2819908Y-1690370D01*
X2854452Y-1701800D01*
X2877565Y-1724913D01*
X2889250Y-1771142D01*
X2889250Y-1828800D01*
X2877565Y-1886457D01*
X2854452Y-1921255D01*
X2819908Y-1932686D01*
X2796793Y-1932686D01*
X2762250Y-1921255D01*
X2750565Y-1898142D01*
X2976879Y-1875028D02*
G01*
X2965450Y-1886457D01*
X2976879Y-1898142D01*
X2988309Y-1886457D01*
X2976879Y-1875028D01*
X3122422Y-1690370D02*
G01*
X3087624Y-1701800D01*
X3076193Y-1724913D01*
X3076193Y-1748028D01*
X3087624Y-1771142D01*
X3110738Y-1782571D01*
X3156965Y-1794255D01*
X3191509Y-1805686D01*
X3214624Y-1828800D01*
X3226308Y-1851913D01*
X3226308Y-1886457D01*
X3214624Y-1909571D01*
X3203193Y-1921255D01*
X3168650Y-1932686D01*
X3122422Y-1932686D01*
X3087624Y-1921255D01*
X3076193Y-1909571D01*
X3064509Y-1886457D01*
X3064509Y-1851913D01*
X3076193Y-1828800D01*
X3099308Y-1805686D01*
X3133852Y-1794255D01*
X3180079Y-1782571D01*
X3203193Y-1771142D01*
X3214624Y-1748028D01*
X3214624Y-1724913D01*
X3203193Y-1701800D01*
X3168650Y-1690370D01*
X3122422Y-1690370D01*
X3371850Y-1690370D02*
G01*
X3337052Y-1701800D01*
X3313938Y-1736344D01*
X3302508Y-1794255D01*
X3302508Y-1828800D01*
X3313938Y-1886457D01*
X3337052Y-1921255D01*
X3371850Y-1932686D01*
X3394709Y-1932686D01*
X3429508Y-1921255D01*
X3452622Y-1886457D01*
X3464052Y-1828800D01*
X3464052Y-1794255D01*
X3452622Y-1736344D01*
X3429508Y-1701800D01*
X3394709Y-1690370D01*
X3371850Y-1690370D01*
X3609593Y-1690370D02*
G01*
X3575050Y-1701800D01*
X3551936Y-1736344D01*
X3540252Y-1794255D01*
X3540252Y-1828800D01*
X3551936Y-1886457D01*
X3575050Y-1921255D01*
X3609593Y-1932686D01*
X3632708Y-1932686D01*
X3667252Y-1921255D01*
X3690365Y-1886457D01*
X3702050Y-1828800D01*
X3702050Y-1794255D01*
X3690365Y-1736344D01*
X3667252Y-1701800D01*
X3632708Y-1690370D01*
X3609593Y-1690370D01*
X3778250Y-1771142D02*
G01*
X3778250Y-1932686D01*
X3778250Y-1817370D02*
G01*
X3812793Y-1782571D01*
X3835908Y-1771142D01*
X3870452Y-1771142D01*
X3893565Y-1782571D01*
X3905250Y-1817370D01*
X3905250Y-1932686D01*
X3905250Y-1817370D02*
G01*
X3939793Y-1782571D01*
X3962908Y-1771142D01*
X3997452Y-1771142D01*
X4020565Y-1782571D01*
X4032250Y-1817370D01*
X4032250Y-1932686D01*
X4108450Y-1771142D02*
G01*
X4108450Y-1932686D01*
X4108450Y-1817370D02*
G01*
X4142993Y-1782571D01*
X4166108Y-1771142D01*
X4200652Y-1771142D01*
X4223765Y-1782571D01*
X4235450Y-1817370D01*
X4235450Y-1932686D01*
X4235450Y-1817370D02*
G01*
X4269993Y-1782571D01*
X4293108Y-1771142D01*
X4327652Y-1771142D01*
X4350765Y-1782571D01*
X4362450Y-1817370D01*
X4362450Y-1932686D01*
X6223000Y-2032000D02*
G01*
X5243083Y-2044725D01*
X6350977Y-2106543D02*
G01*
X6223000Y-2032000D01*
X6348999Y-1954156D01*
X5117084Y-2122568D02*
G01*
X5243083Y-2044725D01*
X5115102Y-1970181D01*
X5068211Y-1786079D02*
G01*
X5056977Y-1820773D01*
X5034165Y-1844184D01*
X4999776Y-1856318D01*
X4988349Y-1856465D01*
X4953401Y-1845233D01*
X4929990Y-1822422D01*
X4918110Y-1788030D01*
X4917960Y-1776346D01*
X4928941Y-1741657D01*
X4951752Y-1718243D01*
X4986398Y-1706364D01*
X4997828Y-1706214D01*
X5032517Y-1717197D01*
X5055930Y-1740009D01*
X5068211Y-1786079D01*
X5068961Y-1843732D01*
X5058026Y-1901537D01*
X5035367Y-1936633D01*
X5000975Y-1948510D01*
X4977861Y-1948812D01*
X4943172Y-1937832D01*
X4931189Y-1914870D01*
X5157185Y-1888820D02*
G01*
X5145905Y-1900397D01*
X5157485Y-1911931D01*
X5169016Y-1900097D01*
X5157185Y-1888820D01*
X5300317Y-1702287D02*
G01*
X5265922Y-1714164D01*
X5254541Y-1737428D01*
X5254840Y-1760540D01*
X5266824Y-1783501D01*
X5289831Y-1794634D01*
X5336207Y-1805716D01*
X5371150Y-1816694D01*
X5394561Y-1839506D01*
X5406290Y-1862467D01*
X5406740Y-1897009D01*
X5395610Y-1920270D01*
X5384081Y-1932104D01*
X5349687Y-1943981D01*
X5303464Y-1944583D01*
X5268772Y-1933602D01*
X5256938Y-1922071D01*
X5245209Y-1899107D01*
X5244762Y-1864565D01*
X5255889Y-1841306D01*
X5278701Y-1817893D01*
X5313095Y-1806016D01*
X5359166Y-1793732D01*
X5382130Y-1782003D01*
X5393514Y-1758739D01*
X5393212Y-1735627D01*
X5381231Y-1712668D01*
X5346539Y-1701688D01*
X5300317Y-1702287D01*
X5549724Y-1699049D02*
G01*
X5515076Y-1710928D01*
X5492417Y-1746023D01*
X5481736Y-1803826D01*
X5482186Y-1838368D01*
X5494362Y-1895871D01*
X5517926Y-1930366D01*
X5552869Y-1941344D01*
X5575983Y-1941042D01*
X5610374Y-1929165D01*
X5633034Y-1894070D01*
X5643714Y-1836270D01*
X5643267Y-1801728D01*
X5631088Y-1744223D01*
X5607524Y-1709727D01*
X5572836Y-1698746D01*
X5549724Y-1699049D01*
X5787448Y-1695960D02*
G01*
X5753054Y-1707837D01*
X5730394Y-1742932D01*
X5719460Y-1800738D01*
X5719909Y-1835279D01*
X5732340Y-1892780D01*
X5755904Y-1927275D01*
X5790592Y-1938256D01*
X5813706Y-1937956D01*
X5848098Y-1926079D01*
X5870757Y-1890984D01*
X5881692Y-1833178D01*
X5881245Y-1798637D01*
X5868812Y-1741136D01*
X5845248Y-1706641D01*
X5810559Y-1695660D01*
X5787448Y-1695960D01*
X5957138Y-1774535D02*
G01*
X5959236Y-1936066D01*
X5957737Y-1820760D02*
G01*
X5991826Y-1785515D01*
X6014791Y-1773786D01*
X6049332Y-1773339D01*
X6072593Y-1784466D01*
X6084727Y-1819109D01*
X6086226Y-1934418D01*
X6084727Y-1819109D02*
G01*
X6118816Y-1783867D01*
X6141780Y-1772137D01*
X6176322Y-1771690D01*
X6199581Y-1782818D01*
X6211717Y-1817461D01*
X6213213Y-1932767D01*
X6287310Y-1770247D02*
G01*
X6289408Y-1931779D01*
X6287909Y-1816473D02*
G01*
X6321999Y-1781228D01*
X6344963Y-1769498D01*
X6379504Y-1769051D01*
X6402765Y-1780179D01*
X6414899Y-1814822D01*
X6416398Y-1930128D01*
X6414899Y-1814822D02*
G01*
X6448988Y-1779579D01*
X6471953Y-1767850D01*
X6506494Y-1767400D01*
X6529753Y-1778530D01*
X6541889Y-1813173D01*
X6543385Y-1928479D01*
D10*
X4541265Y-2607310D02*
G01*
X4548631Y-2603500D01*
X4555743Y-2596387D01*
X4559554Y-2589021D01*
X4559554Y-2574544D01*
X4555743Y-2567178D01*
X4548631Y-2560065D01*
X4541265Y-2556255D01*
X4530343Y-2552700D01*
X4512309Y-2552700D01*
X4501388Y-2556255D01*
X4494022Y-2560065D01*
X4486656Y-2567178D01*
X4483100Y-2574544D01*
X4483100Y-2589021D01*
X4486656Y-2596387D01*
X4494022Y-2603500D01*
X4501388Y-2607310D01*
X4512309Y-2607310D01*
X4512309Y-2589021D02*
G01*
X4512309Y-2607310D01*
X4559554Y-2631186D02*
G01*
X4483100Y-2631186D01*
X4559554Y-2631186D02*
G01*
X4483100Y-2682239D01*
X4559554Y-2682239D02*
G01*
X4483100Y-2682239D01*
X4559554Y-2706115D02*
G01*
X4483100Y-2706115D01*
X4559554Y-2706115D02*
G01*
X4559554Y-2731515D01*
X4555743Y-2742437D01*
X4548631Y-2749804D01*
X4541265Y-2753360D01*
X4530343Y-2757170D01*
X4512309Y-2757170D01*
X4501388Y-2753360D01*
X4494022Y-2749804D01*
X4486656Y-2742437D01*
X4483100Y-2731515D01*
X4483100Y-2706115D01*
X4292854Y-2552700D02*
G01*
X4216400Y-2581910D01*
X4292854Y-2610865D02*
G01*
X4216400Y-2581910D01*
X4274565Y-2689352D02*
G01*
X4281931Y-2685795D01*
X4289043Y-2678429D01*
X4292854Y-2671318D01*
X4292854Y-2656586D01*
X4289043Y-2649473D01*
X4281931Y-2642107D01*
X4274565Y-2638552D01*
X4263643Y-2634995D01*
X4245609Y-2634995D01*
X4234688Y-2638552D01*
X4227322Y-2642107D01*
X4219956Y-2649473D01*
X4216400Y-2656586D01*
X4216400Y-2671318D01*
X4219956Y-2678429D01*
X4227322Y-2685795D01*
X4234688Y-2689352D01*
X4274565Y-2768092D02*
G01*
X4281931Y-2764281D01*
X4289043Y-2757170D01*
X4292854Y-2749804D01*
X4292854Y-2735326D01*
X4289043Y-2727960D01*
X4281931Y-2720594D01*
X4274565Y-2717037D01*
X4263643Y-2713481D01*
X4245609Y-2713481D01*
X4234688Y-2717037D01*
X4227322Y-2720594D01*
X4219956Y-2727960D01*
X4216400Y-2735326D01*
X4216400Y-2749804D01*
X4219956Y-2757170D01*
X4227322Y-2764281D01*
X4234688Y-2768092D01*
X3311143Y-2463800D02*
G01*
X3303777Y-2467610D01*
X3296665Y-2474721D01*
X3292856Y-2482087D01*
X3289300Y-2493010D01*
X3289300Y-2511044D01*
X3292856Y-2521965D01*
X3296665Y-2529331D01*
X3303777Y-2536697D01*
X3311143Y-2540254D01*
X3325622Y-2540254D01*
X3332988Y-2536697D01*
X3340100Y-2529331D01*
X3343909Y-2521965D01*
X3347465Y-2511044D01*
X3347465Y-2493010D01*
X3343909Y-2482087D01*
X3340100Y-2474721D01*
X3332988Y-2467610D01*
X3325622Y-2463800D01*
X3311143Y-2463800D01*
X3371595Y-2463800D02*
G01*
X3371595Y-2540254D01*
X3371595Y-2540254D02*
G01*
X3415029Y-2540254D01*
X3439159Y-2463800D02*
G01*
X3439159Y-2540254D01*
X3439159Y-2463800D02*
G01*
X3486404Y-2463800D01*
X3439159Y-2500121D02*
G01*
X3468115Y-2500121D01*
X3439159Y-2540254D02*
G01*
X3486404Y-2540254D01*
X3510279Y-2463800D02*
G01*
X3510279Y-2540254D01*
X3510279Y-2463800D02*
G01*
X3535934Y-2463800D01*
X3546856Y-2467610D01*
X3553968Y-2474721D01*
X3557777Y-2482087D01*
X3561334Y-2493010D01*
X3561334Y-2511044D01*
X3557777Y-2521965D01*
X3553968Y-2529331D01*
X3546856Y-2536697D01*
X3535934Y-2540254D01*
X3510279Y-2540254D01*
X3641343Y-2463800D02*
G01*
X3641343Y-2540254D01*
X3669029Y-2482087D02*
G01*
X3669029Y-2478278D01*
X3672586Y-2471165D01*
X3676141Y-2467610D01*
X3683508Y-2463800D01*
X3697986Y-2463800D01*
X3705352Y-2467610D01*
X3708908Y-2471165D01*
X3712463Y-2478278D01*
X3712463Y-2485644D01*
X3708908Y-2493010D01*
X3701541Y-2503931D01*
X3665220Y-2540254D01*
X3716274Y-2540254D01*
X3794759Y-2482087D02*
G01*
X3791204Y-2474721D01*
X3783838Y-2467610D01*
X3776472Y-2463800D01*
X3761993Y-2463800D01*
X3754627Y-2467610D01*
X3747515Y-2474721D01*
X3743959Y-2482087D01*
X3740150Y-2493010D01*
X3740150Y-2511044D01*
X3743959Y-2521965D01*
X3747515Y-2529331D01*
X3754627Y-2536697D01*
X3761993Y-2540254D01*
X3776472Y-2540254D01*
X3783838Y-2536697D01*
X3791204Y-2529331D01*
X3794759Y-2521965D01*
D11*
X12700Y-2146300D02*
G01*
X28298Y-2676659D01*
X86001Y-4638540D02*
G01*
X101600Y-5168900D01*
X-59733Y-2275484D02*
G01*
X12700Y-2146300D01*
X92600Y-2271003D01*
X21699Y-5044196D02*
G01*
X101600Y-5168900D01*
X174033Y-5039715D01*
X168846Y-2746367D02*
G01*
X172580Y-2873314D01*
X78386Y-2806966D01*
X79402Y-2841495D01*
X68404Y-2864942D01*
X57315Y-2876702D01*
X23129Y-2889397D01*
X25Y-2890078D01*
X-35100Y-2879420D01*
X-58884Y-2856997D01*
X-71325Y-2822803D01*
X-72341Y-2788274D01*
X-61937Y-2753156D01*
X-50596Y-2741386D01*
X-27835Y-2729029D01*
X177203Y-3030471D02*
G01*
X164754Y-2996023D01*
X129547Y-2973936D01*
X71323Y-2964213D01*
X36794Y-2965229D01*
X-20502Y-2978348D01*
X-54604Y-3002475D01*
X-65008Y-3037593D01*
X-64335Y-3060445D01*
X-51887Y-3094890D01*
X-16426Y-3116973D01*
X41544Y-3126701D01*
X76072Y-3125688D01*
X133624Y-3112559D01*
X167472Y-3088439D01*
X177876Y-3053321D01*
X177203Y-3030471D01*
X-2080Y-3215906D02*
G01*
X-13848Y-3204565D01*
X-25184Y-3216587D01*
X-13169Y-3227669D01*
X-2080Y-3215906D01*
X127784Y-3311446D02*
G01*
X139463Y-3311100D01*
X162902Y-3321847D01*
X174665Y-3332937D01*
X186768Y-3355703D01*
X188127Y-3401913D01*
X177383Y-3425352D01*
X166301Y-3437366D01*
X143532Y-3449472D01*
X120429Y-3450150D01*
X96989Y-3439406D01*
X61526Y-3417326D01*
X-57137Y-3305195D01*
X-52387Y-3466668D01*
X192742Y-3558816D02*
G01*
X196476Y-3685760D01*
X102283Y-3619413D01*
X103299Y-3653942D01*
X92298Y-3677391D01*
X81211Y-3689151D01*
X47025Y-3701846D01*
X23921Y-3702524D01*
X-11206Y-3691869D01*
X-34988Y-3669446D01*
X-47429Y-3635253D01*
X-48445Y-3600724D01*
X-38044Y-3565603D01*
X-26700Y-3553835D01*
X-3939Y-3541476D01*
X122735Y-3926032D02*
G01*
X87863Y-3915366D01*
X64081Y-3892943D01*
X51640Y-3858750D01*
X51302Y-3847325D01*
X61706Y-3812207D01*
X84129Y-3788422D01*
X118323Y-3775981D01*
X130002Y-3775638D01*
X164866Y-3786047D01*
X188650Y-3808473D01*
X201099Y-3842918D01*
X201434Y-3854345D01*
X191025Y-3889209D01*
X168600Y-3912994D01*
X122735Y-3926032D01*
X65102Y-3927726D01*
X7127Y-3917741D01*
X-28336Y-3895661D01*
X-40777Y-3861468D01*
X-41455Y-3838364D01*
X-31046Y-3803500D01*
X-8285Y-3791140D01*
X124975Y-4002199D02*
G01*
X-36497Y-4006946D01*
X78767Y-4003558D02*
G01*
X114566Y-4037063D01*
X126672Y-4059831D01*
X127688Y-4094360D01*
X116941Y-4117799D01*
X82501Y-4130502D01*
X-32763Y-4133893D01*
X82501Y-4130502D02*
G01*
X118300Y-4164007D01*
X130406Y-4186775D01*
X131422Y-4221304D01*
X120675Y-4244746D01*
X86235Y-4257448D01*
X-29029Y-4260837D01*
X134683Y-4332254D02*
G01*
X-26789Y-4337004D01*
X88475Y-4333615D02*
G01*
X124274Y-4367121D01*
X136380Y-4389889D01*
X137396Y-4424418D01*
X126649Y-4447857D01*
X92209Y-4460560D01*
X-23055Y-4463950D01*
X92209Y-4460560D02*
G01*
X128008Y-4494065D01*
X140114Y-4516833D01*
X141127Y-4551362D01*
X130383Y-4574804D01*
X95943Y-4587504D01*
X-19321Y-4590895D01*
D12*
X1371602Y-3735834D02*
G01*
X1480568Y-3735834D01*
X1371602Y-3735834D02*
G01*
X1371602Y-3689098D01*
X1376682Y-3673604D01*
X1381762Y-3668270D01*
X1392176Y-3663190D01*
X1407924Y-3663190D01*
X1418338Y-3668270D01*
X1423418Y-3673604D01*
X1428752Y-3689098D01*
X1428752Y-3735834D01*
X1371602Y-3566416D02*
G01*
X1371602Y-3618486D01*
X1418338Y-3623566D01*
X1413004Y-3618486D01*
X1407924Y-3602738D01*
X1407924Y-3587244D01*
X1413004Y-3571750D01*
X1423418Y-3561336D01*
X1438912Y-3556002D01*
X1449326Y-3556002D01*
X1465074Y-3561336D01*
X1475488Y-3571750D01*
X1480568Y-3587244D01*
X1480568Y-3602738D01*
X1475488Y-3618486D01*
X1470154Y-3623566D01*
X1459740Y-3628900D01*
X1993900Y-4940300D02*
G01*
X1993900Y-5049265D01*
X1993900Y-4940300D02*
G01*
X2040636Y-4940300D01*
X2056129Y-4945379D01*
X2061463Y-4950460D01*
X2066544Y-4960873D01*
X2066544Y-4976621D01*
X2061463Y-4987036D01*
X2056129Y-4992115D01*
X2040636Y-4997450D01*
X1993900Y-4997450D01*
X2152904Y-4940300D02*
G01*
X2100834Y-5012944D01*
X2178812Y-5012944D01*
X2152904Y-4940300D02*
G01*
X2152904Y-5049265D01*
X4749797Y-3456431D02*
G01*
X4858763Y-3456431D01*
X4749797Y-3456431D02*
G01*
X4749797Y-3409695D01*
X4754877Y-3394202D01*
X4759957Y-3388868D01*
X4770371Y-3383787D01*
X4780785Y-3383787D01*
X4791199Y-3388868D01*
X4796533Y-3394202D01*
X4801613Y-3409695D01*
X4801613Y-3456431D01*
X4801613Y-3420110D02*
G01*
X4858763Y-3383787D01*
X4749797Y-3287013D02*
G01*
X4749797Y-3339084D01*
X4796533Y-3344163D01*
X4791199Y-3339084D01*
X4786119Y-3323336D01*
X4786119Y-3307842D01*
X4791199Y-3292347D01*
X4801613Y-3281934D01*
X4817107Y-3276600D01*
X4827521Y-3276600D01*
X4843269Y-3281934D01*
X4853683Y-3292347D01*
X4858763Y-3307842D01*
X4858763Y-3323336D01*
X4853683Y-3339084D01*
X4848349Y-3344163D01*
X4837935Y-3349497D01*
X3886200Y-4660900D02*
G01*
X3886200Y-4769865D01*
X3886200Y-4660900D02*
G01*
X3922522Y-4660900D01*
X3938270Y-4665979D01*
X3948429Y-4676394D01*
X3953763Y-4686807D01*
X3958843Y-4702302D01*
X3958843Y-4728210D01*
X3953763Y-4743957D01*
X3948429Y-4754371D01*
X3938270Y-4764786D01*
X3922522Y-4769865D01*
X3886200Y-4769865D01*
X3993134Y-4681473D02*
G01*
X4003547Y-4676394D01*
X4019295Y-4660900D01*
X4019295Y-4769865D01*
X5677402Y-4615434D02*
G01*
X5666988Y-4620768D01*
X5656574Y-4631181D01*
X5651494Y-4641342D01*
X5651494Y-4662170D01*
X5656574Y-4672584D01*
X5666988Y-4682997D01*
X5677402Y-4688331D01*
X5692896Y-4693412D01*
X5718804Y-4693412D01*
X5734552Y-4688331D01*
X5744966Y-4682997D01*
X5755380Y-4672584D01*
X5760460Y-4662170D01*
X5760460Y-4641342D01*
X5755380Y-4631181D01*
X5744966Y-4620768D01*
X5734552Y-4615434D01*
X5677402Y-4576063D02*
G01*
X5672068Y-4576063D01*
X5661654Y-4570729D01*
X5656574Y-4565650D01*
X5651494Y-4555236D01*
X5651494Y-4534407D01*
X5656574Y-4523994D01*
X5661654Y-4518913D01*
X5672068Y-4513579D01*
X5682482Y-4513579D01*
X5692896Y-4518913D01*
X5708644Y-4529328D01*
X5760460Y-4581144D01*
X5760460Y-4508500D01*
X5359400Y-3149602D02*
G01*
X5359400Y-3258568D01*
X5359400Y-3149602D02*
G01*
X5406136Y-3149602D01*
X5421629Y-3154682D01*
X5426963Y-3159762D01*
X5432043Y-3170176D01*
X5432043Y-3180590D01*
X5426963Y-3191004D01*
X5421629Y-3196338D01*
X5406136Y-3201418D01*
X5359400Y-3201418D01*
X5395722Y-3201418D02*
G01*
X5432043Y-3258568D01*
X5528818Y-3165096D02*
G01*
X5523484Y-3154682D01*
X5507990Y-3149602D01*
X5497575Y-3149602D01*
X5482081Y-3154682D01*
X5471668Y-3170176D01*
X5466334Y-3196338D01*
X5466334Y-3222246D01*
X5471668Y-3243074D01*
X5482081Y-3253488D01*
X5497575Y-3258568D01*
X5502909Y-3258568D01*
X5518404Y-3253488D01*
X5528818Y-3243074D01*
X5533897Y-3227326D01*
X5533897Y-3222246D01*
X5528818Y-3206752D01*
X5518404Y-3196338D01*
X5502909Y-3191004D01*
X5497575Y-3191004D01*
X5482081Y-3196338D01*
X5471668Y-3206752D01*
X5466334Y-3222246D01*
X5372100Y-2908297D02*
G01*
X5372100Y-3017263D01*
X5372100Y-2908297D02*
G01*
X5418836Y-2908297D01*
X5434329Y-2913377D01*
X5439663Y-2918457D01*
X5444743Y-2928871D01*
X5444743Y-2939285D01*
X5439663Y-2949699D01*
X5434329Y-2955033D01*
X5418836Y-2960113D01*
X5372100Y-2960113D01*
X5408422Y-2960113D02*
G01*
X5444743Y-3017263D01*
X5484368Y-2934205D02*
G01*
X5484368Y-2928871D01*
X5489447Y-2918457D01*
X5494781Y-2913377D01*
X5505195Y-2908297D01*
X5525770Y-2908297D01*
X5536184Y-2913377D01*
X5541518Y-2918457D01*
X5546597Y-2928871D01*
X5546597Y-2939285D01*
X5541518Y-2949699D01*
X5531104Y-2965447D01*
X5479034Y-3017263D01*
X5551931Y-3017263D01*
X4521194Y-3418331D02*
G01*
X4630160Y-3418331D01*
X4521194Y-3418331D02*
G01*
X4521194Y-3371595D01*
X4526274Y-3356102D01*
X4531354Y-3350768D01*
X4541768Y-3345687D01*
X4552182Y-3345687D01*
X4562596Y-3350768D01*
X4567930Y-3356102D01*
X4573010Y-3371595D01*
X4573010Y-3418331D01*
X4573010Y-3382010D02*
G01*
X4630160Y-3345687D01*
X4521194Y-3238500D02*
G01*
X4630160Y-3290570D01*
X4521194Y-3311397D02*
G01*
X4521194Y-3238500D01*
X3937000Y-4889500D02*
G01*
X3937000Y-4998465D01*
X3937000Y-4889500D02*
G01*
X3983736Y-4889500D01*
X3999229Y-4894579D01*
X4004563Y-4899660D01*
X4009643Y-4910073D01*
X4009643Y-4920487D01*
X4004563Y-4930902D01*
X3999229Y-4936236D01*
X3983736Y-4941315D01*
X3937000Y-4941315D01*
X3973322Y-4941315D02*
G01*
X4009643Y-4998465D01*
X4043934Y-4910073D02*
G01*
X4054347Y-4904994D01*
X4070095Y-4889500D01*
X4070095Y-4998465D01*
X4902205Y-3937000D02*
G01*
X4902205Y-4045965D01*
X4902205Y-3937000D02*
G01*
X4948941Y-3937000D01*
X4964435Y-3942079D01*
X4969769Y-3947160D01*
X4974849Y-3957573D01*
X4974849Y-3967987D01*
X4969769Y-3978402D01*
X4964435Y-3983736D01*
X4948941Y-3988815D01*
X4902205Y-3988815D01*
X4938527Y-3988815D02*
G01*
X4974849Y-4045965D01*
X5061209Y-3937000D02*
G01*
X5009139Y-4009644D01*
X5087117Y-4009644D01*
X5061209Y-3937000D02*
G01*
X5061209Y-4045965D01*
X1792475Y-2642110D02*
G01*
X1787141Y-2631696D01*
X1776727Y-2621282D01*
X1766567Y-2616202D01*
X1745739Y-2616202D01*
X1735325Y-2621282D01*
X1724911Y-2631696D01*
X1719577Y-2642110D01*
X1714497Y-2657604D01*
X1714497Y-2683512D01*
X1719577Y-2699260D01*
X1724911Y-2709674D01*
X1735325Y-2720088D01*
X1745739Y-2725168D01*
X1766567Y-2725168D01*
X1776727Y-2720088D01*
X1787141Y-2709674D01*
X1792475Y-2699260D01*
X1888995Y-2631696D02*
G01*
X1883915Y-2621282D01*
X1868167Y-2616202D01*
X1858007Y-2616202D01*
X1842259Y-2621282D01*
X1831845Y-2636776D01*
X1826765Y-2662938D01*
X1826765Y-2688846D01*
X1831845Y-2709674D01*
X1842259Y-2720088D01*
X1858007Y-2725168D01*
X1863087Y-2725168D01*
X1878581Y-2720088D01*
X1888995Y-2709674D01*
X1894329Y-2693926D01*
X1894329Y-2688846D01*
X1888995Y-2673352D01*
X1878581Y-2662938D01*
X1863087Y-2657604D01*
X1858007Y-2657604D01*
X1842259Y-2662938D01*
X1831845Y-2673352D01*
X1826765Y-2688846D01*
X5271010Y-3630421D02*
G01*
X5260596Y-3635755D01*
X5250182Y-3646170D01*
X5245102Y-3656329D01*
X5245102Y-3677157D01*
X5250182Y-3687571D01*
X5260596Y-3697986D01*
X5271010Y-3703320D01*
X5286758Y-3708400D01*
X5312666Y-3708400D01*
X5328160Y-3703320D01*
X5338574Y-3697986D01*
X5348988Y-3687571D01*
X5354068Y-3677157D01*
X5354068Y-3656329D01*
X5348988Y-3646170D01*
X5338574Y-3635755D01*
X5328160Y-3630421D01*
X5245102Y-3533902D02*
G01*
X5245102Y-3585718D01*
X5291838Y-3591052D01*
X5286758Y-3585718D01*
X5281424Y-3570223D01*
X5281424Y-3554729D01*
X5286758Y-3538981D01*
X5296918Y-3528568D01*
X5312666Y-3523487D01*
X5323080Y-3523487D01*
X5338574Y-3528568D01*
X5348988Y-3538981D01*
X5354068Y-3554729D01*
X5354068Y-3570223D01*
X5348988Y-3585718D01*
X5343908Y-3591052D01*
X5333494Y-3596131D01*
X4636005Y-4945631D02*
G01*
X4625591Y-4950965D01*
X4615177Y-4961379D01*
X4610097Y-4971539D01*
X4610097Y-4992367D01*
X4615177Y-5002781D01*
X4625591Y-5013195D01*
X4636005Y-5018529D01*
X4651499Y-5023609D01*
X4677407Y-5023609D01*
X4693155Y-5018529D01*
X4703569Y-5013195D01*
X4713983Y-5002781D01*
X4719063Y-4992367D01*
X4719063Y-4971539D01*
X4713983Y-4961379D01*
X4703569Y-4950965D01*
X4693155Y-4945631D01*
X4610097Y-4900927D02*
G01*
X4610097Y-4843777D01*
X4651499Y-4875019D01*
X4651499Y-4859525D01*
X4656833Y-4849111D01*
X4661913Y-4843777D01*
X4677407Y-4838697D01*
X4687821Y-4838697D01*
X4703569Y-4843777D01*
X4713983Y-4854191D01*
X4719063Y-4869939D01*
X4719063Y-4885433D01*
X4713983Y-4900927D01*
X4708649Y-4906261D01*
X4698235Y-4911341D01*
X5753610Y-3565397D02*
G01*
X5743196Y-3570731D01*
X5732782Y-3581145D01*
X5727702Y-3591305D01*
X5727702Y-3612134D01*
X5732782Y-3622547D01*
X5743196Y-3632962D01*
X5753610Y-3638295D01*
X5769358Y-3643376D01*
X5795266Y-3643376D01*
X5810760Y-3638295D01*
X5821174Y-3632962D01*
X5831588Y-3622547D01*
X5836668Y-3612134D01*
X5836668Y-3591305D01*
X5831588Y-3581145D01*
X5821174Y-3570731D01*
X5810760Y-3565397D01*
X5748530Y-3531107D02*
G01*
X5743196Y-3520694D01*
X5727702Y-3505200D01*
X5836668Y-3505200D01*
X5443217Y-4719065D02*
G01*
X5484873Y-4610100D01*
X5443217Y-4719065D02*
G01*
X5401815Y-4610100D01*
X5469379Y-4646421D02*
G01*
X5417309Y-4646421D01*
X5367525Y-4719065D02*
G01*
X5367525Y-4610100D01*
X5367525Y-4719065D02*
G01*
X5325869Y-4610100D01*
X5284213Y-4719065D02*
G01*
X5325869Y-4610100D01*
X5284213Y-4719065D02*
G01*
X5284213Y-4610100D01*
X5177279Y-4703571D02*
G01*
X5187693Y-4713986D01*
X5203187Y-4719065D01*
X5224015Y-4719065D01*
X5239763Y-4713986D01*
X5249923Y-4703571D01*
X5249923Y-4693157D01*
X5244843Y-4682744D01*
X5239763Y-4677663D01*
X5229349Y-4672329D01*
X5198107Y-4661915D01*
X5187693Y-4656836D01*
X5182613Y-4651502D01*
X5177279Y-4641087D01*
X5177279Y-4625594D01*
X5187693Y-4615179D01*
X5203187Y-4610100D01*
X5224015Y-4610100D01*
X5239763Y-4615179D01*
X5249923Y-4625594D01*
X5142989Y-4698237D02*
G01*
X5132575Y-4703571D01*
X5117081Y-4719065D01*
X5117081Y-4610100D01*
X5082791Y-4698237D02*
G01*
X5072377Y-4703571D01*
X5056883Y-4719065D01*
X5056883Y-4610100D01*
X5022593Y-4698237D02*
G01*
X5012179Y-4703571D01*
X4996431Y-4719065D01*
X4996431Y-4610100D01*
X4889497Y-4719065D02*
G01*
X4941313Y-4610100D01*
X4962141Y-4719065D02*
G01*
X4889497Y-4719065D01*
X6096000Y-4279900D02*
G01*
X6096000Y-4389120D01*
X6096000Y-4279900D02*
G01*
X6163563Y-4279900D01*
X6096000Y-4331970D02*
G01*
X6137656Y-4331970D01*
X6197854Y-4279900D02*
G01*
X6197854Y-4389120D01*
X6197854Y-4389120D02*
G01*
X6260084Y-4389120D01*
X6336029Y-4279900D02*
G01*
X6294374Y-4389120D01*
X6336029Y-4279900D02*
G01*
X6377686Y-4389120D01*
X6310122Y-4352544D02*
G01*
X6361938Y-4352544D01*
X6484620Y-4295394D02*
G01*
X6474206Y-4284979D01*
X6458711Y-4279900D01*
X6437884Y-4279900D01*
X6422390Y-4284979D01*
X6411975Y-4295394D01*
X6411975Y-4305807D01*
X6417056Y-4316221D01*
X6422390Y-4321555D01*
X6432550Y-4326636D01*
X6463791Y-4337050D01*
X6474206Y-4342129D01*
X6479540Y-4347463D01*
X6484620Y-4357878D01*
X6484620Y-4373371D01*
X6474206Y-4383786D01*
X6458711Y-4389120D01*
X6437884Y-4389120D01*
X6422390Y-4383786D01*
X6411975Y-4373371D01*
X6518909Y-4279900D02*
G01*
X6518909Y-4389120D01*
X6591554Y-4279900D02*
G01*
X6591554Y-4389120D01*
X6518909Y-4331970D02*
G01*
X6591554Y-4331970D01*
X6108700Y-2921000D02*
G01*
X6108700Y-3030220D01*
X6108700Y-2921000D02*
G01*
X6155436Y-2921000D01*
X6170929Y-2926079D01*
X6176263Y-2931413D01*
X6181343Y-2941828D01*
X6181343Y-2952242D01*
X6176263Y-2962655D01*
X6170929Y-2967736D01*
X6155436Y-2973070D01*
X6108700Y-2973070D01*
X6145022Y-2973070D02*
G01*
X6181343Y-3030220D01*
X6215634Y-2921000D02*
G01*
X6215634Y-3030220D01*
X6215634Y-2921000D02*
G01*
X6283197Y-2921000D01*
X6215634Y-2973070D02*
G01*
X6257290Y-2973070D01*
X6215634Y-3030220D02*
G01*
X6283197Y-3030220D01*
X6390386Y-2936494D02*
G01*
X6379972Y-2926079D01*
X6364224Y-2921000D01*
X6343650Y-2921000D01*
X6327902Y-2926079D01*
X6317488Y-2936494D01*
X6317488Y-2946907D01*
X6322822Y-2957321D01*
X6327902Y-2962655D01*
X6338315Y-2967736D01*
X6369558Y-2978150D01*
X6379972Y-2983229D01*
X6385052Y-2988563D01*
X6390386Y-2998978D01*
X6390386Y-3014471D01*
X6379972Y-3024886D01*
X6364224Y-3030220D01*
X6343650Y-3030220D01*
X6327902Y-3024886D01*
X6317488Y-3014471D01*
X6424675Y-2921000D02*
G01*
X6424675Y-3030220D01*
X6424675Y-2921000D02*
G01*
X6492240Y-2921000D01*
X6424675Y-2973070D02*
G01*
X6466077Y-2973070D01*
X6424675Y-3030220D02*
G01*
X6492240Y-3030220D01*
X6562852Y-2921000D02*
G01*
X6562852Y-3030220D01*
X6526529Y-2921000D02*
G01*
X6599174Y-2921000D01*
X5740397Y-4170174D02*
G01*
X5849363Y-4170174D01*
X5849363Y-4170174D02*
G01*
X5849363Y-4107944D01*
X5740397Y-4073654D02*
G01*
X5849363Y-4073654D01*
X5740397Y-4073654D02*
G01*
X5740397Y-4006090D01*
X5792213Y-4073654D02*
G01*
X5792213Y-4031998D01*
X5849363Y-4073654D02*
G01*
X5849363Y-4006090D01*
X5740397Y-3971800D02*
G01*
X5849363Y-3971800D01*
X5740397Y-3971800D02*
G01*
X5740397Y-3935224D01*
X5745477Y-3919730D01*
X5755891Y-3909316D01*
X5766305Y-3904236D01*
X5781799Y-3898902D01*
X5807707Y-3898902D01*
X5823455Y-3904236D01*
X5833869Y-3909316D01*
X5844283Y-3919730D01*
X5849363Y-3935224D01*
X5849363Y-3971800D01*
X3225802Y-3786631D02*
G01*
X3303780Y-3786631D01*
X3319274Y-3781552D01*
X3329688Y-3771137D01*
X3334768Y-3755389D01*
X3334768Y-3744976D01*
X3329688Y-3729481D01*
X3319274Y-3719068D01*
X3303780Y-3713987D01*
X3225802Y-3713987D01*
X3251710Y-3674363D02*
G01*
X3246630Y-3674363D01*
X3236216Y-3669284D01*
X3230882Y-3663950D01*
X3225802Y-3653536D01*
X3225802Y-3632962D01*
X3230882Y-3622547D01*
X3236216Y-3617213D01*
X3246630Y-3612134D01*
X3257044Y-3612134D01*
X3267458Y-3617213D01*
X3282952Y-3627628D01*
X3334768Y-3679697D01*
X3334768Y-3606800D01*
D10*
X2984728Y-3217621D02*
G01*
X2790926Y-3217621D01*
X2984728Y-3217621D02*
G01*
X2984728Y-3337509D01*
X2892526Y-3217621D02*
G01*
X2892526Y-3291281D01*
X2790926Y-3217621D02*
G01*
X2790926Y-3337509D01*
X2957042Y-3527755D02*
G01*
X2975584Y-3509467D01*
X2984728Y-3481781D01*
X2984728Y-3444697D01*
X2975584Y-3417011D01*
X2957042Y-3398469D01*
X2938754Y-3398469D01*
X2920212Y-3407867D01*
X2911068Y-3417011D01*
X2901670Y-3435553D01*
X2883128Y-3490925D01*
X2873984Y-3509467D01*
X2864840Y-3518611D01*
X2846298Y-3527755D01*
X2818612Y-3527755D01*
X2800070Y-3509467D01*
X2790926Y-3481781D01*
X2790926Y-3444697D01*
X2800070Y-3417011D01*
X2818612Y-3398469D01*
X2984728Y-3588715D02*
G01*
X2790926Y-3588715D01*
X2984728Y-3588715D02*
G01*
X2984728Y-3672027D01*
X2975584Y-3699713D01*
X2966440Y-3708857D01*
X2947898Y-3718001D01*
X2920212Y-3718001D01*
X2901670Y-3708857D01*
X2892526Y-3699713D01*
X2883128Y-3672027D01*
X2883128Y-3588715D01*
X2947898Y-3778961D02*
G01*
X2957042Y-3797503D01*
X2984728Y-3825189D01*
X2790926Y-3825189D01*
X2938754Y-3895547D02*
G01*
X2947898Y-3895547D01*
X2966440Y-3904691D01*
X2975584Y-3913835D01*
X2984728Y-3932377D01*
X2984728Y-3969461D01*
X2975584Y-3987749D01*
X2966440Y-3997147D01*
X2947898Y-4006291D01*
X2929356Y-4006291D01*
X2911068Y-3997147D01*
X2883128Y-3978605D01*
X2790926Y-3886149D01*
X2790926Y-4015435D01*
X2984728Y-4076395D02*
G01*
X2790926Y-4076395D01*
X2984728Y-4076395D02*
G01*
X2984728Y-4196537D01*
X2892526Y-4076395D02*
G01*
X2892526Y-4150309D01*
D12*
X2540000Y-2336800D02*
G01*
X2540000Y-2445765D01*
X2540000Y-2336800D02*
G01*
X2586736Y-2336800D01*
X2602229Y-2341879D01*
X2607563Y-2346960D01*
X2612643Y-2357373D01*
X2612643Y-2373121D01*
X2607563Y-2383536D01*
X2602229Y-2388615D01*
X2586736Y-2393950D01*
X2540000Y-2393950D01*
X2657347Y-2336800D02*
G01*
X2714497Y-2336800D01*
X2683509Y-2378202D01*
X2699004Y-2378202D01*
X2709418Y-2383536D01*
X2714497Y-2388615D01*
X2719831Y-2404110D01*
X2719831Y-2414523D01*
X2714497Y-2430271D01*
X2704084Y-2440686D01*
X2688590Y-2445765D01*
X2673095Y-2445765D01*
X2657347Y-2440686D01*
X2652268Y-2435352D01*
X2646934Y-2424937D01*
X3187700Y-2286000D02*
G01*
X3187700Y-2394965D01*
X3187700Y-2286000D02*
G01*
X3224022Y-2286000D01*
X3239770Y-2291079D01*
X3249929Y-2301494D01*
X3255263Y-2311907D01*
X3260343Y-2327402D01*
X3260343Y-2353310D01*
X3255263Y-2369057D01*
X3249929Y-2379471D01*
X3239770Y-2389886D01*
X3224022Y-2394965D01*
X3187700Y-2394965D01*
X3294634Y-2286000D02*
G01*
X3294634Y-2394965D01*
X3401822Y-2301494D02*
G01*
X3391408Y-2291079D01*
X3375659Y-2286000D01*
X3355086Y-2286000D01*
X3339338Y-2291079D01*
X3328924Y-2301494D01*
X3328924Y-2311907D01*
X3334258Y-2322321D01*
X3339338Y-2327402D01*
X3349752Y-2332736D01*
X3380993Y-2343150D01*
X3391408Y-2348229D01*
X3396488Y-2353310D01*
X3401822Y-2363723D01*
X3401822Y-2379471D01*
X3391408Y-2389886D01*
X3375659Y-2394965D01*
X3355086Y-2394965D01*
X3339338Y-2389886D01*
X3328924Y-2379471D01*
X3436111Y-2286000D02*
G01*
X3436111Y-2394965D01*
X3436111Y-2286000D02*
G01*
X3482847Y-2286000D01*
X3498341Y-2291079D01*
X3503675Y-2296160D01*
X3508756Y-2306573D01*
X3508756Y-2322321D01*
X3503675Y-2332736D01*
X3498341Y-2337815D01*
X3482847Y-2343150D01*
X3436111Y-2343150D01*
X3543045Y-2286000D02*
G01*
X3543045Y-2394965D01*
X3543045Y-2394965D02*
G01*
X3605529Y-2394965D01*
X3681222Y-2286000D02*
G01*
X3639820Y-2394965D01*
X3681222Y-2286000D02*
G01*
X3722877Y-2394965D01*
X3655313Y-2358644D02*
G01*
X3707129Y-2358644D01*
X3757168Y-2286000D02*
G01*
X3798570Y-2337815D01*
X3798570Y-2394965D01*
X3840225Y-2286000D02*
G01*
X3798570Y-2337815D01*
X3874515Y-2348229D02*
G01*
X3967988Y-2348229D01*
X4002277Y-2301494D02*
G01*
X4085590Y-2348229D01*
X4002277Y-2394965D01*
X6565902Y-3839463D02*
G01*
X6643880Y-3839463D01*
X6659374Y-3834384D01*
X6669788Y-3823970D01*
X6674868Y-3808221D01*
X6674868Y-3797807D01*
X6669788Y-3782313D01*
X6659374Y-3771900D01*
X6643880Y-3766820D01*
X6565902Y-3766820D01*
X6581396Y-3659631D02*
G01*
X6570982Y-3670045D01*
X6565902Y-3685794D01*
X6565902Y-3706368D01*
X6570982Y-3722115D01*
X6581396Y-3732529D01*
X6591810Y-3732529D01*
X6602224Y-3727195D01*
X6607304Y-3722115D01*
X6612638Y-3711702D01*
X6623052Y-3680460D01*
X6628132Y-3670045D01*
X6633466Y-3664965D01*
X6643880Y-3659631D01*
X6659374Y-3659631D01*
X6669788Y-3670045D01*
X6674868Y-3685794D01*
X6674868Y-3706368D01*
X6669788Y-3722115D01*
X6659374Y-3732529D01*
X6565902Y-3625342D02*
G01*
X6674868Y-3625342D01*
X6565902Y-3625342D02*
G01*
X6565902Y-3578605D01*
X6570982Y-3563112D01*
X6576316Y-3557778D01*
X6586730Y-3552697D01*
X6597144Y-3552697D01*
X6607304Y-3557778D01*
X6612638Y-3563112D01*
X6617718Y-3578605D01*
X6617718Y-3625342D02*
G01*
X6617718Y-3578605D01*
X6623052Y-3563112D01*
X6628132Y-3557778D01*
X6638546Y-3552697D01*
X6654294Y-3552697D01*
X6664454Y-3557778D01*
X6669788Y-3563112D01*
X6674868Y-3578605D01*
X6674868Y-3625342D01*
X6586730Y-3518407D02*
G01*
X6581396Y-3507994D01*
X6565902Y-3492500D01*
X6674868Y-3492500D01*
G36*
X5313680Y-3456787D02*
G01*
X5313629Y-3756812D01*
X5324754Y-3755593D01*
X5335727Y-3753612D01*
X5346496Y-3750818D01*
X5357063Y-3747211D01*
X5367324Y-3742842D01*
X5377230Y-3737711D01*
X5386730Y-3731869D01*
X5395772Y-3725367D01*
X5404307Y-3718204D01*
X5412282Y-3710381D01*
X5419648Y-3702050D01*
X5426354Y-3693160D01*
X5432450Y-3683812D01*
X5437784Y-3674008D01*
X5442407Y-3663848D01*
X5446268Y-3653383D01*
X5449316Y-3642664D01*
X5451551Y-3631793D01*
X5453024Y-3620719D01*
X5453634Y-3609594D01*
X5453430Y-3598418D01*
X5452364Y-3587343D01*
X5450535Y-3576320D01*
X5447893Y-3565499D01*
X5444439Y-3554933D01*
X5440172Y-3544620D01*
X5435193Y-3534613D01*
X5429504Y-3525062D01*
X5423103Y-3515918D01*
X5416042Y-3507282D01*
X5408320Y-3499205D01*
X5400090Y-3491737D01*
X5391302Y-3484879D01*
X5382006Y-3478682D01*
X5372303Y-3473196D01*
X5362244Y-3468471D01*
X5351830Y-3464458D01*
X5341112Y-3461258D01*
X5330240Y-3458870D01*
X5324754Y-3457956D01*
G37*
G36*
X5783580Y-3431387D02*
G01*
X5783529Y-3731412D01*
X5794654Y-3730193D01*
X5805627Y-3728212D01*
X5816396Y-3725418D01*
X5826963Y-3721811D01*
X5837224Y-3717442D01*
X5847130Y-3712311D01*
X5856630Y-3706469D01*
X5865672Y-3699967D01*
X5874207Y-3692804D01*
X5882182Y-3684981D01*
X5889548Y-3676650D01*
X5896254Y-3667760D01*
X5902350Y-3658412D01*
X5907684Y-3648608D01*
X5912307Y-3638448D01*
X5916168Y-3627983D01*
X5919216Y-3617264D01*
X5921451Y-3606393D01*
X5922924Y-3595319D01*
X5923534Y-3584194D01*
X5923330Y-3573018D01*
X5922264Y-3561943D01*
X5920435Y-3550920D01*
X5917793Y-3540099D01*
X5914339Y-3529533D01*
X5910072Y-3519220D01*
X5905093Y-3509213D01*
X5899404Y-3499662D01*
X5893003Y-3490518D01*
X5885942Y-3481882D01*
X5878220Y-3473805D01*
X5869990Y-3466337D01*
X5861202Y-3459479D01*
X5851906Y-3453282D01*
X5842203Y-3447796D01*
X5832144Y-3443071D01*
X5821730Y-3439058D01*
X5811012Y-3435858D01*
X5800140Y-3433470D01*
X5794654Y-3432556D01*
G37*
D10*
X1549400Y-3136900D02*
G01*
X1549400Y-2946400D01*
X1295400Y-2946400D01*
X1295400Y-4470400D01*
X1549400Y-4470400D01*
D13*
X1549400Y-4470400D02*
G01*
X1549400Y-3136900D01*
D10*
X1701800Y-4826000D02*
G01*
X1511300Y-4826000D01*
X1511300Y-5080000D01*
X3035300Y-5080000D01*
X3035300Y-4826000D01*
D13*
X3035300Y-4826000D02*
G01*
X1701800Y-4826000D01*
D14*
X4737100Y-3606800D02*
G01*
X4737100Y-3098800D01*
X4737100Y-3098800D02*
G01*
X4813300Y-3098800D01*
X4813300Y-3098800D02*
G01*
X4889500Y-3098800D01*
X4889500Y-3098800D02*
G01*
X4889500Y-3606800D01*
X4889500Y-3606800D02*
G01*
X4813300Y-3606800D01*
X4813300Y-3606800D02*
G01*
X4737100Y-3606800D01*
X4813300Y-3098800D02*
G01*
X4813300Y-3073400D01*
X4813300Y-3606800D02*
G01*
X4813300Y-3632200D01*
D15*
X3721100Y-4597400D02*
G01*
X4229100Y-4597400D01*
X4229100Y-4826000D01*
X3721100Y-4826000D01*
X3721100Y-4597400D01*
X4165600Y-4597400D02*
G01*
X4165600Y-4826000D01*
D16*
X5575554Y-4292854D02*
G01*
X5575554Y-4800854D01*
X5829554Y-4800854D01*
X5829554Y-4292854D01*
X5575554Y-4292854D01*
D14*
X5181600Y-3124200D02*
G01*
X5689600Y-3124200D01*
X5689600Y-3124200D02*
G01*
X5689600Y-3200400D01*
X5689600Y-3200400D02*
G01*
X5689600Y-3276600D01*
X5689600Y-3276600D02*
G01*
X5181600Y-3276600D01*
X5181600Y-3276600D02*
G01*
X5181600Y-3200400D01*
X5181600Y-3200400D02*
G01*
X5181600Y-3124200D01*
X5689600Y-3200400D02*
G01*
X5715000Y-3200400D01*
X5181600Y-3200400D02*
G01*
X5156200Y-3200400D01*
X5181600Y-2882900D02*
G01*
X5689600Y-2882900D01*
X5689600Y-2882900D02*
G01*
X5689600Y-2959100D01*
X5689600Y-2959100D02*
G01*
X5689600Y-3035300D01*
X5689600Y-3035300D02*
G01*
X5181600Y-3035300D01*
X5181600Y-3035300D02*
G01*
X5181600Y-2959100D01*
X5181600Y-2959100D02*
G01*
X5181600Y-2882900D01*
X5689600Y-2959100D02*
G01*
X5715000Y-2959100D01*
X5181600Y-2959100D02*
G01*
X5156200Y-2959100D01*
X4635500Y-3098800D02*
G01*
X4635500Y-3606800D01*
X4635500Y-3606800D02*
G01*
X4559300Y-3606800D01*
X4559300Y-3606800D02*
G01*
X4483100Y-3606800D01*
X4483100Y-3606800D02*
G01*
X4483100Y-3098800D01*
X4483100Y-3098800D02*
G01*
X4559300Y-3098800D01*
X4559300Y-3098800D02*
G01*
X4635500Y-3098800D01*
X4559300Y-3606800D02*
G01*
X4559300Y-3632200D01*
X4559300Y-3098800D02*
G01*
X4559300Y-3073400D01*
X4229100Y-5016500D02*
G01*
X3721100Y-5016500D01*
X3721100Y-5016500D02*
G01*
X3721100Y-4940300D01*
X3721100Y-4940300D02*
G01*
X3721100Y-4864100D01*
X3721100Y-4864100D02*
G01*
X4229100Y-4864100D01*
X4229100Y-4864100D02*
G01*
X4229100Y-4940300D01*
X4229100Y-4940300D02*
G01*
X4229100Y-5016500D01*
X3721100Y-4940300D02*
G01*
X3695700Y-4940300D01*
X4229100Y-4940300D02*
G01*
X4254500Y-4940300D01*
X5219700Y-4064000D02*
G01*
X4711700Y-4064000D01*
X4711700Y-4064000D02*
G01*
X4711700Y-3987800D01*
X4711700Y-3987800D02*
G01*
X4711700Y-3911600D01*
X4711700Y-3911600D02*
G01*
X5219700Y-3911600D01*
X5219700Y-3911600D02*
G01*
X5219700Y-3987800D01*
X5219700Y-3987800D02*
G01*
X5219700Y-4064000D01*
X4711700Y-3987800D02*
G01*
X4686300Y-3987800D01*
X5219700Y-3987800D02*
G01*
X5245100Y-3987800D01*
D16*
X1549654Y-2793745D02*
G01*
X2057654Y-2793745D01*
X2057654Y-2539745D01*
X1549654Y-2539745D01*
X1549654Y-2793745D01*
D14*
X5083657Y-3643807D02*
G01*
X5083657Y-3565067D01*
X5127472Y-3605809D02*
G01*
X5043652Y-3605809D01*
D16*
X4787645Y-5117845D02*
G01*
X4787645Y-4609845D01*
X4533645Y-4609845D01*
X4533645Y-5117845D01*
X4787645Y-5117845D01*
D14*
X5553557Y-3618407D02*
G01*
X5553557Y-3539667D01*
X5597372Y-3580409D02*
G01*
X5513552Y-3580409D01*
X5501599Y-4455698D02*
G01*
X4861600Y-4455698D01*
X5501599Y-4455698D02*
G01*
X5501599Y-4835697D01*
X4861600Y-4835697D02*
G01*
X5501599Y-4835697D01*
X4861600Y-4835697D02*
G01*
X4861600Y-4455698D01*
X6034430Y-4436973D02*
G01*
X6034430Y-5026863D01*
X6614286Y-5026863D01*
X6614286Y-4436973D01*
X6034430Y-4436973D01*
X6047130Y-2277973D02*
G01*
X6047130Y-2867863D01*
X6626986Y-2867863D01*
X6626986Y-2277973D01*
X6047130Y-2277973D01*
X5946647Y-4165600D02*
G01*
X5947181Y-3910812D01*
X1994077Y-2857449D02*
G01*
X1994077Y-4457445D01*
X1994077Y-4457445D02*
G01*
X4394072Y-4457445D01*
X4394072Y-4457445D02*
G01*
X4394072Y-2857449D01*
X1994077Y-2857449D01*
X3694074Y-2957448D02*
G01*
X3694074Y-4357446D01*
X3794074Y-4157446D02*
G01*
X3794074Y-3157448D01*
X4294073Y-3157448D01*
X4294073Y-3257448D01*
X3994073Y-3257448D01*
X3994073Y-3357448D01*
X4294073Y-3357448D01*
X4294073Y-3457447D01*
X3994073Y-3457447D01*
X3994073Y-3557447D01*
X4294073Y-3557447D01*
X4294073Y-3657447D01*
X3994073Y-3657447D01*
X3994073Y-3757447D01*
X4294073Y-3757447D01*
X4294073Y-4357446D01*
X3494074Y-3057448D02*
G01*
X2194077Y-3057448D01*
X2194077Y-4257446D01*
X3494074Y-4257446D01*
X3494074Y-3057448D01*
D10*
X3048000Y-2235200D02*
G01*
X3048000Y-2489200D01*
X2032000Y-2489200D01*
X2032000Y-2235200D01*
X2222500Y-2235200D01*
D13*
X3048000Y-2235200D02*
G01*
X2222500Y-2235200D01*
D10*
X5156200Y-2222500D02*
G01*
X5156200Y-2476500D01*
X4140200Y-2476500D01*
X4140200Y-2222500D01*
X4330700Y-2222500D01*
D13*
X5156200Y-2222500D02*
G01*
X4330700Y-2222500D01*
D14*
X6317195Y-3257613D02*
G01*
X6867207Y-3257613D01*
X6868198Y-3258604D02*
G01*
X6910235Y-3219894D01*
X6910235Y-3249256D01*
X6877215Y-3279736D01*
X6877215Y-4042498D01*
X6915315Y-4078058D01*
X6915315Y-4094492D01*
X6910235Y-4094492D01*
X6868198Y-4058602D01*
X6318186Y-4057611D02*
G01*
X6868198Y-4057611D01*
X6317195Y-3257613D02*
G01*
X6317195Y-4057611D01*
G75*
G01*
X5946648Y-3912057D02*
G03*
X5946648Y-4165549I-154710J-126746D01*
G75*
G01
X5458663Y-3606800D02*
G03X5458663Y-3606800I-150012J0D01*
G75*
G01
X5928563Y-3581400D02*
G03X5928563Y-3581400I-150012J0D01*
G75*
G01
X6394958Y-4732274D02*
G03X6394958Y-4732274I-74930J0D01*
G75*
G01
X6495034Y-4732274D02*
G03X6495034Y-4732274I-175006J0D01*
G75*
G01
X6407658Y-2573274D02*
G03X6407658Y-2573274I-74930J0D01*
G75*
G01
X6507734Y-2573274D02*
G03X6507734Y-2573274I-175006J0D01*
M02*
